<svg class="ds-svg-icon" xmlns="http://www.w3.org/2000/svg"><symbol id="accessibility" width="100%" height="100%"  viewBox="0 0 29 29" fill="none">  <g stroke="var(--ds-icon-color, black)" stroke-linejoin="round" stroke-linecap="round" stroke-width="var(--ds-icon-stroke, 1)">    <path d="M14.5 2C16.15 2 17.5 3.34 17.5 5C17.5 6.66 16.15 8 14.5 8C12.84 8 11.5 6.66 11.5 5C11.5 3.34 12.84 2 14.5 2Z"/>    <path d="M14.5 9.5C15.5 9.5 16.49 9.37 17.45 9.11L22.62 7.73C23.55 7.48 24.51 8.03 24.76 8.96C25.01 9.9 24.46 10.86 23.52 11.11L17.82 12.65C17.78 12.66 17.75 12.7 17.75 12.74V14.49C17.75 15.8 18.12 17.09 18.81 18.2L22.73 24.46C23.28 25.42 22.95 26.64 22 27.2C21.04 27.75 19.82 27.42 19.26 26.46L14.5 19L9.73 26.46C9.18 27.42 7.95 27.75 7 27.2C6.04 26.64 5.71 25.42 6.26 24.46L10.18 18.2C10.88 17.09 11.25 15.8 11.25 14.49V12.73C11.25 12.69 11.22 12.65 11.17 12.64L5.47 11.11C4.54 10.86 3.98 9.9 4.23 8.96C4.48 8.03 5.44 7.48 6.38 7.73L11.54 9.11C12.5 9.37 13.5 9.5 14.5 9.5Z"/>  </g></symbol><symbol id="apps" width="100%" height="100%"  viewBox="0 0 29 29" fill="none">  <g stroke="var(--ds-icon-color, black)" stroke-linejoin="round" stroke-linecap="round" stroke-width="var(--ds-icon-stroke, 1)">    <path d="M26.5 3.5C26.5 2.95 26.05 2.5 25.5 2.5H17.5C16.95 2.5 16.5 2.95 16.5 3.5V11.5C16.5 12.05 16.95 12.5 17.5 12.5H25.5C26.05 12.5 26.5 12.05 26.5 11.5V3.5Z"/>    <path d="M26.5 17.5C26.5 16.95 26.05 16.5 25.5 16.5H17.5C16.95 16.5 16.5 16.95 16.5 17.5V25.5C16.5 26.05 16.95 26.5 17.5 26.5H25.5C26.05 26.5 26.5 26.05 26.5 25.5V17.5Z"/>    <path d="M12.5 3.5C12.5 2.95 12.05 2.5 11.5 2.5H3.5C2.95 2.5 2.5 2.95 2.5 3.5V11.5C2.5 12.05 2.95 12.5 3.5 12.5H11.5C12.05 12.5 12.5 12.05 12.5 11.5V3.5Z"/>    <path d="M12.5 17.5C12.5 16.95 12.05 16.5 11.5 16.5H3.5C2.95 16.5 2.5 16.95 2.5 17.5V25.5C2.5 26.05 2.95 26.5 3.5 26.5H11.5C12.05 26.5 12.5 26.05 12.5 25.5V17.5Z"/>  </g></symbol><symbol id="arrow-double-left" width="100%" height="100%"  viewBox="0 0 29 29" fill="none">  <g stroke="var(--ds-icon-color, black)" stroke-linejoin="round" stroke-linecap="round" stroke-width="var(--ds-icon-stroke, 1)">    <path d="M26.81 23L15.31 15C14.91 14.7 14.9 14.29 15.31 14L26.81 6M13.81 23L2.29 15C1.9 14.7 1.9 14.29 2.31 14L13.81 6"/>  </g></symbol><symbol id="arrow-double-right" width="100%" height="100%"  viewBox="0 0 29 29" fill="none">  <g stroke="var(--ds-icon-color, black)" stroke-linejoin="round" stroke-linecap="round" stroke-width="var(--ds-icon-stroke, 1)">    <path d="M2 6L13.5 14C13.89 14.3 13.9 14.71 13.5 15L2 23M15 6L26.52 14C26.91 14.3 26.9 14.71 26.5 15L15 23"/>  </g></symbol><symbol id="arrow-down" width="100%" height="100%"  viewBox="0 0 29 29" fill="none">  <g stroke="var(--ds-icon-color, black)" stroke-linejoin="round" stroke-linecap="round" stroke-width="var(--ds-icon-stroke, 1)">    <path d="M27 14L15.21 25.79C14.82 26.18 14.18 26.18 13.79 25.79L2 14M14.5 26L14.5 4"/>  </g></symbol><symbol id="arrow-left" width="100%" height="100%"  viewBox="0 0 29 29" fill="none">  <g stroke="var(--ds-icon-color, black)" stroke-linejoin="round" stroke-linecap="round" stroke-width="var(--ds-icon-stroke, 1)">    <path d="M15.54 27.54L3.75 15.75C3.36 15.36 3.36 14.73 3.75 14.34L15.54 2.54M3.54 15.04H25.54"/>  </g></symbol><symbol id="arrow-right" width="100%" height="100%"  viewBox="0 0 29 29" fill="none">  <g transform="rotate(180 15 15)" stroke="var(--ds-icon-color, black)" stroke-linejoin="round" stroke-linecap="round" stroke-width="var(--ds-icon-stroke, 1)">    <path d="M15.54 27.54L3.75 15.75C3.36 15.36 3.36 14.73 3.75 14.34L15.54 2.54M3.54 15.04H25.54"/>  </g></symbol><symbol id="arrow-single-down" width="100%" height="100%"  viewBox="0 0 29 29" fill="none">  <g stroke="var(--ds-icon-color, black)" stroke-linejoin="round" stroke-linecap="round" stroke-width="var(--ds-icon-stroke, 1)">    <path d="M27 7L15.16 23.59C14.72 24.15 14.02 24.14 13.59 23.57L2 7"/>  </g></symbol><symbol id="arrow-single-left" width="100%" height="100%"  viewBox="0 0 29 29" fill="none">  <g stroke="var(--ds-icon-color, black)" stroke-linejoin="round" stroke-linecap="round" stroke-width="var(--ds-icon-stroke, 1)">    <path d="M22 27L5.41 15.16C4.85 14.72 4.86 14.02 5.43 13.59L22 2"/>  </g></symbol><symbol id="arrow-single-right" width="100%" height="100%"  viewBox="0 0 29 29" fill="none">  <g stroke="var(--ds-icon-color, black)" stroke-linejoin="round" stroke-linecap="round" stroke-width="var(--ds-icon-stroke, 1)">    <path d="M6 2L22.59 13.84C23.15 14.28 23.14 14.98 22.57 15.41L6 27"/>  </g></symbol><symbol id="arrow-single-up" width="100%" height="100%"  viewBox="0 0 29 29" fill="none">  <g stroke="var(--ds-icon-color, black)" stroke-linejoin="round" stroke-linecap="round" stroke-width="var(--ds-icon-stroke, 1)">    <path d="M2 22L13.84 5.41C14.28 4.85 14.98 4.86 15.41 5.43L27 22"/>  </g></symbol><symbol id="arrow-up" width="100%" height="100%"  viewBox="0 0 29 29" fill="none">  <g transform="rotate(180 15 15)" stroke="var(--ds-icon-color, black)" stroke-linejoin="round" stroke-linecap="round" stroke-width="var(--ds-icon-stroke, 1)">    <path d="M27 14L15.21 25.79C14.82 26.18 14.18 26.18 13.79 25.79L2 14M14.5 26L14.5 4"/>  </g></symbol><symbol id="burgerbar" width="100%" height="100%"  viewBox="0 0 29 29" fill="none">  <g stroke="var(--ds-icon-color, black)" stroke-linejoin="round" stroke-linecap="round" stroke-width="var(--ds-icon-stroke, 1)">    <path d="M0.5 8.5H28.5M0.5 20.5H28.5"/>  </g></symbol><symbol id="calendar" width="100%" height="100%"  viewBox="0 0 29 29" fill="none">  <g stroke="var(--ds-icon-color, black)" stroke-linejoin="round" stroke-linecap="round" stroke-width="var(--ds-icon-stroke, 1)">    <path d="M19.5 2.18V6.82M9.5 2.18V6.82M2.5 11.5L2.5 24.09C2.5 25.42 3.54 26.5 4.83 26.5H24.17C25.46 26.5 26.5 25.42 26.5 24.09L26.5 11.5M2.5 11.5L2.5 6.91C2.5 5.58 3.54 4.5 4.83 4.5H24.17C25.46 4.5 26.5 5.58 26.5 6.91L26.5 11.5M2.5 11.5H26.5"/>  </g></symbol><symbol id="cases" width="100%" height="100%"  viewBox="0 0 29 29" fill="none">  <g stroke="var(--ds-icon-color, black)" stroke-linejoin="round" stroke-linecap="round" stroke-width="var(--ds-icon-stroke, 1)">    <path d="M21.5 7V5.5C21.5 4.95 21.05 4.5 20.5 4.5H7.5C6.95 4.5 6.5 4.95 6.5 5.5V23.5C6.5 24.05 6.95 24.5 7.5 24.5H12M16.5 4V2.5C16.5 1.95 16.05 1.5 15.5 1.5H2.5C1.95 1.5 1.5 1.95 1.5 2.5V20.5C1.5 21.05 1.95 21.5 2.5 21.5H6M13.5 7.5H26.5C27.05 7.5 27.5 7.95 27.5 8.5V26.5C27.5 27.05 27.05 27.5 26.5 27.5H13.5C12.95 27.5 12.5 27.05 12.5 26.5V8.5C12.5 7.95 12.95 7.5 13.5 7.5Z"/>  </g></symbol><symbol id="checkbox" width="100%" height="100%"  viewBox="0 0 29 29" fill="none">  <g stroke="var(--ds-icon-color, black)" stroke-linejoin="round" stroke-linecap="round" stroke-width="var(--ds-icon-stroke, 1)">    <path d="M18 2.5H4C3.17 2.5 2.5 3.17 2.5 4V25C2.5 25.83 3.17 26.5 4 26.5H24.5C25.6 26.5 26.5 25.6 26.5 24.5V14M26.5 2.5L14.5 19.5L7.5 12.5"/>  </g></symbol><symbol id="choose" width="100%" height="100%"  viewBox="0 0 29 29" fill="none">  <g stroke="var(--ds-icon-color, black)" stroke-linejoin="round" stroke-linecap="round" stroke-width="var(--ds-icon-stroke, 1)">    <path d="M16.5 14.5C16.5 15.6 15.6 16.5 14.5 16.5C13.4 16.5 12.5 15.6 12.5 14.5C12.5 13.4 13.4 12.5 14.5 12.5C15.6 12.5 16.5 13.4 16.5 14.5Z"/>    <path d="M27.5 14.5C27.5 15.6 26.6 16.5 25.5 16.5C24.4 16.5 23.5 15.6 23.5 14.5C23.5 13.4 24.4 12.5 25.5 12.5C26.6 12.5 27.5 13.4 27.5 14.5Z"/>    <path d="M5.5 14.5C5.5 15.6 4.6 16.5 3.5 16.5C2.4 16.5 1.5 15.6 1.5 14.5C1.5 13.4 2.4 12.5 3.5 12.5C4.6 12.5 5.5 13.4 5.5 14.5Z"/>  </g></symbol><symbol id="clipboard" width="100%" height="100%"  viewBox="0 0 29 29" fill="none">  <g stroke="var(--ds-icon-color, black)" stroke-linejoin="round" stroke-linecap="round" stroke-width="var(--ds-icon-stroke, 1)">    <path d="M18.5 3.5H22.5C23.03 3.5 23.54 3.71 23.91 4.09C24.29 4.46 24.5 4.97 24.5 5.5V24.5C24.5 25.03 24.29 25.54 23.91 25.91C23.54 26.29 23.03 26.5 22.5 26.5H6.5C5.97 26.5 5.46 26.29 5.09 25.91C4.71 25.54 4.5 25.03 4.5 24.5V5.5C4.5 4.97 4.71 4.46 5.09 4.09C5.46 3.71 5.97 3.5 6.5 3.5H10.5M11.5 1.5H17.5C18.05 1.5 18.5 1.95 18.5 2.5V4.5C18.5 5.05 18.05 5.5 17.5 5.5H11.5C10.95 5.5 10.5 5.05 10.5 4.5V2.5C10.5 1.95 10.95 1.5 11.5 1.5Z"/>  </g></symbol><symbol id="close" width="100%" height="100%"  viewBox="0 0 29 29" fill="none">  <g stroke="var(--ds-icon-color, black)" stroke-linejoin="round" stroke-linecap="round" stroke-width="var(--ds-icon-stroke, 1)">    <path d="M2 2L14.5 14.5M14.5 14.5L27 27M14.5 14.5L2 27M14.5 14.5L27 2"/>  </g></symbol><symbol id="code" width="100%" height="100%"  viewBox="0 0 29 29" fill="none">  <g stroke="var(--ds-icon-color, black)" stroke-linejoin="round" stroke-linecap="round" stroke-width="var(--ds-icon-stroke, 1)">    <path d="M21.33 21.5L28 14.5L21.33 7.42M7.5 7.5L1 14.5L7.5 21.5M18.5 1.5L10.5 27.5"/>  </g></symbol><symbol id="compass" width="100%" height="100%"  viewBox="0 0 31 31" fill="none">  <circle cx="15.5" cy="15.5" r="15" fill="var(--c8, black)" stroke="var(--white, white)" stroke-width="var(--ds-icon-stroke, 1)"/>  <g stroke="var(--white, white)" stroke-linecap="round" stroke-linejoin="round">    <path id="west" d="M3.9 16.79L7.12 15.5L3.9 14.21"/>    <path id="east" d="M23.88 16.79L27.1 14.21M25.81 16.79H25.16C24.45 16.79 23.88 16.21 23.88 15.5C23.88 14.79 24.45 14.21 25.16 14.21H25.81C26.52 14.21 27.1 14.79 27.1 15.5C27.1 16.21 26.52 16.79 25.81 16.79Z"/>    <path id="south" d="M14.21 26.46C14.21 26.81 14.5 27.1 14.86 27.1H16.06C16.46 27.1 16.79 26.78 16.79 26.38C16.79 26.05 16.56 25.76 16.24 25.68L14.76 25.3C14.44 25.22 14.21 24.93 14.21 24.6C14.21 24.2 14.54 23.88 14.93 23.88H16.14C16.5 23.88 16.79 24.17 16.79 24.52"/>    <path id="north" d="M14.21 7.12L14.22 3.9L16.79 7.12V3.9"/>  </g>  <path id="north-pointer" d="M12.13 15.49C12.12 15.02 12.29 14.72 12.45 14.41L14.96 9.4C15.15 8.99 15.8 9.01 15.99 9.37L18.63 14.65C18.73 14.87 18.85 15.16 18.84 15.49L17.21 15.49C17.21 15.49 17.12 13.78 15.49 13.77C13.86 13.76 13.75 15.49 13.75 15.49L12.13 15.49Z" fill="var(--r5, red)"/>  <path id="south-pointer" d="M12.12 15.5C12.12 15.96 12.28 16.26 12.44 16.58L14.95 21.58C15.14 21.99 15.79 21.97 15.98 21.61L18.62 16.33C18.73 16.12 18.84 15.82 18.83 15.49L17.2 15.49C17.2 15.49 17.12 17.2 15.48 17.21C13.85 17.22 13.75 15.5 13.75 15.5L12.12 15.5Z" fill="var(--white, white)"/>  <path d="M5.19 5.19L7.77 7.77M25.81 5.19L23.23 7.77M25.81 25.81L23.23 23.23M5.19 25.81L7.77 23.23" stroke="white" stroke-linecap="round" stroke-linejoin="round" stroke-width="var(--ds-icon-stroke, 1)"/></symbol><symbol id="cookie" width="100%" height="100%"  viewBox="0 0 29 29" fill="none">  <g stroke="var(--ds-icon-color, black)" stroke-linejoin="round" stroke-linecap="round" stroke-width="var(--ds-icon-stroke, 1)">    <path d="M14.67 3.75C14.56 4.06 14.5 4.39 14.5 4.73C14.5 5.5 14.79 6.19 15.27 6.71C14.78 7.57 14.5 8.57 14.5 9.63C14.5 12.87 17.13 15.5 20.38 15.5C21.44 15.5 22.43 15.22 23.29 14.73C23.81 15.21 24.51 15.5 25.27 15.5C25.62 15.5 25.94 15.44 26.25 15.33C26.25 15.39 26.25 15.44 26.25 15.5C26.25 21.99 20.99 27.25 14.5 27.25C8.01 27.25 2.75 21.99 2.75 15.5C2.75 9.01 8.01 3.75 14.5 3.75C14.56 3.75 14.61 3.75 14.67 3.75Z"/>    <circle cx="19.5" cy="20.2" r="1.4"/>    <circle cx="13" cy="16.2" r="1.1"/>    <circle cx="9.2" cy="20.6" r="1.3"/>    <circle cx="10.5" cy="10.7" r="1.2"/>    <circle cx="8.25" cy="14.6" r="1.5"/>    <circle cx="23" cy="4.2" r="1.6"/>    <circle cx="20" cy="7.4" r="1.2"/>    <circle cx="25.5" cy="10.9" r="1.3"/>  </g></symbol><symbol id="coordinate" width="100%" height="100%"  viewBox="0 0 29 29" fill="none">  <g stroke="var(--ds-icon-color, black)" stroke-linejoin="round" stroke-linecap="round" stroke-width="var(--ds-icon-stroke, 1)">    <path d="M8.5 0.5L8.5 8.5M8.5 8.5V20.5M8.5 8.5H0.5M8.5 8.5H20.5M8.5 20.5L8.5 28.5M8.5 20.5H0.5M8.5 20.5H20.5M20.5 0.5V8.5M20.5 8.5V20.5M20.5 8.5H28.5M20.5 20.5V28.5M20.5 20.5H28.5"/>  </g></symbol><symbol id="copy" width="100%" height="100%"  viewBox="0 0 29 29" fill="none">  <g stroke="var(--ds-icon-color, black)" stroke-linejoin="round" stroke-linecap="round" stroke-width="var(--ds-icon-stroke, 1)">    <path d="M20.5 6V4.5C20.5 3.4 19.6 2.5 18.5 2.5H4.5C3.4 2.5 2.5 3.4 2.5 4.5V18.5C2.5 19.6 3.4 20.5 4.5 20.5H6M26.5 24.5V10.5C26.5 9.4 25.6 8.5 24.5 8.5H10.5C9.4 8.5 8.5 9.4 8.5 10.5V24.5C8.5 25.6 9.4 26.5 10.5 26.5H24.5C25.6 26.5 26.5 25.6 26.5 24.5Z"/>  </g></symbol><symbol id="crosshair" width="100%" height="100%"  viewBox="0 0 29 29" fill="none">  <g stroke="var(--ds-icon-color, black)" stroke-linejoin="round" stroke-linecap="round" stroke-width="var(--ds-icon-stroke, 1)">    <path d="M1.5 14.5H6.5M22.5 14.5H27.5M14.49 1.5V6.5M14.5 22.5V27.5M27.5 14.5C27.5 21.68 21.68 27.5 14.5 27.5C7.32 27.5 1.5 21.68 1.5 14.5C1.5 7.32 7.32 1.5 14.5 1.5C21.68 1.5 27.5 7.32 27.5 14.5Z"/>  </g></symbol><symbol id="crown-small" width="100%" height="100%"  viewBox="0 0 29 29" fill="none">  <g stroke="var(--ds-icon-color, black)" stroke-linejoin="round" stroke-width="var(--ds-icon-stroke, 1)">    <path d="M5.8 26.1H23.2M5.8 22.23H23.2M14.5 0.96V1.93M14.5 4.83V5.31M14.5 9.18C15.45 8.52 16.46 6.72 19.33 6.73C21.47 6.74 22.8 7.5 23.06 9.4M14.5 9.18C13.54 8.52 12.53 6.75 9.66 6.73C7.52 6.72 6.19 7.5 5.93 9.4M14.5 9.18V18.8M23.06 9.4C23.09 9.62 23.1 9.86 23.1 10.11C23.1 13.2 21.62 15.32 19.03 18.8M23.06 9.4C25.19 9.4 26.16 10.59 26.16 12.52C26.16 14.12 24.72 16.63 23.12 18.8M5.93 9.4C5.9 9.62 5.89 9.86 5.89 10.11C5.89 13.2 7.39 15.32 9.98 18.8M5.93 9.4C3.73 9.4 2.83 10.58 2.83 12.51C2.83 14.12 4.27 16.63 5.88 18.8M16.91 3.38H15.95M13.05 3.38H12.08M16.01 7.14C16.01 7.98 15.33 8.65 14.5 8.65C13.66 8.65 12.99 7.98 12.99 7.14C12.99 6.31 13.66 5.64 14.5 5.64C15.33 5.64 16.01 6.31 16.01 7.14Z"/>  </g></symbol><symbol id="crown" width="100%" height="100%"  viewBox="0 0 29 29" fill="none">  <g stroke="var(--ds-icon-color, black)" stroke-linejoin="round" stroke-width="var(--ds-icon-stroke, 1)">    <path d="M5.48 24.5H23.51M5.48 26.5H23.51M5.48 22.5H23.51M14.5 0.5V2M14.5 5V6M17.5 3.5H16M13 3.5H11.5M14.5 9.68C15.5 9 16.5 7.5 19.5 7.51C21.74 7.52 23.18 8.31 23.45 10.28M14.5 9.68C13.5 9 12.5 7.53 9.5 7.51C7.25 7.5 5.82 8.3 5.54 10.28M14.5 9.68V20M23.45 10.28C23.48 10.5 23.5 10.74 23.5 11C23.5 14.2 21.94 16.39 19.23 20M23.45 10.28C25.67 10.28 26.7 11.5 26.7 13.5C26.7 15.16 25.19 17.75 23.51 20M5.54 10.28C5.51 10.5 5.5 10.74 5.5 11C5.5 14.2 7.07 16.39 9.77 20M5.54 10.28C3.24 10.28 2.3 11.49 2.3 13.49C2.3 15.16 3.8 17.75 5.48 20M16 7.75C16 8.58 15.33 9.25 14.5 9.25C13.67 9.25 13 8.58 13 7.75C13 6.92 13.67 6.25 14.5 6.25C15.33 6.25 16 6.92 16 7.75Z"/>  </g></symbol><symbol id="danish" width="100%" height="100%"  viewBox="0 0 29 29" fill="none">  <g stroke="var(--ds-icon-color, black)" stroke-linejoin="round" stroke-linecap="round" stroke-width="var(--ds-icon-stroke, 1)">    <path d="M15 26.54C22.18 26.54 28 20.93 28 14.02C28 7.1 22.18 1.5 15 1.5C7.82 1.5 2 7.1 2 14.02C2 16.2 2.58 18.25 3.59 20.03L1 27.5L8.77 25.01C10.62 25.98 12.74 26.54 15 26.54Z"/>    <path d="M16 18.5V14.5M16 10.5V14.5M16 14.5H17M20 10.5L17 14.5M20 18.5L17 14.5"/>    <path d="m 9.63,10.5 c -0.12,0.03 -0.13,0.04 -0.13,0.16 0,2.56 0,5.12 0,7.67 0,0.15 0.01,0.16 0.16,0.16 0.58,0.01 1.15,0.01 1.73,0 0.31,0 0.62,-0.04 0.91,-0.16 0.3,-0.13 0.53,-0.34 0.69,-0.61 0.19,-0.32 0.29,-0.68 0.35,-1.04 0.03,-0.19 0.06,-0.38 0.09,-0.58 0.01,-0.13 0.02,-0.26 0.03,-0.39 0.04,-0.57 0.02,-1.14 0.02,-1.72 0,-0.19 0,-0.38 -0.02,-0.57 -0.03,-0.38 -0.06,-0.76 -0.13,-1.13 -0.08,-0.39 -0.19,-0.77 -0.41,-1.11 -0.23,-0.33 -0.54,-0.52 -0.93,-0.61 -0.24,-0.05 -0.48,-0.07 -0.72,-0.07 -0.55,0 -1.09,0 -1.63,0"/>  </g></symbol><symbol id="data" width="100%" height="100%"  viewBox="0 0 29 29" fill="none">  <g stroke="var(--ds-icon-color, black)" stroke-linejoin="round" stroke-linecap="round" stroke-width="var(--ds-icon-stroke, 1)">    <path d="M2.5 10.5V3.5C2.5 2.95 2.95 2.5 3.5 2.5H25.5C26.05 2.5 26.5 2.95 26.5 3.5V10.5M2.5 10.5H26.5M2.5 10.5L2.5 18.5M26.5 10.5L26.5 18.5M2.5 18.5H26.5M2.5 18.5V25.5C2.5 26.05 2.95 26.5 3.5 26.5H25.5C26.05 26.5 26.5 26.05 26.5 25.5V18.5M8 6.5C8 6.78 7.78 7 7.5 7C7.22 7 7 6.78 7 6.5C7 6.22 7.22 6 7.5 6C7.78 6 8 6.22 8 6.5ZM8 14.5C8 14.78 7.78 15 7.5 15C7.22 15 7 14.78 7 14.5C7 14.22 7.22 14 7.5 14C7.78 14 8 14.22 8 14.5ZM8 22.5C8 22.78 7.78 23 7.5 23C7.22 23 7 22.78 7 22.5C7 22.22 7.22 22 7.5 22C7.78 22 8 22.22 8 22.5Z"/>  </g></symbol><symbol id="denmark" width="100%" height="100%"  viewBox="0 0 29 29" fill="none">  <g stroke="var(--ds-icon-color, black)" stroke-linejoin="round" stroke-linecap="round" stroke-width="var(--ds-icon-stroke, 1)" stroke-miterlimit="10">    <path d="M22.31 28C21.57 27.3 20.55 27.72 19.74 27.5C19.28 26.92 18.64 26.84 18.01 26.71C17.63 26.63 17.22 26.57 17.74 26.09C17.84 25.7 17.39 25.37 17.93 25.09C19.44 23.97 19.52 26.96 21.13 25.17C21.81 24.83 23 25.14 23.46 25.74C23.52 25.87 23.38 26.18 23.23 26.29C22.5 26.65 22.76 27.68 22.31 28Z"/>    <path d="M12.3 16.91C13.72 17.7 12.57 18.64 11.35 18.38C12.04 19.35 11.24 19.64 10.64 20.01C11.74 21.35 9.91 22.9 10.5 24.17C12.23 24.97 10.75 25.64 9.67 25.98C8.5 26.58 7.73 25.09 6.49 25.2C3.4 24.62 8.08 22.16 4.23 19.55C3.83 19.95 3.46 19.76 3.11 19.35C2.65 18.76 3.74 16.9 4.21 16.38C5.5 15.51 2.47 14.64 3.34 12.63C3.78 8.34 5.34 4.79 10.27 5.57C13.19 4.67 10.03 2 15.76 1C14.98 1.96 15.35 2.95 15.62 3.9C16.05 6.68 12.91 8.02 14.86 11.14C15.39 11.99 17.97 10.95 17.54 12.5C17.03 13.71 15.83 16.29 14.99 13.83C13.88 13.94 14.28 15.5 14.28 16.27C14.32 17.7 12.57 16.26 12.27 16.91H12.3Z"/>    <path d="M19.18 22.68C18.85 22.21 18.06 21.86 18.4 21.19C18.53 20.12 17.44 19.14 17.42 18.08C19.19 18.34 19.46 16.2 20.93 16.11C22.02 16.63 20.12 18.1 22.41 18.61C23.83 18.82 22.24 16.45 22.49 15.71C23.09 14.24 25.81 14.86 25.52 16.53C25.56 17.09 25.94 17.65 26.04 18.21C26.64 20.46 24.42 18.46 23.87 20.7C24.79 21 25.93 21.71 24.63 22.39C22.96 22.51 24.1 24.74 22.75 24.77C21.11 24.41 21.33 22.17 19.2 22.7L19.18 22.68Z"/>    <path d="M15.63 25.12C15.23 24.15 14.27 24.22 13.63 23.76C13.16 23 12.65 22.85 12.5 22C12.26 20.72 12.5 20 13.18 19.71C14.21 19.14 15 19.5 15 19.5C15.2 19.5 15.5 19.5 15.87 19.71C17.42 20.76 16.92 23.9 15.63 25.12Z"/>  </g></symbol><symbol id="direction-east" width="100%" height="100%"  viewBox="0 0 29 29" fill="none">  <g transform="rotate(90 15 15)" stroke="var(--ds-icon-color, black)" stroke-linejoin="round" stroke-linecap="round" stroke-width="var(--ds-icon-stroke, 1)">    <path d="m 14.5,18.5 v 5 l -10,4.5 10,-27 10,27 -10,-4.5"/>  </g></symbol><symbol id="direction-north" width="100%" height="100%"  viewBox="0 0 29 29" fill="none">  <g stroke="var(--ds-icon-color, black)" stroke-linejoin="round" stroke-linecap="round" stroke-width="var(--ds-icon-stroke, 1)">    <path d="m 14.5,18.5 v 5 l -10,4.5 10,-27 10,27 -10,-4.5"/>  </g></symbol><symbol id="direction-south" width="100%" height="100%"  viewBox="0 0 29 29" fill="none">  <g transform="rotate(180 15 15)" stroke="var(--ds-icon-color, black)" stroke-linejoin="round" stroke-linecap="round" stroke-width="var(--ds-icon-stroke, 1)">    <path d="m 14.5,18.5 v 5 l -10,4.5 10,-27 10,27 -10,-4.5"/>  </g></symbol><symbol id="direction-west" width="100%" height="100%"  viewBox="0 0 29 29" fill="none">  <g transform="rotate(270 15 15)" stroke="var(--ds-icon-color, black)" stroke-linejoin="round" stroke-linecap="round" stroke-width="var(--ds-icon-stroke, 1)">    <path d="m 14.5,18.5 v 5 l -10,4.5 10,-27 10,27 -10,-4.5"/>  </g></symbol><symbol id="document" width="100%" height="100%"  viewBox="0 0 29 29" fill="none">  <g stroke="var(--ds-icon-color, black)" stroke-linejoin="round" stroke-linecap="round" stroke-width="var(--ds-icon-stroke, 1)">    <path d="M18.5 2.5H6.5C5.4 2.5 4.5 3.4 4.5 4.5V24.5C4.5 25.6 5.4 26.5 6.5 26.5H22.5C23.6 26.5 24.5 25.6 24.5 24.5V8.5M18.5 2.5L24.5 8.5M18.5 2.5V8.5H24.5M20 14.5H9M13.5 10.5H9M20 18.5H9"/>  </g></symbol><symbol id="doublecrosshair" width="100%" height="100%"  viewBox="0 0 29 29" fill="none">  <path d="M2.5 14.5H26.5M14.5 2.5V26.5" stroke="var(--ds-icon-color, black)" stroke-width="3" stroke-linecap="round" stroke-linejoin="round"/>  <path d="M2.5 14.5H26.5M14.5 2.5V26.5" stroke="var(--background-color, white)" stroke-linecap="round" stroke-width="var(--ds-icon-stroke, 1)" stroke-linejoin="round"/></symbol><symbol id="download" width="100%" height="100%"  viewBox="0 0 29 29" fill="none">  <g stroke="var(--ds-icon-color, black)" stroke-linejoin="round" stroke-linecap="round" stroke-width="var(--ds-icon-stroke, 1)">    <path d="M27 8L15.21 19.79C14.82 20.18 14.18 20.18 13.79 19.79L2 8M14.5 20L14.5 1M1.5 26.5H27.5"/>  </g></symbol><symbol id="drag" width="100%" height="100%"  viewBox="0 0 29 29" fill="none">  <g stroke="var(--ds-icon-color, black)" stroke-linejoin="round" stroke-linecap="round" stroke-width="var(--ds-icon-stroke, 1)">    <path d="M0.5 10.5H28.5M0.5 18.5H28.5"/>  </g></symbol><symbol id="drift" width="100%" height="100%"  viewBox="0 0 29 29" fill="none">  <g stroke="var(--ds-icon-color, black)" stroke-linejoin="round" stroke-linecap="round" stroke-width="var(--ds-icon-stroke, 1)">    <path d="M28.5 14.5H22.6L18.55 24.63L10.45 4.38L6.4 14.5H0.5"/>  </g></symbol><symbol id="edit" width="100%" height="100%"  viewBox="0 0 29 29" fill="none">  <g stroke="var(--ds-icon-color, black)" stroke-linejoin="round" stroke-linecap="round" stroke-width="var(--ds-icon-stroke, 1)">    <path d="M13 24.5H24.33M25 7L9.5 22.5L3.5 24.5L5.5 18.5L21 3C22.1 1.9 23.9 1.9 25 3C26.1 4.1 26.1 5.9 25 7Z"/>  </g></symbol><symbol id="english" width="100%" height="100%"  viewBox="0 0 29 29" fill="none">  <g stroke="var(--ds-icon-color, black)" stroke-linejoin="round" stroke-linecap="round" stroke-width="var(--ds-icon-stroke, 1)">    <path d="M 9.5,10.5 H 6.73 c 0,0 -0.27,0.12 -0.45,0.3 C 6.11,10.97 6,11.36 6,11.36 v 6.23 c 0,0 0.08,0.44 0.29,0.64 C 6.5,18.44 6.9,18.5 6.9,18.5 H 9.5"/>    <path d="M 8.9,14.53 H 6.15"/>    <path d="m 12,18.56 v -8.02 l 5,7.9 v -7.99"/>    <path d="m 24.25,11.48 c 0,0 -0.03,-0.45 -0.27,-0.7 -0.24,-0.25 -0.68,-0.29 -0.68,-0.29 L 20.93,10.5 c 0,0 -0.45,0.09 -0.66,0.32 C 20.05,11.04 20,11.51 20,11.51 v 6.23 c 0,0 0.12,0.32 0.31,0.51 C 20.5,18.44 20.91,18.5 20.91,18.5 l 2.59,0.03 c 0,0 0.31,-0.14 0.51,-0.32 C 24.22,18.03 24.25,17.73 24.25,17.73 V 14.49 L 23,14.5"/>    <path d="M15 26.54C22.18 26.54 28 20.93 28 14.02C28 7.1 22.18 1.5 15 1.5C7.82 1.5 2 7.1 2 14.02C2 16.2 2.58 18.25 3.59 20.03L1 27.5L8.77 25.01C10.62 25.98 12.74 26.54 15 26.54Z"/>  </g></symbol><symbol id="exitsite" width="100%" height="100%"  viewBox="0 0 29 29" fill="none">  <g stroke="var(--ds-icon-color, black)" stroke-linejoin="round" stroke-linecap="round" stroke-width="var(--ds-icon-stroke, 1)">    <path d="M24.5 19.5V23.87C24.5 24.57 24.22 25.24 23.73 25.73C23.24 26.22 22.57 26.5 21.87 26.5H5.13C4.43 26.5 3.76 26.22 3.27 25.73C2.78 25.24 2.5 24.57 2.5 23.87V7.13C2.5 6.43 2.78 5.76 3.27 5.27C3.76 4.78 4.43 4.5 5.13 4.5H8.31H9.5M17.5 2.5H26.5M26.5 2.5V11.5M26.5 2.5L14 15"/>  </g></symbol><symbol id="eye" width="100%" height="100%"  viewBox="0 0 30 29" fill="none">  <g stroke="var(--ds-icon-color, black)" stroke-linejoin="round" stroke-linecap="round" stroke-width="var(--ds-icon-stroke, 1)">    <path d="M0.5 14.5C0.5 14.5 4.95 4.49 14.5 4.49C24.05 4.49 28.53 14.5 28.53 14.5C28.53 14.5 24.05 24.51 14.5 24.51C4.95 24.51 0.5 14.5 0.5 14.5Z"/>    <path d="M14.49 20.08C17.57 20.08 20.06 17.6 20.06 14.53C20.06 11.47 17.57 8.99 14.49 8.99C11.42 8.99 8.92 11.47 8.92 14.53C8.92 17.6 11.42 20.08 14.49 20.08Z"/>  </g></symbol><symbol id="faq" width="100%" height="100%"  viewBox="0 0 29 29" fill="none">  <g stroke="var(--ds-icon-color, black)" stroke-linejoin="round" stroke-linecap="round" stroke-width="var(--ds-icon-stroke, 1)">    <path d="M11.48 18.47C15.95 18.22 19.49 14.52 19.49 9.99C19.49 9.48 19.44 8.98 19.35 8.49M11.48 18.47C11.32 18.48 11.16 18.49 10.99 18.49C9.75 18.49 8.57 18.22 7.5 17.74L1.5 20.5L3.66 14.27C2.92 13.02 2.5 11.55 2.5 9.99C2.5 5.3 6.3 1.5 10.99 1.5C15.17 1.5 18.65 4.52 19.35 8.49M11.48 18.47V20.83C11.48 21.75 12.23 22.5 13.15 22.5H23.5L27.48 26.5V10.16C27.48 9.24 26.74 8.49 25.81 8.49H19.35"/>  </g></symbol><symbol id="frame-dual" width="100%" height="100%"  viewBox="0 0 29 29" fill="none">  <g stroke="var(--ds-icon-color, black)" stroke-linejoin="round" stroke-linecap="round" stroke-width="var(--ds-icon-stroke, 1)">    <path d="M14.5 5V21.5M4 22.5H25C25.83 22.5 26.5 21.83 26.5 21V6C26.5 5.17 25.83 4.5 25 4.5H4C3.17 4.5 2.5 5.17 2.5 6V21C2.5 21.83 3.17 22.5 4 22.5Z"/>  </g></symbol><symbol id="frame-multi" width="100%" height="100%"  viewBox="0 0 29 29" fill="none">  <g stroke="var(--ds-icon-color, black)" stroke-linejoin="round" stroke-linecap="round" stroke-width="var(--ds-icon-stroke, 1)">    <path d="M14.5 5V21.5M20.5 5V21.5M26.5 10.5H14.5M26.5 16.5H14.5M4 22.5H25C25.83 22.5 26.5 21.83 26.5 21V6C26.5 5.17 25.83 4.5 25 4.5H4C3.17 4.5 2.5 5.17 2.5 6V21C2.5 21.83 3.17 22.5 4 22.5Z"/>  </g></symbol><symbol id="frame-single" width="100%" height="100%"  viewBox="0 0 29 29" fill="none">  <g stroke="var(--ds-icon-color, black)" stroke-linejoin="round" stroke-linecap="round" stroke-width="var(--ds-icon-stroke, 1)">    <path d="M2.5 6C2.5 5.17 3.17 4.5 4 4.5H25C25.83 4.5 26.5 5.17 26.5 6V21C26.5 21.83 25.83 22.5 25 22.5H14.5H4C3.17 22.5 2.5 21.83 2.5 21V6Z"/>  </g></symbol><symbol id="fullscreen" width="100%" height="100%"  viewBox="0 0 29 29" fill="none">  <g stroke="var(--ds-icon-color, black)" stroke-linejoin="round" stroke-linecap="round" stroke-width="var(--ds-icon-stroke, 1)">    <path d="M20.5 3.5H25.5M25.5 3.5V8.5M25.5 3.5L14.5 14.5M8.5 25.5H3.5M3.5 25.5V20.5M3.5 25.5L14.5 14.5M14.5 14.5L25.5 25.5M14.5 14.5L3.5 3.5M25.5 20.5V25.5M25.5 25.5H20.5M3.5 8.5L3.5 3.5M3.5 3.5L8.5 3.5"/>  </g></symbol><symbol id="greenland" width="100%" height="100%"  viewBox="0 0 29 29" fill="none">  <g stroke="var(--ds-icon-color, black)" stroke-linejoin="round" stroke-linecap="round" stroke-width="var(--ds-icon-stroke, 1)" stroke-miterlimit="10">    <path d="M23.44 6.17C23.42 6.8 22.85 7.31 22.34 7.62C22.08 7.75 22.03 7.98 22.06 8.25C22.08 8.99 21.25 9.51 21.1 10.44C21.03 10.77 20.85 11.07 20.83 11.41C20.82 11.96 21.16 12.43 21.31 12.94C21.36 13.09 21.41 13.26 21.34 13.41C21.26 13.58 21.02 13.68 20.9 13.83C20.61 14.17 21.2 14.62 21.13 15.38C21.18 16.29 21.2 17.25 20.28 17.68C20.19 17.73 20.16 17.77 20.17 17.86C20.28 18.34 20.32 18.38 20.23 18.9C20.21 19.26 20.45 19.66 20.46 20.04C20.47 20.23 20.4 20.38 20.28 20.42C20.26 20.64 20.15 20.84 19.99 20.99C19.92 21.68 18.49 22.21 17.95 22.45C17.16 22.73 16.79 23.55 16.15 24.03C15.82 24.26 15.41 24.41 15.14 24.71C14.85 25.01 14.76 25.46 14.62 25.84C14.45 26.26 14.25 26.66 14.15 27.09C14.03 27.68 13.89 28.17 13.19 27.85C12.5 27.57 11.98 26.99 11.7 26.31C11.54 25.98 11.53 25.59 11.41 25.25C11.34 25.06 11.22 24.89 11.13 24.72C10.67 23.91 10.64 22.85 11.19 22.07C11.86 20.97 10.97 20.87 11 20.3C11.03 20.15 11.16 20 11.11 19.84C10.99 19.51 10.46 19.49 10.4 19.12C10.36 18.83 10.41 18.53 10.35 18.24C10.22 17.73 9.99 17.25 9.86 16.74C9.49 15.32 8.72 14.17 7.14 14.52C7 14.53 6.86 14.54 6.74 14.52C6.45 14.48 6.21 14.33 6.01 14.11C5.82 13.88 5.55 13.54 5.67 13.22C5.72 13.06 5.9 12.93 5.88 12.75C5.78 12.51 5.47 12.39 5.3 12.2C4.15 11.04 6.64 10.57 7.12 9.73C7.51 8.8 5.9 8.74 7.25 7.21C7.78 6.53 8.36 7 8.34 6.33C8.34 6.14 8.33 5.95 8.37 5.76C8.45 5.36 8.74 5.06 9.08 4.81C9.38 4.61 9.72 4.35 10.1 4.39C10.54 4.59 11.24 5.8 11.4 4.62C11.56 3.74 11.72 4.62 12.74 3.84C12.94 3.69 13.01 3.41 12.88 3.19C12.51 2.52 13.65 2.14 14.59 2.35C14.67 2.37 14.71 2.29 14.71 2.05C14.69 1.69 15.03 1.47 15.31 1.31C16.26 0.79 17.64 0.96 18.59 1.55C18.94 1.8 19.13 2.18 19.4 2.49C19.62 2.75 19.9 3.06 20.04 3.41C20.18 3.75 20.2 3.88 20.16 4C19.92 4.71 20.51 5.44 21.26 5.41C21.74 5.39 22.26 5.3 22.72 5.46C23.08 5.52 23.41 5.78 23.44 6.17Z"/>  </g></symbol><symbol id="headphones" width="100%" height="100%"  viewBox="0 0 29 29" fill="none">  <g stroke="var(--ds-icon-color, black)" stroke-linejoin="round" stroke-linecap="round" stroke-width="var(--ds-icon-stroke, 1)">    <path d="M2.47 21.55V13.9C2.47 10.86 3.74 7.94 5.99 5.79C8.25 3.64 11.31 2.43 14.5 2.43C17.69 2.43 20.75 3.64 23.01 5.79C25.26 7.94 26.53 10.86 26.53 13.9V21.55M26.53 21.27C26.53 21.85 26.28 22.41 25.83 22.82C25.38 23.23 24.76 23.46 24.13 23.46H22.92C22.28 23.46 21.67 23.23 21.22 22.82C20.77 22.41 20.52 21.85 20.52 21.27V18C20.52 17.42 20.77 16.86 21.22 16.45C21.67 16.04 22.28 15.81 22.92 15.81H26.53V21.27ZM2.47 21.27C2.47 21.85 2.72 22.41 3.17 22.82C3.62 23.23 4.24 23.46 4.88 23.46H6.08C6.72 23.46 7.33 23.23 7.78 22.82C8.23 22.41 8.48 21.85 8.48 21.27V18C8.48 17.42 8.23 16.86 7.78 16.45C7.33 16.04 6.72 15.81 6.08 15.81H2.47V21.27Z"/>  </g></symbol><symbol id="help" width="100%" height="100%"  viewBox="0 0 29 29" fill="none">  <g stroke="var(--ds-icon-color, black)" stroke-linejoin="round" stroke-linecap="round" stroke-width="var(--ds-icon-stroke, 1)">    <path d="M19.38 19.38C19.93 18.83 20.37 18.21 20.7 17.56L25.64 20.98C25.11 21.93 24.44 22.82 23.63 23.63C22.82 24.43 21.93 25.1 20.98 25.64L17.56 20.7C18.21 20.37 18.83 19.93 19.38 19.38ZM19.38 19.38C22.08 16.68 22.08 12.31 19.38 9.61C16.68 6.91 12.31 6.91 9.61 9.61C6.91 12.31 6.91 16.68 9.61 19.38C12.31 22.08 16.68 22.08 19.38 19.38ZM17.56 8.29C18.21 8.63 18.83 9.07 19.38 9.62C19.93 10.16 20.37 10.78 20.7 11.44L25.64 8.01C25.11 7.07 24.44 6.17 23.63 5.37C22.82 4.56 21.93 3.89 20.98 3.36L17.56 8.29ZM8.28 11.45C8.61 10.79 9.05 10.18 9.6 9.63C10.15 9.08 10.77 8.64 11.42 8.31L8.01 3.36C7.07 3.89 6.17 4.56 5.37 5.37C4.56 6.17 3.89 7.07 3.36 8.01L8.28 11.45ZM11.44 20.7C10.79 20.37 10.17 19.93 9.62 19.38C9.07 18.83 8.63 18.21 8.3 17.56L3.36 20.98C3.89 21.93 4.56 22.82 5.37 23.63C6.17 24.44 7.07 25.1 8.01 25.64L11.44 20.7ZM23.69 5.31C18.62 0.23 10.38 0.23 5.31 5.31C0.23 10.38 0.23 18.61 5.31 23.69C10.38 28.76 18.62 28.76 23.69 23.69C28.77 18.61 28.77 10.38 23.69 5.31Z"/>  </g></symbol><symbol id="inbox" width="100%" height="100%"  viewBox="0 0 29 29" fill="none">  <g stroke="var(--ds-icon-color, black)" stroke-linejoin="round" stroke-linecap="round" stroke-width="var(--ds-icon-stroke, 1)">    <path d="M 27.5,14.5 H 21 L 17.5,18 h -6 L 8,14.5 H 1.5 m 0,7.5 c 0,0 -0.00,0.89 0.70,1.69 C 2.91,24.49 4,24.5 4,24.5 h 20.5 c 0,0 1.33,0.13 2.20,-0.72 C 27.58,22.91 27.5,22 27.5,22 V 14.5 L 23,5 C 23,5 22.60,4.34 22.06,3.96 21.51,3.58 20.5,3.5 20.5,3.5 H 9 C 9,3.5 7.89,3.42 7.17,3.83 6.45,4.23 6,5 6,5 l -4.5,9.5 z"/>  </g></symbol><symbol id="info" width="100%" height="100%"  viewBox="0 0 29 29" fill="none">  <g stroke="var(--ds-icon-color, black)" stroke-linejoin="round" stroke-linecap="round" stroke-width="var(--ds-icon-stroke, 1)">    <path d="M18.5 25.5H10.5L10.5 22.5C11.19 22.4 11.68 22.21 11.92 21.98C12.32 21.64 12.51 21.02 12.51 20.16L12.51 13.7C12.51 12.93 12.37 12.41 12.12 12.12C11.87 11.83 11.33 11.64 10.55 11.5V8.5H16.5L16.5 20.35C16.5 21.16 16.65 21.74 16.89 21.93C17.14 22.17 17.81 22.36 18.5 22.5L18.5 25.5Z"/>    <path d="M17 3C17 4.38 15.88 5.5 14.5 5.5C13.12 5.5 12 4.38 12 3C12 1.62 13.12 0.5 14.5 0.5C15.88 0.5 17 1.62 17 3Z"/>  </g></symbol><symbol id="license-by" width="100%" height="100%"  viewBox="0 0 64 64" fill="none">  <g transform="translate(-5.5 3.5)">    <circle stroke="var(--ds-icon-color, black)" fill="none" cx="37.7" cy="28.5" r="29"/>    <g>      <path fill="var(--ds-icon-color, black)" d="M37.443-3.5c8.988,0,16.57,3.085,22.742,9.257C66.393,11.967,69.5,19.548,69.5,28.5c0,8.991-3.049,16.476-9.145,22.456        C53.879,57.319,46.242,60.5,37.443,60.5c-8.649,0-16.153-3.144-22.514-9.43C8.644,44.784,5.5,37.262,5.5,28.5        c0-8.761,3.144-16.342,9.429-22.742C21.101-0.415,28.604-3.5,37.443-3.5z M37.557,2.272c-7.276,0-13.428,2.553-18.457,7.657        c-5.22,5.334-7.829,11.525-7.829,18.572c0,7.086,2.59,13.22,7.77,18.398c5.181,5.182,11.352,7.771,18.514,7.771        c7.123,0,13.334-2.607,18.629-7.828c5.029-4.838,7.543-10.952,7.543-18.343c0-7.276-2.553-13.465-7.656-18.571        C50.967,4.824,44.795,2.272,37.557,2.272z M46.129,20.557v13.085h-3.656v15.542h-9.944V33.643h-3.656V20.557        c0-0.572,0.2-1.057,0.599-1.457c0.401-0.399,0.887-0.6,1.457-0.6h13.144c0.533,0,1.01,0.2,1.428,0.6        C45.918,19.5,46.129,19.986,46.129,20.557z M33.042,12.329c0-3.008,1.485-4.514,4.458-4.514s4.457,1.504,4.457,4.514        c0,2.971-1.486,4.457-4.457,4.457S33.042,15.3,33.042,12.329z"/>    </g>  </g></symbol><symbol id="license-cc" width="100%" height="100%"  viewBox="0 0 64 64" fill="none">  <g transform="translate(-5.5 3.5)">    <circle stroke="var(--ds-icon-color, black)" fill="none" cx="37.785" cy="28.501" r="28.836"/>    <path fill="var(--ds-icon-color, black)" d="M37.441-3.5c8.951,0,16.572,3.125,22.857,9.372c3.008,3.009,5.295,6.448,6.857,10.314      c1.561,3.867,2.344,7.971,2.344,12.314c0,4.381-0.773,8.486-2.314,12.313c-1.543,3.828-3.82,7.21-6.828,10.143      c-3.123,3.085-6.666,5.448-10.629,7.086c-3.961,1.638-8.057,2.457-12.285,2.457s-8.276-0.808-12.143-2.429      c-3.866-1.618-7.333-3.961-10.4-7.027c-3.067-3.066-5.4-6.524-7-10.372S5.5,32.767,5.5,28.5c0-4.229,0.809-8.295,2.428-12.2      c1.619-3.905,3.972-7.4,7.057-10.486C21.08-0.394,28.565-3.5,37.441-3.5z M37.557,2.272c-7.314,0-13.467,2.553-18.458,7.657      c-2.515,2.553-4.448,5.419-5.8,8.6c-1.354,3.181-2.029,6.505-2.029,9.972c0,3.429,0.675,6.734,2.029,9.913      c1.353,3.183,3.285,6.021,5.8,8.516c2.514,2.496,5.351,4.399,8.515,5.715c3.161,1.314,6.476,1.971,9.943,1.971      c3.428,0,6.75-0.665,9.973-1.999c3.219-1.335,6.121-3.257,8.713-5.771c4.99-4.876,7.484-10.99,7.484-18.344      c0-3.543-0.648-6.895-1.943-10.057c-1.293-3.162-3.18-5.98-5.654-8.458C50.984,4.844,44.795,2.272,37.557,2.272z M37.156,23.187      l-4.287,2.229c-0.458-0.951-1.019-1.619-1.685-2c-0.667-0.38-1.286-0.571-1.858-0.571c-2.856,0-4.286,1.885-4.286,5.657      c0,1.714,0.362,3.084,1.085,4.113c0.724,1.029,1.791,1.544,3.201,1.544c1.867,0,3.181-0.915,3.944-2.743l3.942,2      c-0.838,1.563-2,2.791-3.486,3.686c-1.484,0.896-3.123,1.343-4.914,1.343c-2.857,0-5.163-0.875-6.915-2.629      c-1.752-1.752-2.628-4.19-2.628-7.313c0-3.048,0.886-5.466,2.657-7.257c1.771-1.79,4.009-2.686,6.715-2.686      C32.604,18.558,35.441,20.101,37.156,23.187z M55.613,23.187l-4.229,2.229c-0.457-0.951-1.02-1.619-1.686-2      c-0.668-0.38-1.307-0.571-1.914-0.571c-2.857,0-4.287,1.885-4.287,5.657c0,1.714,0.363,3.084,1.086,4.113      c0.723,1.029,1.789,1.544,3.201,1.544c1.865,0,3.18-0.915,3.941-2.743l4,2c-0.875,1.563-2.057,2.791-3.541,3.686      c-1.486,0.896-3.105,1.343-4.857,1.343c-2.896,0-5.209-0.875-6.941-2.629c-1.736-1.752-2.602-4.19-2.602-7.313      c0-3.048,0.885-5.466,2.658-7.257c1.77-1.79,4.008-2.686,6.713-2.686C51.117,18.558,53.938,20.101,55.613,23.187z"/>  </g></symbol><symbol id="lightbulb" width="100%" height="100%"  viewBox="0 0 29 29" fill="none">  <g stroke="var(--ds-icon-color, black)" stroke-linejoin="round" stroke-linecap="round" stroke-width="var(--ds-icon-stroke, 1)">    <path d="M11 25.5H18M12.5 27.5H16.5M14.5 0.5V3.5M25.64 19.92L24.35 18.94M28 15.25H25.7M27.82 10.4L25.3 11.32M25.43 5.32L23.14 7.4M20.79 1.46L19.38 4.56M8.23 1.46L9.64 4.55M3.58 5.3L5.87 7.38M1.18 10.4L3.71 11.31M1 15.25H3.3M3.27 20L4.67 18.95M18 21.5C18 20 22.56 18.09 22.56 13.61C22.56 9.12 18.98 6.48 14.55 6.48C10.12 6.48 6.54 9.12 6.54 13.61C6.54 18.09 11 20 11 21.5C11 23 11 23.53 11 23.53H18C18 23.53 18 23 18 21.5Z"/>  </g></symbol><symbol id="list" width="100%" height="100%"  viewBox="0 0 29 29" fill="none">  <g stroke="var(--ds-icon-color, black)" stroke-linejoin="round" stroke-linecap="round" stroke-width="var(--ds-icon-stroke, 1)">    <path d="M27 22.5H12.5M27 14.5H12.5M27 6.5H12.5M8.5 22.5H2M8.5 14.5H2M8.5 6.5H2"/>  </g></symbol><symbol id="lock" width="100%" height="100%"  viewBox="0 0 29 29" fill="none">  <g stroke="var(--ds-icon-color, black)" stroke-linejoin="round" stroke-linecap="round" stroke-width="var(--ds-icon-stroke, 1)">    <path d="M7.79 10.5V7.15C7.79 5.52 8.5 3.96 9.76 2.8C11.01 1.65 12.72 1 14.5 1C16.28 1 17.99 1.65 19.24 2.8C20.5 3.96 21.21 5.52 21.21 7.15V10.5M5.06 10.5H23.94C25.36 10.5 26.5 11.7 26.5 13.19V23.81C26.5 25.3 25.36 26.5 23.94 26.5H5.06C3.64 26.5 2.5 25.3 2.5 23.81V13.19C2.5 11.7 3.64 10.5 5.06 10.5ZM17 17C17 17.82 16.61 18.54 16 19V21.5C16 22.05 15.55 22.5 15 22.5H14C13.45 22.5 13 22.05 13 21.5V19C12.39 18.54 12 17.82 12 17C12 15.62 13.12 14.5 14.5 14.5C15.88 14.5 17 15.62 17 17Z"/>  </g></symbol><symbol id="mail" width="100%" height="100%"  viewBox="0 0 29 29" fill="none">  <g stroke="var(--ds-icon-color, black)" stroke-linejoin="round" stroke-linecap="round" stroke-width="var(--ds-icon-stroke, 1)">    <path d="M27.5 9L15.67 15.4C14.94 15.88 14.04 15.88 13.3 15.4L1.5 9M3.89 24.5H25.11C26.43 24.5 27.5 23.3 27.5 21.81V7.19C27.5 5.7 26.43 4.5 25.11 4.5L3.89 4.5C2.57 4.5 1.5 5.7 1.5 7.19V21.81C1.5 23.3 2.57 24.5 3.89 24.5Z"/>  </g></symbol><symbol id="manual" width="100%" height="100%"  viewBox="0 0 29 29" fill="none">  <g stroke="var(--ds-icon-color, black)" stroke-linejoin="round" stroke-linecap="round" stroke-width="var(--ds-icon-stroke, 1)">    <path d="M18.5 2.5H6.94C6.29 2.5 5.67 2.76 5.21 3.21C4.76 3.67 4.5 4.28 4.5 4.93V24.07C4.5 24.72 4.76 25.33 5.21 25.79C5.67 26.24 6.29 26.5 6.94 26.5H15.5M18.5 2.5L24.5 8.5M18.5 2.5V8.5H24.5M24.5 17.5V8.5M8.08 13.18C7.04 15.08 7.32 17.51 8.93 19.12L9.96 20.16C11.45 21.65 13.65 22 15.47 21.22L21.32 27.07C22.36 28.1 24.04 28.1 25.07 27.07C26.1 26.04 26.1 24.36 25.07 23.32L19.18 17.43C19.88 15.63 19.51 13.51 18.06 12.06L17.03 11.02C15.45 9.45 13.09 9.15 11.21 10.11L15.33 14.24C15.73 14.63 15.73 15.26 15.33 15.65L13.65 17.33C13.26 17.72 12.63 17.72 12.24 17.33L8.08 13.18Z"/>  </g></symbol><symbol id="map" width="100%" height="100%"  viewBox="0 0 29 29" fill="none">  <g stroke="var(--ds-icon-color, black)" stroke-linejoin="round" stroke-linecap="round" stroke-width="var(--ds-icon-stroke, 1)">    <path d="M18.5 6.5V26.5M18.5 6.5L10.5 2.5M18.5 6.5L26.5 2.5L26.5 22.5L18.5 26.5M18.5 26.5L10.5 22.5M10.5 2.5L10.5 22.5M10.5 2.5L2.5 6.5L2.5 26.5L10.5 22.5"/>  </g></symbol><symbol id="mastodon" width="100%" height="100%"  viewBox="0 0 23 25" fill="none">  <g fill="var(--ds-icon-color, black)">    <path d="M22.3 14.92C21.96 16.62 19.35 18.49 16.3 18.86C14.71 19.04 13.16 19.22 11.5 19.15C8.78 19.01 6.67 18.49 6.67 18.49V19.24C7.05 21.93 9.35 22.08 11.54 22.17C13.74 22.23 15.69 21.61 15.69 21.61L15.79 23.61C15.79 23.61 14.24 24.43 11.5 24.58C9.99 24.67 8.1 24.55 5.92 23.98C1.18 22.71 0.36 17.65 0.24 12.5L0.23 8.36C0.23 3.11 3.65 1.58 3.65 1.58C5.4 0.78 8.37 0.42 11.46 0.42H11.54C14.63 0.42 17.6 0.78 19.35 1.58C19.35 1.58 22.77 3.11 22.77 8.36C22.77 8.36 22.82 12.24 22.3 14.92ZM18.75 8.77C18.75 7.46 18.39 6.46 17.72 5.67C17.05 4.91 16.15 4.51 15.03 4.51C13.75 4.51 12.77 5.01 12.1 6L11.5 7.06L10.9 6C10.22 5.01 9.25 4.51 7.96 4.51C6.85 4.51 5.95 4.91 5.27 5.67C4.6 6.46 4.25 7.46 4.25 8.77V15.12H6.79V8.95C6.79 7.67 7.33 6.99 8.43 6.99C9.64 6.99 10.24 7.78 10.24 9.32V12.69H12.74V9.32C12.74 7.78 13.35 6.99 14.57 6.99C15.66 6.99 16.2 7.67 16.2 8.95V15.12H18.75V8.77Z"/>  </g></symbol><symbol id="message" width="100%" height="100%"  viewBox="0 0 29 29" fill="none">  <g stroke="var(--ds-icon-color, black)" stroke-linejoin="round" stroke-linecap="round" stroke-width="var(--ds-icon-stroke, 1)">    <path d="M27.5 14.01C27.51 15.96 27.05 17.87 26.18 19.61C25.14 21.69 23.54 23.43 21.56 24.66C19.59 25.88 17.31 26.53 14.99 26.53C13.04 26.53 11.13 26.08 9.39 25.2L1 28L3.8 19.61C2.92 17.87 2.47 15.96 2.47 14.01C2.47 11.69 3.12 9.41 4.34 7.44C5.57 5.46 7.31 3.86 9.39 2.83C11.13 1.95 13.04 1.49 14.99 1.5H15.72C18.79 1.67 21.69 2.96 23.86 5.14C26.04 7.31 27.33 10.21 27.5 13.28V14.01Z"/>  </g></symbol><symbol id="minus" width="100%" height="100%"  viewBox="0 0 29 29" fill="none">  <g stroke="var(--ds-icon-color, black)" stroke-linejoin="round" stroke-linecap="round" stroke-width="var(--ds-icon-stroke, 1)">    <path d="M0.5 14.5H28.5"/>  </g></symbol><symbol id="move" width="100%" height="100%"  viewBox="0 0 29 29" fill="none">  <g stroke="var(--ds-icon-color, black)" stroke-linejoin="round" stroke-linecap="round" stroke-width="var(--ds-icon-stroke, 1)">    <path d="M24.46 10.96L28 14.5M28 14.5L24.46 18.04M28 14.5L14.5 14.46M4.5 18L0.96 14.46M0.96 14.46L4.5 10.93M0.96 14.46L14.5 14.46M14.5 14.46L14.5 28M14.5 14.46V1M18.03 24.46L14.5 28M14.5 28L10.96 24.46M10.96 4.54L14.5 1M14.5 1L18.03 4.54"/>  </g></symbol><symbol id="news" width="100%" height="100%"  viewBox="0 0 29 29" fill="none">  <g stroke="var(--ds-icon-color, black)" stroke-linejoin="round" stroke-linecap="round" stroke-width="var(--ds-icon-stroke, 1)">    <circle cx="19.5" cy="4.5" r="1.5"/>    <circle cx="25.5" cy="2.5" r="1.5"/>    <circle cx="26.5" cy="10.5" r="1.5"/>    <path d="m 10.5,24.5 c 0,0 4.85,3.4 6,-2.5"/>    <path d="M 6,20.25 1,22.5 6.5,28 8.5,23.25 25,16 12,4 Z"/>  </g></symbol><symbol id="notification" width="100%" height="100%"  viewBox="0 0 29 29" fill="none">  <g stroke="var(--ds-icon-color, black)" stroke-linejoin="round" stroke-linecap="round" stroke-width="var(--ds-icon-stroke, 1)">    <path d="M17.5 25.63C17.2 26.2 16.76 26.67 16.23 27C15.71 27.33 15.11 27.5 14.5 27.5C13.89 27.5 13.29 27.33 12.77 27C12.24 26.67 11.8 26.2 11.5 25.63M22.51 9.62C22.51 7.44 21.66 5.34 20.16 3.79C18.66 2.24 16.62 1.37 14.5 1.37C12.38 1.37 10.34 2.24 8.84 3.79C7.34 5.34 6.49 7.44 6.49 9.62C6.49 19.25 2 22.5 2 22.5H27C27 22.5 22.51 19.25 22.51 9.62Z"/>  </g></symbol><symbol id="ok" width="100%" height="100%"  viewBox="0 0 29 29" fill="none">  <g stroke="var(--ds-icon-color, black)" stroke-linejoin="round" stroke-linecap="round" stroke-width="var(--ds-icon-stroke, 1)">    <path d="M27 2L11.21 25L2 15.53"/>  </g></symbol><symbol id="pending" width="100%" height="100%"  viewBox="0 0 29 29" fill="none">  <g stroke="var(--ds-icon-color, black)" stroke-linejoin="round" stroke-linecap="round" stroke-width="var(--ds-icon-stroke, 1)">    <circle cx="15" cy="15" r="1.5"/>    <path d="m 24,20.95 c 0,0 -3.3,5.5 -9.5,5.5 -6.2,0 -12.51,-4.26 -12.5,-12 0.01,-7.74 6.19,-12 12.5,-12 6.31,0 11.72,5.44 11.5,13.5"/>    <path d="M 10.5,10 14,14" stroke-linecap="none"/>    <path d="M 8.5,21 13.5,16.5" stroke-linecap="none"/>    <path d="m 24,13.5 2,3 2,-3"/>  </g></symbol><symbol id="phone" width="100%" height="100%"  viewBox="0 0 29 29" fill="none">  <g stroke="var(--ds-icon-color, black)" stroke-linejoin="round" stroke-linecap="round" stroke-width="var(--ds-icon-stroke, 1)">    <path d="M26.43 20.46V24.09C26.43 24.42 26.36 24.76 26.23 25.07C26.09 25.38 25.89 25.65 25.65 25.88C25.4 26.11 25.11 26.28 24.79 26.39C24.47 26.5 24.13 26.54 23.8 26.51C20.09 26.1 16.52 24.83 13.39 22.79C10.47 20.94 8 18.46 6.15 15.54C4.11 12.39 2.84 8.8 2.45 5.06C2.42 4.73 2.46 4.39 2.56 4.07C2.67 3.75 2.84 3.46 3.07 3.21C3.29 2.97 3.57 2.77 3.88 2.63C4.18 2.5 4.51 2.43 4.85 2.43H8.47C9.05 2.42 9.62 2.63 10.06 3.01C10.51 3.39 10.8 3.92 10.88 4.51C11.03 5.67 11.32 6.81 11.72 7.9C11.89 8.33 11.92 8.8 11.83 9.26C11.73 9.71 11.51 10.12 11.18 10.45L9.65 11.99C11.37 15.01 13.87 17.52 16.89 19.24L18.42 17.71C18.75 17.38 19.16 17.16 19.61 17.06C20.06 16.96 20.53 17 20.96 17.16C22.06 17.57 23.2 17.85 24.35 18.01C24.94 18.09 25.48 18.39 25.86 18.84C26.24 19.29 26.44 19.87 26.43 20.46Z"/>  </g></symbol><symbol id="plane" width="100%" height="100%"  viewBox="0 0 29 29" fill="none">  <g stroke="var(--ds-icon-color, black)" stroke-linejoin="round" stroke-linecap="round" stroke-width="var(--ds-icon-stroke, 1)">    <path d="M27.75 4.75L25.5 2.5C25.5 2.5 17.25 5.25 12.5 8L7.21 2.71C6.42 1.92 5.42 1.37 4.31 1.22C3.47 1.1 2.43 1 1.5 1L1 1.5C1 2.43 1.1 3.47 1.22 4.31C1.37 5.42 1.92 6.42 2.71 7.21L8 12.5C5.25 17.25 2.5 25.5 2.5 25.5L4.75 27.75C4.75 27.75 9.25 21.25 13 17.5C13 17.5 15.78 19.28 20 23.5C20 23.5 19.5 25.5 19.5 27.5L20 28C20 28 22 25.5 23.75 23.75C25.5 22 28 20 28 20L27.5 19.5C25.5 19.5 23.5 20 23.5 20C19.28 15.78 17.5 13 17.5 13C21.25 9.25 27.75 4.75 27.75 4.75Z"/>  </g></symbol><symbol id="plus" width="100%" height="100%"  viewBox="0 0 29 29" fill="none">  <g stroke="var(--ds-icon-color, black)" stroke-linejoin="round" stroke-linecap="round" stroke-width="var(--ds-icon-stroke, 1)">    <path d="M0.5 14.5H28.5M14.5 0.5L14.5 28.5"/>  </g></symbol><symbol id="pointer-address" width="100%" height="100%"  viewBox="0 0 29 29" fill="none">  <g stroke="var(--ds-icon-color, black)" stroke-linejoin="round" stroke-linecap="round" stroke-width="var(--ds-icon-stroke, 1)">    <circle cx="14.5" cy="14.5" r="9"/>    <path d="m 14.5,28.5 v -5"/>    <path d="m 23.5,14.5 h 5"/>    <path d="m 14.5,0.5 v 5"/>    <path d="m 0.5,14.5 h 5"/>  </g></symbol><symbol id="pointer-find-on-map" width="100%" height="100%"  viewBox="0 0 29 29" fill="none">  <g stroke="var(--ds-icon-color, black)" stroke-linejoin="round" stroke-linecap="round" stroke-width="var(--ds-icon-stroke, 1)">    <circle cx="14.5" cy="14.5" r="10"/>    <path d="m 14.5,28.5 v -4"/>    <path d="m 28.5,14.5 h -4"/>    <path d="m 14.5,0.5 v 4"/>    <path d="m 0.5,14.5 h 4"/>  </g>  <circle cx="14.5" cy="14.5" r="5.5" fill="var(--ds-icon-color, black)"/></symbol><symbol id="pointer-place" width="100%" height="100%"  viewBox="0 0 29 29" fill="none">  <g stroke="var(--ds-icon-color, black)" stroke-linejoin="round" stroke-linecap="round" stroke-width="var(--ds-icon-stroke, 1)">    <path d="M14.5 27.5C21.68 27.5 27.5 21.68 27.5 14.5C27.5 7.32 21.68 1.5 14.5 1.5C7.32 1.5 1.5 7.32 1.5 14.5C1.5 21.68 7.32 27.5 14.5 27.5Z"/>  </g></symbol><symbol id="pointer-position" width="100%" height="100%"  viewBox="0 0 29 30" fill="none">  <g fill="var(--primary, white)" fill-rule="evenodd" clip-rule="evenodd" stroke="var(--ds-icon-color, black)" stroke-linejoin="round" stroke-linecap="round" stroke-width="var(--ds-icon-stroke, 1)">    <path d="M14.5 28.46C14.5 28.46 25.5 19.34 25.5 12C25.5 5.93 20.58 1.5 14.5 1.5C8.42 1.5 3.5 5.93 3.5 12C3.5 19.34 14.5 28.46 14.5 28.46ZM14.5 16.5C17.26 16.5 19.5 14.26 19.5 11.5C19.5 8.74 17.26 6.5 14.5 6.5C11.74 6.5 9.5 8.74 9.5 11.5C9.5 14.26 11.74 16.5 14.5 16.5Z"/>  </g></symbol><symbol id="pointer-radio-button" width="100%" height="100%"  viewBox="0 0 29 29" fill="none">  <g stroke="var(--ds-icon-color, black)" stroke-width="var(--ds-icon-stroke, 1)">    <circle cx="14.5" cy="14.5" r="13"/>  </g>  <circle cx="14.5" cy="14.5" r="6.5" fill="var(--ds-icon-color, black)"/></symbol><symbol id="pointer-you-are-here" width="100%" height="100%"  viewBox="0 0 29 29" fill="none">  <path d="M 15,15 m -14,0 a 14,14 0 1,0 28,0 a 14,14 0 1,0 -28,0           M 15,15 m -7,0 a 7,7 0 1,1 14,0 a 7,7 0 1,1 -14,0" fill="var(--primary, #0090CC)" fill-rule="evenodd"/>  <g stroke="var(--white, white)" stroke-linejoin="round" stroke-linecap="round" stroke-width="var(--ds-icon-stroke, 1)">    <circle cx="15" cy="15" r="7"/>    <path d="m 15,8 v -3.5"/>    <path d="m 22,15 h 3.5"/>    <path d="m 15,22 v 3.5"/>    <path d="m 8,15 h -3.5"/>  </g></symbol><symbol id="poly-edit" width="100%" height="100%"  viewBox="0 0 29 29" fill="none">  <g stroke="var(--ds-icon-color, black)" stroke-width="var(--ds-icon-stroke, 1)">    <path d="M26.5 17.5V2.5H2.5V26.5H17.5" stroke="var(--ds-icon-color, black)" stroke-dasharray="1 1" stroke-width="var(--ds-icon-stroke, 1)"/>    <path transform="rotate(86 14 14)" d="M12.46 14.95L12 17L14.08 16.7M12.46 14.95L14.08 16.7M12.46 14.95L13.63 11.45L22.55 2.52C23.67 1.41 25.48 1.42 26.58 2.55C27.66 3.66 27.65 5.43 26.56 6.53L17.58 15.5L14.08 16.7" stroke-linejoin="round" stroke-linecap="round"/>  </g></symbol><symbol id="poly-erase" width="100%" height="100%"  viewBox="0 0 29 29" fill="none">  <g stroke="var(--ds-icon-color, black)" stroke-width="var(--ds-icon-stroke, 1)">    <path d="M6.5 20.5L9.5 6.5M6.5 20.5L22.5 24.5L22.5 17.5L28.5 20.5M6.5 20.5L0.5 27.5M9.5 6.5L13.5 4.5M9.5 6.5L0.5 0.5" stroke-dasharray="1 1"/>    <path d="M26.93 3.75L27.38 1.7L25.3 2M26.93 3.75L25.3 2M26.93 3.75L25.75 7.25L18 15M25.3 2L21.8 3.2L13.99 11M13.99 11L12.83 12.17C11.73 13.26 11.72 15.04 12.8 16.15C13.9 17.27 15.71 17.29 16.83 16.17L18 15M13.99 11L18 15" stroke-linejoin="round" stroke-linecap="round"/>  </g></symbol><symbol id="poly-selection" width="100%" height="100%"  viewBox="0 0 29 29" fill="none">  <g stroke="var(--ds-icon-color, black)" stroke-width="var(--ds-icon-stroke, 1)">    <path d="M6.5 6.5H22.5M6.5 6.5V22.5M6.5 6.5V0.5M6.5 6.5H0.5M22.5 6.5V16.5M22.5 6.5V0.5M22.5 6.5H28.5M6.5 22.5H10.5M6.5 22.5H0.5M6.5 22.5V28.5M28.5 22.5H27" stroke-dasharray="1 1"/>    <rect x="5.5" y="5.5" height="2" width="2"/>    <rect x="21.5" y="5.5" height="2" width="2"/>    <rect x="5.5" y="21.5" height="2" width="2"/>    <g stroke-linecap="round" stroke-linejoin="round">      <path d="m 14.51,28.11 c 0,0 -0.38,-0.91 -1.28,-1.31 -0.72,-0.32 -2.58,-2.39 -2.65,-5.66 -0.06,-2.51 0.02,-4.55 0.02,-4.55 0,0 1.34,-0.36 2.68,0.23 1.34,0.59 1.23,3.92 1.23,3.92 l -0.01,-9.42 c 0,0 0.02,-1.83 2.06,-1.77 2.04,0.07 1.94,1.77 1.94,1.77 l -0.05,6.52"/>      <path d="m 18.7,15.55 c 0,0 3.37,-0.66 2.92,2.37"/>      <path d="m 21.66,16.34 c 0,0 2.33,-0.66 2.46,2.08"/>      <path d="m 24.48,28.14 -0.01,-1.13 c 0,0 2.09,-2.94 2.07,-6.85 -0.11,-2.6 -2.43,-2.7 -2.43,-2.7"/>    </g>  </g></symbol><symbol id="poly-soft-cut" width="100%" height="100%"  viewBox="0 0 29 29" fill="none">  <g stroke="var(--ds-icon-color, black)" stroke-width="var(--ds-icon-stroke, 1)">    <path d="M6.5 20.5L9.5 6.5M6.5 20.5L22.5 24.5L22.5 17.5L28.5 20.5M6.5 20.5L0.5 27.5M9.5 6.5L13.5 4.5M9.5 6.5L0.5 0.5" stroke-dasharray="1 1"/>    <path d="M12.46 14.95L12 17L14.08 16.7M12.46 14.95L14.08 16.7M12.46 14.95L13.63 11.45L22.55 2.52C23.67 1.41 25.48 1.42 26.58 2.55C27.66 3.66 27.65 5.43 26.56 6.53L17.58 15.5L14.08 16.7" stroke-linejoin="round" stroke-linecap="round"/>  </g></symbol><symbol id="polygon" width="100%" height="100%"  viewBox="0 0 29 29" fill="none">  <g stroke="var(--ds-icon-color, black)" stroke-width="var(--ds-icon-stroke, 1)">    <path d="M25.5 17L3.5 3.5L8.5 25.5L25.5 17Z" stroke-dasharray="1 1"/>    <g stroke-linejoin="round" stroke-linecap="round">      <path d="M2.5 2.5H4.5V4.5H2.5V2.5Z" />      <path d="M24.5 16H26.5V18H24.5V16Z"/>      <path d="M7.5 24.5H9.5V26.5H7.5V24.5Z"/>    </g>  </g></symbol><symbol id="print" width="100%" height="100%"  viewBox="0 0 29 29" fill="none">  <g stroke="var(--ds-icon-color, black)" stroke-linejoin="round" stroke-linecap="round" stroke-width="var(--ds-icon-stroke, 1)">    <path d="M6.5 11.5V2.5H22.5V11.5M6.5 21.4H4C3.34 21.4 2.7 21.18 2.23 20.8C1.76 20.42 1.5 19.9 1.5 19.36V13.54C1.5 13 1.76 12.48 2.23 12.1C2.7 11.72 3.34 11.5 4 11.5H25C25.66 11.5 26.3 11.72 26.77 12.1C27.24 12.48 27.5 13 27.5 13.54V19.36C27.5 19.9 27.24 20.42 26.77 20.8C26.3 21.18 25.66 21.4 25 21.4H22.5M6.5 16.5H22.5V26.5H6.5V16.5Z"/>  </g></symbol><symbol id="privacy" width="100%" height="100%"  viewBox="0 0 30 29" fill="none">  <g stroke="var(--ds-icon-color, black)" stroke-linejoin="round" stroke-linecap="round" stroke-width="var(--ds-icon-stroke, 1)">    <path d="M22.17 6.94C20.13 5.53 17.58 4.49 14.5 4.49C4.95 4.49 0.5 14.5 0.5 14.5C0.5 14.5 2.57 19.15 6.91 22.11M18.45 10.63C17.44 9.62 16.04 8.99 14.49 8.99C11.42 8.99 8.92 11.47 8.92 14.53C8.92 16.07 9.55 17.46 10.57 18.47M24.82 9.2C27.32 11.8 28.53 14.5 28.53 14.5C28.53 14.5 24.05 24.51 14.5 24.51C12.93 24.51 11.49 24.24 10.19 23.78M3 26L26.06 3.05"/>  </g></symbol><symbol id="question" width="100%" height="100%"  viewBox="0 0 29 29" fill="none">  <g stroke="var(--ds-icon-color, black)" stroke-linejoin="round" stroke-linecap="round" stroke-width="var(--ds-icon-stroke, 1)">    <path d="M15 26.54C22.18 26.54 28 20.93 28 14.02C28 7.1 22.18 1.5 15 1.5C7.82 1.5 2 7.1 2 14.02C2 16.2 2.58 18.25 3.59 20.03L1 27.5L8.77 25.01C10.62 25.98 12.74 26.54 15 26.54Z"/>    <path d="m 14.5,17 v -2.75 c 0,0 5.06,-0.78 5.02,-3.94 C 19.49,7.44 16.67,6.07 13.21,6.66 9.58,7.29 9.5,10 9.5,10"/>    <path d="m 14.5,22.5 v -2"/>  </g></symbol><symbol id="quote" width="100%" height="100%"  viewBox="0 0 36 23" fill="none">  <g fill="var(--ds-icon-color, black)" stroke="none">    <path d="M16 14.52C16 18.94 12.43 22.53 8.02 22.53C3.62 22.53 0.42 19.07 0.04 14.66C-0.53 7.94 4.56 2.32 10.74 0.53C8.64 1.8 7.17 4.02 6.92 6.61C7.28 6.56 7.65 6.52 8.02 6.52C12.43 6.52 16 10.1 16 14.52Z"/>    <path d="M36 14.52C36 18.94 32.43 22.53 28.02 22.53C23.62 22.53 20.42 19.07 20.04 14.66C19.47 7.94 24.56 2.32 30.74 0.53C28.64 1.8 27.17 4.02 26.92 6.61C27.28 6.56 27.65 6.52 28.02 6.52C32.43 6.52 36 10.1 36 14.52Z"/>  </g></symbol><symbol id="road" width="100%" height="100%"  viewBox="0 0 29 29" fill="none">  <g stroke="var(--ds-icon-color, black)" stroke-linejoin="round" stroke-linecap="round" stroke-width="var(--ds-icon-stroke, 1)">    <path d="M1.5 14.5H27.5M1.5 14.5V10M1.5 14.5V19M27.5 14.5V10M27.5 14.5V19"/>  </g></symbol><symbol id="rotate" width="100%" height="100%"  viewBox="0 0 29 29" fill="none">  <g stroke="var(--ds-icon-color, black)" stroke-linejoin="round" stroke-linecap="round" stroke-width="var(--ds-icon-stroke, 1)">    <path d="M26 18.65C24.44 23.77 19.66 27.5 14.02 27.5C7.11 27.5 1.5 21.9 1.5 15C1.5 8.1 7.09 2.5 14 2.5C18.5 2.5 21 4 23.5 7.5L27 12.5M27.5 4.5V12.5H19"/>  </g></symbol><symbol id="ruler-horizontal" width="100%" height="100%"  viewBox="0 0 29 29" fill="none">  <g stroke="var(--ds-icon-color, black)" stroke-linejoin="round" stroke-linecap="round" stroke-width="var(--ds-icon-stroke, 1)">    <path d="M11.5 16V19M6.5 16V19M21.5 16V19M16.5 16V19M2.5 19.5H26.5V8.5H2.5V19.5Z"/>  </g></symbol><symbol id="ruler-vertical" width="100%" height="100%"  viewBox="0 0 29 29" fill="none">  <g stroke="var(--ds-icon-color, black)" stroke-linejoin="round" stroke-linecap="round" stroke-width="var(--ds-icon-stroke, 1)">    <path d="M12.5 11H9.5M12.5 6H9.5M12.5 21H9.5M12.5 16H9.5M9 2V26H20V2H9Z"/>  </g></symbol><symbol id="search" width="100%" height="100%"  viewBox="0 0 29 29" fill="none">  <g stroke="var(--ds-icon-color, black)" stroke-linejoin="round" stroke-linecap="round" stroke-width="var(--ds-icon-stroke, 1)">    <path d="M28.5 28.5L23 23M26.5 14C26.5 20.9 20.9 26.5 14 26.5C7.1 26.5 1.5 20.9 1.5 14C1.5 7.1 7.1 1.5 14 1.5C20.9 1.5 26.5 7.1 26.5 14Z"/>  </g></symbol><symbol id="settings" width="100%" height="100%"  viewBox="0 0 29 29" fill="none">  <g stroke="var(--ds-icon-color, black)" stroke-width="var(--ds-icon-stroke, 1)">    <path d="M24.14 11.69L24.22 11.95L24.48 12.03L27.45 12.91C27.46 12.92 27.46 12.92 27.47 12.93C27.47 12.94 27.47 12.95 27.47 12.96L27.47 12.97V12.98V16.05C27.47 16.06 27.47 16.07 27.46 16.07C27.46 16.08 27.45 16.09 27.44 16.09L24.41 16.99L24.15 17.07L24.07 17.33C23.87 18.01 23.6 18.67 23.26 19.29L23.13 19.53L23.26 19.77L24.75 22.56C24.75 22.56 24.75 22.56 24.75 22.56C24.76 22.57 24.76 22.58 24.76 22.59C24.75 22.6 24.75 22.61 24.74 22.61L24.74 22.62L22.59 24.77L22.59 24.77C22.58 24.78 22.57 24.78 22.56 24.78C22.55 24.78 22.54 24.78 22.53 24.78C22.53 24.78 22.53 24.78 22.53 24.78L19.73 23.28L19.49 23.16L19.26 23.29C18.64 23.62 17.98 23.89 17.3 24.09L17.04 24.17L16.96 24.43L16.06 27.47C16.06 27.48 16.06 27.48 16.05 27.49C16.04 27.5 16.03 27.5 16.02 27.5H12.98C12.97 27.5 12.96 27.5 12.95 27.49C12.94 27.48 12.94 27.48 12.94 27.47L12.04 24.44L11.96 24.18L11.7 24.1C11.01 23.9 10.35 23.63 9.72 23.29L9.49 23.17L9.25 23.29L6.47 24.78C6.47 24.78 6.47 24.78 6.47 24.78C6.46 24.78 6.45 24.78 6.44 24.78C6.43 24.78 6.42 24.78 6.41 24.77L6.41 24.77L4.26 22.62L4.26 22.61C4.25 22.61 4.25 22.6 4.24 22.59C4.24 22.58 4.24 22.56 4.25 22.56L4.25 22.55L5.73 19.73L5.85 19.49L5.72 19.25C5.36 18.62 5.07 17.95 4.86 17.25L4.78 17L4.53 16.92L1.53 16.02C1.52 16.02 1.52 16.01 1.51 16C1.5 15.99 1.5 15.98 1.5 15.97V12.94C1.5 12.93 1.5 12.92 1.51 12.91C1.52 12.9 1.52 12.89 1.53 12.89C1.53 12.89 1.53 12.89 1.53 12.89L4.51 11.99L4.77 11.91L4.85 11.65C5.05 10.95 5.34 10.27 5.7 9.62L5.84 9.38L5.71 9.14L4.25 6.44C4.25 6.44 4.25 6.44 4.25 6.44C4.24 6.43 4.24 6.42 4.24 6.41C4.25 6.4 4.25 6.39 4.26 6.39L6.44 4.26L6.44 4.26L6.45 4.25C6.46 4.24 6.47 4.24 6.48 4.24C6.49 4.23 6.5 4.24 6.51 4.24C6.51 4.24 6.51 4.24 6.51 4.24L9.2 5.7L9.45 5.83L9.69 5.69C10.33 5.33 11.02 5.05 11.73 4.84L11.98 4.76L12.06 4.5L12.96 1.53C12.96 1.53 12.96 1.53 12.96 1.53C12.97 1.52 12.97 1.52 12.98 1.51C12.99 1.5 13 1.5 13.01 1.5H16.05V1.5L16.06 1.5C16.07 1.5 16.08 1.5 16.09 1.51C16.1 1.51 16.1 1.52 16.1 1.53L17 4.49L17.08 4.75L17.34 4.83C18.04 5.04 18.72 5.32 19.36 5.68L19.6 5.82L19.84 5.69L22.58 4.22C22.58 4.22 22.58 4.22 22.58 4.22C22.59 4.22 22.6 4.22 22.61 4.22C22.62 4.22 22.63 4.22 22.64 4.23L22.64 4.23L24.79 6.39L24.79 6.39L24.8 6.4C24.8 6.4 24.81 6.41 24.81 6.42C24.81 6.43 24.81 6.44 24.8 6.45C24.8 6.45 24.8 6.45 24.8 6.45L23.33 9.22L23.2 9.45L23.33 9.69C23.67 10.32 23.95 10.99 24.14 11.69ZM11.5 19.03C12.4 19.63 13.45 19.95 14.53 19.95C15.97 19.95 17.36 19.38 18.38 18.35C19.4 17.33 19.98 15.95 19.98 14.5C19.98 13.42 19.66 12.37 19.06 11.47C18.46 10.58 17.61 9.88 16.61 9.46C15.62 9.05 14.52 8.94 13.46 9.15C12.41 9.37 11.44 9.88 10.67 10.65C9.91 11.41 9.39 12.38 9.18 13.44C8.97 14.49 9.08 15.59 9.49 16.59C9.9 17.58 10.6 18.43 11.5 19.03Z"/>  </g></symbol><symbol id="share" width="100%" height="100%"  viewBox="0 0 29 29" fill="none">  <g stroke="var(--ds-icon-color, black)" stroke-linejoin="round" stroke-linecap="round" stroke-width="var(--ds-icon-stroke, 1)">    <path d="M10.08 12.71L18.92 8.29M10.08 16.29L18.92 20.71M10.5 14.5C10.5 16.71 8.71 18.5 6.5 18.5C4.29 18.5 2.5 16.71 2.5 14.5C2.5 12.29 4.29 10.5 6.5 10.5C8.71 10.5 10.5 12.29 10.5 14.5ZM26.5 6.5C26.5 8.71 24.71 10.5 22.5 10.5C20.29 10.5 18.5 8.71 18.5 6.5C18.5 4.29 20.29 2.5 22.5 2.5C24.71 2.5 26.5 4.29 26.5 6.5ZM26.5 22.5C26.5 24.71 24.71 26.5 22.5 26.5C20.29 26.5 18.5 24.71 18.5 22.5C18.5 20.29 20.29 18.5 22.5 18.5C24.71 18.5 26.5 20.29 26.5 22.5Z"/>  </g></symbol><symbol id="some-github" width="100%" height="100%"  viewBox="0 0 16 16" fill="none">  <path fill="var(--ds-icon-color, black)" d="M8 0C3.58 0 0 3.58 0 8c0 3.54 2.29 6.53 5.47 7.59.4.07.55-.17.55-.38 0-.19-.01-.82-.01-1.49-2.01.37-2.53-.49-2.69-.94-.09-.23-.48-.94-.82-1.13-.28-.15-.68-.52-.01-.53.63-.01 1.08.58 1.23.82.72 1.21 1.87.87 2.33.66.07-.52.28-.87.51-1.07-1.78-.2-3.64-.89-3.64-3.95 0-.87.31-1.59.82-2.15-.08-.2-.36-1.02.08-2.12 0 0 .67-.21 2.2.82.64-.18 1.32-.27 2-.27.68 0 1.36.09 2 .27 1.53-1.04 2.2-.82 2.2-.82.44 1.1.16 1.92.08 2.12.51.56.82 1.27.82 2.15 0 3.07-1.87 3.75-3.65 3.95.29.25.54.73.54 1.48 0 1.07-.01 1.93-.01 2.2 0 .21.15.46.55.38A8.01 8.01 0 0016 8c0-4.42-3.58-8-8-8z"></path></symbol><symbol id="some-linkedin" width="100%" height="100%"  viewBox="0 0 29 29" fill="none">  <path fill-rule="evenodd" clip-rule="evenodd" d="M5 2C3.34 2 2 3.34 2 5V24C2 25.66 3.34 27 5 27H24C25.66 27 27 25.66 27 24V5C27 3.34 25.66 2 24 2H5ZM6.24 11.31V23.04H9.91V11.31H6.24ZM6 7.53C6 8.75 6.98 9.72 8.08 9.72C9.3 9.72 10.27 8.75 10.15 7.53C10.15 6.43 9.3 5.45 8.08 5.45C6.98 5.45 6 6.3 6 7.53ZM19.92 23.04H23.46V16.56C23.46 13.39 22.73 10.95 19.07 10.95C17.36 10.95 16.14 11.92 15.65 12.9V11.31H12.11V23.04H15.77V17.17C15.77 15.59 16.01 14.12 17.97 14.12C19.92 14.12 19.92 15.95 19.92 17.3V23.04Z" fill="var(--ds-icon-color, #0079B9)"/>  <path fill-rule="evenodd" clip-rule="evenodd" d="M6.24 11.31V23.04H9.91V11.31H6.24ZM6 7.53C6 8.75 6.98 9.72 8.08 9.72C9.3 9.72 10.27 8.75 10.15 7.53C10.15 6.43 9.3 5.45 8.08 5.45C6.98 5.45 6 6.3 6 7.53ZM19.92 23.04H23.46V16.56C23.46 13.39 22.73 10.95 19.07 10.95C17.36 10.95 16.14 11.92 15.65 12.9V11.31H12.11V23.04H15.77V17.17C15.77 15.59 16.01 14.12 17.97 14.12C19.92 14.12 19.92 15.95 19.92 17.3V23.04Z" fill="var(--background-color, white)"/></symbol><symbol id="some-trello" width="100%" height="100%"  viewBox="0 0 29 29" fill="none">  <path fill-rule="evenodd" clip-rule="evenodd" d="M23.28 2H5.81C3.71 2 2 3.7 2 5.8V23.1C2 25.3 3.71 27 5.81 27H23.18C25.29 27 27 25.3 27 23.2V5.8C27.1 3.7 25.39 2 23.28 2ZM22.77 6H17.23C16.55 6 16 6.53 16 7.18V14.82C16 15.47 16.55 16 17.23 16H22.77C23.45 16 24 15.47 24 14.82V7.18C24 6.53 23.45 6 22.77 6ZM6.23 6H11.77C12.45 6 13 6.55 13 7.23V21.77C13 22.45 12.45 23 11.77 23H6.23C5.55 23 5 22.45 5 21.77V7.23C5 6.55 5.55 6 6.23 6Z" fill="var(--ds-icon-color, #0092EA)"/>  <path fill-rule="evenodd" clip-rule="evenodd" d="M22.77 6H17.23C16.55 6 16 6.53 16 7.18V14.82C16 15.47 16.55 16 17.23 16H22.77C23.45 16 24 15.47 24 14.82V7.18C24 6.53 23.45 6 22.77 6ZM6.23 6H11.77C12.45 6 13 6.55 13 7.23V21.77C13 22.45 12.45 23 11.77 23H6.23C5.55 23 5 22.45 5 21.77V7.23C5 6.55 5.55 6 6.23 6Z" fill="var(--background-color, white)"/></symbol><symbol id="some-x" width="100%" height="100%"  viewBox="0 0 29 29" fill="none">  <path d="M3 2.54V2.04H2.04L2.59 2.83L3 2.54ZM9.13 2.54L9.54 2.26L9.39 2.04H9.13V2.54ZM26 26.46V26.96H26.96L26.41 26.17L26 26.46ZM19.87 26.46L19.46 26.74L19.61 26.96H19.87V26.46ZM25.35 2.33C25.53 2.13 25.52 1.81 25.31 1.63C25.1 1.44 24.79 1.46 24.6 1.67L25.35 2.33ZM2.62 26.67C2.44 26.88 2.46 27.19 2.67 27.38C2.88 27.56 3.19 27.54 3.38 27.33L2.62 26.67ZM3 3.04H9.13V2.04H3V3.04ZM8.72 2.83L15.51 12.45L16.33 11.88L9.54 2.26L8.72 2.83ZM15.51 12.45L25.59 26.74L26.41 26.17L16.33 11.88L15.51 12.45ZM26 25.96H19.87V26.96H26V25.96ZM20.28 26.17L3.41 2.26L2.59 2.83L19.46 26.74L20.28 26.17ZM16.29 12.5L25.35 2.33L24.6 1.67L15.55 11.83L16.29 12.5ZM3.38 27.33L12.95 16.44L12.2 15.78L2.62 26.67L3.38 27.33Z" fill="var(--ds-icon-color, black)"/></symbol><symbol id="some-youtube" width="100%" height="100%"  viewBox="0 0 29 29" fill="none">  <path d="M27.3 7.3C27 6.11 26.09 5.16 24.93 4.83C22.85 4.25 14.49 4.25 14.49 4.25C14.49 4.25 6.13 4.25 4.04 4.83C2.88 5.15 1.98 6.09 1.66 7.3C1.12 9.47 1.12 14 1.12 14C1.12 14 1.12 18.53 1.68 20.7C1.98 21.89 2.9 22.84 4.05 23.17C6.13 23.75 14.49 23.75 14.49 23.75C14.49 23.75 22.85 23.75 24.95 23.17C26.1 22.85 27 21.91 27.32 20.7C27.87 18.53 27.87 14 27.87 14C27.87 14 27.87 9.47 27.3 7.3Z" fill="var(--ds-icon-color, #FF0000)"/>  <path d="M10 19.5V9.5L20.75 14.5L10 19.5Z" fill="var(--background-color, white)"/></symbol><symbol id="sort" width="100%" height="100%"  viewBox="0 0 29 29" fill="none">  <g stroke="var(--ds-icon-color, black)" stroke-linejoin="round" stroke-linecap="round" stroke-width="var(--ds-icon-stroke, 1)">    <path d="M28.5 22.5H12.37M26.5 14.5H12.37M22.5 6.5H12.37M4.5 27.5L4.5 3.5M4.5 27.5L8.5 23.58M4.5 27.5L0.5 23.5"/>  </g></symbol><symbol id="stack" width="100%" height="100%"  viewBox="0 0 29 29" fill="none">  <g stroke="var(--ds-icon-color, black)" stroke-linejoin="round" stroke-linecap="round" stroke-width="var(--ds-icon-stroke, 1)">    <path d="M1.5 14L14.5 20.5L27.5 14M1.5 20L14.5 26.5L27.5 20M14.5 2.5L1.5 8L14.5 14.5L27.5 8L14.5 2.5Z"/>  </g></symbol><symbol id="status" width="100%" height="100%"  viewBox="0 0 29 29" fill="none">  <g stroke="var(--ds-icon-color, black)" stroke-linecap="round" stroke-width="var(--ds-icon-stroke, 1)">    <circle cx="4" cy="8" r="1.5"/>    <circle cx="23" cy="3.5" r="1.5"/>    <circle cx="23" cy="23" r="1.5"/>    <path d="m 0.5,14.5 h 7 l 7,12.5 6,-18.5 h 8"/>  </g></symbol><symbol id="sun" width="100%" height="100%"  viewBox="0 0 29 29" fill="none">  <g stroke="var(--ds-icon-color, black)" stroke-linejoin="round" stroke-linecap="round" stroke-width="var(--ds-icon-stroke, 1)">    <path d="M0.5 14.5H3.5M25.5 14.5L28.5 14.5M14.49 0.5V3.5M14.5 25.5V28.5M4.6 24.4L6.72 22.28M22.28 6.72L24.4 4.6M4.59 4.61L6.72 6.73M22.28 22.28L24.4 24.4M22.5 14.5C22.5 18.92 18.92 22.5 14.5 22.5C10.08 22.5 6.5 18.92 6.5 14.5C6.5 10.08 10.08 6.5 14.5 6.5C18.92 6.5 22.5 10.08 22.5 14.5Z"/>  </g></symbol><symbol id="terms" width="100%" height="100%"  viewBox="0 0 29 29" fill="none">  <g stroke="var(--ds-icon-color, black)" stroke-linejoin="round" stroke-linecap="round" stroke-width="var(--ds-icon-stroke, 1)">    <path d="M23.49 4.5L19.38 14.5M23.49 4.5L27.5 14.5M23.49 4.5L16.13 4.5M19.38 14.5L27.5 14.5M19.38 14.5C19.38 16.29 21.21 18.5 23 18.5L24 18.5C25.8 18.5 27.5 16.29 27.5 14.5M5.61 4.5L1.5 14.5M5.61 4.5L9.62 14.5M5.61 4.5L12.88 4.5M1.5 14.5L9.62 14.5M1.5 14.5C1.5 16.29 3.21 18.5 5 18.5H6C7.79 18.5 9.62 16.29 9.62 14.5M6.37 26.5H22.63M12.88 4.5C12.88 5.4 13.6 6.12 14.5 6.12M12.88 4.5C12.88 3.6 13.6 2.88 14.5 2.88C15.4 2.88 16.13 3.6 16.13 4.5M16.13 4.5C16.13 5.4 15.4 6.12 14.5 6.12M14.5 6.12L14.5 26.5"/>  </g></symbol><symbol id="token" width="100%" height="100%"  viewBox="0 0 29 29" fill="none">  <g stroke="var(--ds-icon-color, black)" stroke-linejoin="round" stroke-linecap="round" stroke-width="var(--ds-icon-stroke, 1)">    <path d="M14.5 13.5L20 8M20 8L23.5 4.5M20 8L23.5 11.5M23.5 4.5L26.5 1.5M23.5 4.5L28 9M16.5 19C16.5 23.14 13.14 26.5 9 26.5C4.86 26.5 1.5 23.14 1.5 19C1.5 14.86 4.86 11.5 9 11.5C13.14 11.5 16.5 14.86 16.5 19Z"/>  </g></symbol><symbol id="trash" width="100%" height="100%"  viewBox="0 0 29 29" fill="none">  <g stroke="var(--ds-icon-color, black)" stroke-linejoin="round" stroke-linecap="round" stroke-width="var(--ds-icon-stroke, 1)">    <path d="M9.5 4.5H4.17C3.25 4.5 2.5 5.25 2.5 6.17V7.23C2.5 7.81 2.82 8.33 3.33 8.58C3.84 8.84 4.5 9.24 4.5 9.81V24C4.5 25.38 5.62 26.5 7 26.5H22C23.38 26.5 24.5 25.38 24.5 24V9.81C24.5 9.24 25.16 8.84 25.67 8.58C26.18 8.33 26.5 7.81 26.5 7.24V6.17C26.5 5.25 25.75 4.5 24.83 4.5L19.5 4.5M9.5 4.5H19.5M9.5 4.5V3.17C9.5 2.25 10.25 1.5 11.17 1.5H17.83C18.75 1.5 19.5 2.25 19.5 3.17V4.5M10.5 13.5V21.5M18.5 13.5V21.5M5 8.5H24M14.5 13.5V21.5"/>  </g></symbol><symbol id="upload" width="100%" height="100%"  viewBox="0 0 29 29" fill="none">    <g stroke="var(--ds-icon-color, black)" stroke-linecap="round" stroke-width="var(--ds-icon-stroke, 1)">        <path d="M1.5 26.5H27.5"/>        <path d="M2 13.0858L13.7929 1.29292C14.1834 0.902398 14.8166 0.902399 15.2071 1.29292L27 13.0858M14.5 1.08582L14.5 20.4999"/>    </g></symbol><symbol id="user" width="100%" height="100%"  viewBox="0 0 29 29" fill="none">  <g stroke="var(--ds-icon-color, black)" stroke-linejoin="round" stroke-linecap="round" stroke-width="var(--ds-icon-stroke, 1)">    <path d="M27.5 25.92V24.8C27.5 23.66 26.86 22.57 25.73 21.76C24.59 20.95 23.05 20.5 21.44 20.5H7.56C5.95 20.5 4.41 20.95 3.27 21.76C2.14 22.57 1.5 23.66 1.5 24.8L1.5 25.92M22.5 9.5C22.5 13.92 18.92 17.5 14.5 17.5C10.08 17.5 6.5 13.92 6.5 9.5C6.5 5.08 10.08 1.5 14.5 1.5C18.92 1.5 22.5 5.08 22.5 9.5Z"/>  </g></symbol><symbol id="users" width="100%" height="100%"  viewBox="0 0 29 29" fill="none">  <g stroke="var(--ds-icon-color, black)" stroke-linejoin="round" stroke-linecap="round" stroke-width="var(--ds-icon-stroke, 1)">    <path d="M22.24 14.65C24.19 13.53 25.5 11.42 25.5 9.01C25.5 5.41 22.59 2.5 18.99 2.5C17.72 2.5 16.53 2.87 15.53 3.5M24.5 27.38V26.44C24.5 25.39 23.9 24.39 22.84 23.65C21.77 22.92 20.32 22.5 18.81 22.5H7.17C5.66 22.5 4.21 22.92 3.14 23.65C2.08 24.39 1.48 25.39 1.48 26.44V27.38M27.51 23.39V22.45C27.51 21.4 26.91 20.4 25.84 19.66C24.77 18.92 23.33 18.51 21.82 18.51L21 18.5M19.52 13C19.52 16.59 16.61 19.51 13.01 19.51C9.42 19.51 6.5 16.59 6.5 13C6.5 9.41 9.42 6.49 13.01 6.49C16.61 6.49 19.52 9.41 19.52 13Z"/>  </g></symbol><symbol id="warning" width="100%" height="100%"  viewBox="0 0 29 29" fill="none">  <g stroke="var(--ds-icon-color, black)" stroke-linejoin="round" stroke-linecap="round" stroke-width="var(--ds-icon-stroke, 1)">    <path d="M3.63 26.27H25.37C25.73 26.27 26.07 26.18 26.38 26.01C26.69 25.83 26.94 25.58 27.12 25.28C27.31 24.98 27.4 24.63 27.41 24.28C27.42 23.93 27.34 23.58 27.17 23.27L16.3 3.07C15.53 1.64 13.47 1.64 12.7 3.07L1.83 23.27C1.66 23.58 1.58 23.93 1.59 24.28C1.59 24.63 1.69 24.98 1.87 25.28C2.06 25.58 2.31 25.83 2.62 26.01C2.93 26.18 3.27 26.27 3.63 26.27Z"/>    <path d="M14.13 10.26L14.5 17.89L14.86 10.27C14.87 10.22 14.86 10.17 14.84 10.12C14.82 10.08 14.8 10.04 14.76 10C14.73 9.97 14.69 9.94 14.64 9.92C14.59 9.9 14.55 9.89 14.5 9.89C14.45 9.89 14.4 9.9 14.35 9.92C14.31 9.94 14.27 9.97 14.23 10C14.2 10.04 14.17 10.08 14.16 10.12C14.14 10.17 14.13 10.21 14.13 10.26Z"/>  </g>  <path d="M14.47 23.1C14.22 23.1 13.98 23.02 13.77 22.89C13.57 22.75 13.41 22.55 13.31 22.33C13.22 22.1 13.19 21.85 13.24 21.6C13.29 21.36 13.41 21.14 13.58 20.96C13.76 20.79 13.98 20.67 14.22 20.62C14.47 20.57 14.72 20.6 14.95 20.69C15.18 20.79 15.37 20.95 15.51 21.15C15.65 21.36 15.72 21.6 15.72 21.85C15.72 22.18 15.59 22.5 15.35 22.73C15.12 22.97 14.8 23.1 14.47 23.1Z" fill="var(--ds-icon-color, black)"/></symbol></svg>