<svg width="230" height="63" viewBox="0 0 230 63" fill="none" xmlns="http://www.w3.org/2000/svg">
<circle cx="31.5" cy="31.5" r="31.5" fill="#006C99"/>
<path d="M18.13 46.33H44.86M18.13 49.29H44.86M18.13 43.36H44.86M31.51 10.74V12.97M31.51 17.41V18.9M35.95 15.19H33.73M29.28 15.19H27.05M31.5 24.35C32.98 23.35 34.46 21.12 38.91 21.14C42.23 21.15 44.37 22.32 44.77 25.24M31.5 24.35C30.01 23.35 28.53 21.16 24.08 21.14C20.76 21.12 18.62 22.31 18.22 25.24M31.5 24.35V39.66M44.77 25.24C44.82 25.57 44.84 25.93 44.84 26.31C44.84 31.06 42.54 34.31 38.52 39.66M44.77 25.24C48.07 25.24 49.58 27.05 49.58 30.02C49.58 32.48 47.35 36.32 44.86 39.66M18.22 25.24C18.17 25.57 18.15 25.93 18.15 26.31C18.15 31.06 20.49 34.31 24.49 39.66M18.22 25.24C14.81 25.24 13.41 27.04 13.41 30C13.41 32.47 15.64 36.32 18.13 39.66M33.72 21.49C33.72 22.72 32.73 23.72 31.5 23.72C30.27 23.72 29.28 22.72 29.28 21.49C29.28 20.26 30.27 19.27 31.5 19.27C32.73 19.27 33.72 20.26 33.72 21.49Z" stroke="white" stroke-width="1.5" stroke-linecap="round"/>
<path d="M80.34 24.7V37.5H78.84V24.7H80.34ZM88.02 24.7L82.71 30.64L79.82 33.63L79.59 32L81.81 29.57L86.19 24.7H88.02ZM86.61 37.5L81.75 31.16L82.65 29.96L88.41 37.5H86.61ZM91.69 24V37.5H90.24V24H91.69ZM95.94 27.99V37.5H94.49V27.99H95.94ZM94.35 25.4C94.35 25.16 94.42 24.95 94.57 24.78C94.72 24.61 94.94 24.53 95.23 24.53C95.51 24.53 95.73 24.61 95.88 24.78C96.04 24.95 96.12 25.16 96.12 25.4C96.12 25.63 96.04 25.83 95.88 26C95.73 26.17 95.51 26.25 95.23 26.25C94.94 26.25 94.72 26.17 94.57 26C94.42 25.83 94.35 25.63 94.35 25.4ZM100.04 29.91V37.5H98.59V27.99H99.97L100.04 29.91ZM99.75 32.31L99.07 32.22C99.08 31.6 99.17 31.02 99.33 30.49C99.5 29.95 99.75 29.48 100.06 29.08C100.39 28.68 100.78 28.37 101.24 28.15C101.71 27.93 102.25 27.81 102.86 27.81C103.3 27.81 103.71 27.88 104.08 28.01C104.45 28.13 104.77 28.33 105.04 28.6C105.31 28.87 105.52 29.21 105.66 29.63C105.81 30.06 105.89 30.57 105.89 31.16V37.5H104.44V31.23C104.44 30.69 104.35 30.27 104.18 29.95C104.01 29.63 103.77 29.41 103.46 29.26C103.15 29.12 102.78 29.05 102.36 29.05C101.87 29.05 101.46 29.15 101.13 29.34C100.79 29.52 100.53 29.77 100.33 30.08C100.13 30.39 99.98 30.74 99.89 31.13C99.8 31.51 99.75 31.91 99.75 32.31ZM105.87 31.44L104.91 31.68C104.92 31.18 105.01 30.69 105.18 30.23C105.35 29.77 105.59 29.36 105.91 28.99C106.22 28.63 106.61 28.34 107.07 28.13C107.52 27.92 108.04 27.81 108.62 27.81C109.13 27.81 109.57 27.88 109.96 28.02C110.35 28.15 110.67 28.36 110.94 28.64C111.2 28.92 111.41 29.27 111.55 29.71C111.69 30.15 111.76 30.67 111.76 31.27V37.5H110.3V31.25C110.3 30.68 110.21 30.23 110.04 29.92C109.87 29.59 109.63 29.37 109.32 29.24C109.01 29.11 108.64 29.05 108.22 29.05C107.84 29.05 107.5 29.12 107.21 29.26C106.92 29.39 106.68 29.57 106.48 29.8C106.29 30.02 106.14 30.28 106.03 30.57C105.93 30.85 105.88 31.14 105.87 31.44ZM119.86 35.85V30.93C119.86 30.54 119.79 30.19 119.63 29.91C119.47 29.61 119.23 29.39 118.92 29.24C118.6 29.08 118.22 29 117.76 29C117.33 29 116.95 29.08 116.63 29.23C116.31 29.38 116.05 29.57 115.87 29.82C115.68 30.06 115.59 30.33 115.59 30.63L114.14 30.62C114.14 30.28 114.23 29.94 114.4 29.61C114.57 29.27 114.82 28.97 115.15 28.7C115.47 28.43 115.86 28.21 116.31 28.05C116.77 27.89 117.28 27.81 117.84 27.81C118.52 27.81 119.12 27.93 119.64 28.16C120.16 28.39 120.56 28.73 120.86 29.2C121.16 29.67 121.31 30.25 121.31 30.95V35.45C121.31 35.77 121.33 36.11 121.39 36.46C121.44 36.82 121.52 37.12 121.62 37.37V37.5H120.11C120.03 37.31 119.97 37.05 119.93 36.74C119.89 36.42 119.86 36.12 119.86 35.85ZM120.13 31.8L120.15 32.85H118.41C117.94 32.85 117.51 32.89 117.13 32.97C116.76 33.05 116.44 33.17 116.18 33.33C115.92 33.48 115.73 33.68 115.59 33.91C115.46 34.14 115.39 34.41 115.39 34.71C115.39 35.03 115.46 35.32 115.6 35.58C115.75 35.83 115.96 36.03 116.24 36.17C116.53 36.32 116.88 36.39 117.28 36.39C117.8 36.39 118.25 36.29 118.64 36.09C119.04 35.87 119.35 35.61 119.59 35.29C119.83 34.98 119.97 34.66 120.01 34.34L120.61 35.07C120.56 35.32 120.45 35.6 120.26 35.9C120.08 36.2 119.84 36.48 119.53 36.75C119.23 37.02 118.88 37.25 118.47 37.42C118.06 37.59 117.59 37.68 117.08 37.68C116.45 37.68 115.89 37.56 115.42 37.32C114.95 37.07 114.59 36.74 114.33 36.32C114.07 35.9 113.94 35.42 113.94 34.89C113.94 34.4 114.04 33.96 114.23 33.58C114.43 33.19 114.71 32.87 115.08 32.61C115.45 32.35 115.9 32.15 116.42 32.02C116.95 31.88 117.54 31.8 118.19 31.8H120.13ZM129.89 35.65V24H131.35V37.5H130.02L129.89 35.65ZM123.52 32.88V32.63C123.52 31.9 123.61 31.24 123.78 30.64C123.95 30.05 124.2 29.55 124.52 29.12C124.85 28.7 125.24 28.38 125.69 28.16C126.14 27.93 126.65 27.81 127.21 27.81C127.79 27.81 128.3 27.91 128.73 28.11C129.17 28.31 129.54 28.6 129.84 28.98C130.15 29.36 130.39 29.81 130.57 30.34C130.75 30.86 130.88 31.46 130.96 32.12V33.42C130.89 34.07 130.77 34.66 130.59 35.18C130.41 35.7 130.16 36.15 129.85 36.52C129.54 36.89 129.17 37.18 128.73 37.38C128.29 37.58 127.78 37.68 127.19 37.68C126.64 37.68 126.14 37.56 125.69 37.32C125.24 37.09 124.85 36.76 124.52 36.33C124.2 35.9 123.95 35.4 123.78 34.81C123.61 34.22 123.52 33.58 123.52 32.88ZM124.98 32.63V32.88C124.98 33.38 125.03 33.85 125.13 34.28C125.23 34.71 125.38 35.09 125.59 35.41C125.8 35.73 126.06 35.98 126.39 36.16C126.71 36.34 127.09 36.43 127.54 36.43C128.09 36.43 128.54 36.32 128.9 36.09C129.26 35.87 129.55 35.56 129.77 35.19C129.99 34.81 130.15 34.4 130.27 33.96V31.63C130.2 31.31 130.1 31 129.96 30.7C129.83 30.39 129.66 30.11 129.45 29.86C129.24 29.62 128.98 29.42 128.66 29.27C128.35 29.13 127.98 29.05 127.56 29.05C127.1 29.05 126.71 29.15 126.39 29.34C126.06 29.52 125.8 29.77 125.59 30.1C125.38 30.42 125.23 30.8 125.13 31.23C125.03 31.67 124.98 32.13 124.98 32.63ZM139.53 35.85V30.93C139.53 30.54 139.46 30.19 139.3 29.91C139.14 29.61 138.9 29.39 138.59 29.24C138.27 29.08 137.89 29 137.43 29C137 29 136.62 29.08 136.3 29.23C135.98 29.38 135.72 29.57 135.54 29.82C135.35 30.06 135.26 30.33 135.26 30.63L133.81 30.62C133.81 30.28 133.9 29.94 134.07 29.61C134.24 29.27 134.49 28.97 134.81 28.7C135.14 28.43 135.53 28.21 135.98 28.05C136.44 27.89 136.95 27.81 137.51 27.81C138.19 27.81 138.79 27.93 139.31 28.16C139.83 28.39 140.23 28.73 140.53 29.2C140.83 29.67 140.98 30.25 140.98 30.95V35.45C140.98 35.77 141 36.11 141.06 36.46C141.11 36.82 141.19 37.12 141.29 37.37V37.5H139.78C139.7 37.31 139.64 37.05 139.6 36.74C139.56 36.42 139.53 36.12 139.53 35.85ZM139.8 31.8L139.82 32.85H138.08C137.61 32.85 137.18 32.89 136.8 32.97C136.43 33.05 136.11 33.17 135.85 33.33C135.59 33.48 135.4 33.68 135.26 33.91C135.13 34.14 135.06 34.41 135.06 34.71C135.06 35.03 135.13 35.32 135.27 35.58C135.42 35.83 135.63 36.03 135.91 36.17C136.2 36.32 136.55 36.39 136.95 36.39C137.47 36.39 137.92 36.29 138.31 36.09C138.71 35.87 139.02 35.61 139.26 35.29C139.5 34.98 139.64 34.66 139.68 34.34L140.28 35.07C140.23 35.32 140.12 35.6 139.93 35.9C139.75 36.2 139.51 36.48 139.2 36.75C138.9 37.02 138.55 37.25 138.14 37.42C137.73 37.59 137.26 37.68 136.75 37.68C136.12 37.68 135.56 37.56 135.09 37.32C134.62 37.07 134.26 36.74 134 36.32C133.74 35.9 133.61 35.42 133.61 34.89C133.61 34.4 133.71 33.96 133.9 33.58C134.1 33.19 134.38 32.87 134.75 32.61C135.12 32.35 135.57 32.15 136.09 32.02C136.62 31.88 137.21 31.8 137.85 31.8H139.8ZM147.42 27.99V29.12H142.44V27.99H147.42ZM144.17 25.64H145.62V35.15C145.62 35.51 145.67 35.78 145.77 35.96C145.87 36.14 146.01 36.27 146.17 36.33C146.33 36.39 146.51 36.42 146.71 36.42C146.84 36.42 146.98 36.41 147.13 36.38C147.27 36.35 147.39 36.33 147.48 36.31L147.5 37.51C147.37 37.55 147.21 37.59 147.01 37.62C146.8 37.66 146.56 37.68 146.29 37.68C145.9 37.68 145.54 37.6 145.21 37.45C144.89 37.29 144.64 37.03 144.45 36.66C144.26 36.29 144.17 35.79 144.17 35.15V25.64ZM155 35.85V30.93C155 30.54 154.92 30.19 154.77 29.91C154.61 29.61 154.37 29.39 154.05 29.24C153.74 29.08 153.36 29 152.9 29C152.47 29 152.09 29.08 151.77 29.23C151.45 29.38 151.19 29.57 151 29.82C150.82 30.06 150.73 30.33 150.73 30.63L149.28 30.62C149.28 30.28 149.37 29.94 149.54 29.61C149.71 29.27 149.96 28.97 150.28 28.7C150.61 28.43 151 28.21 151.45 28.05C151.91 27.89 152.42 27.81 152.98 27.81C153.66 27.81 154.26 27.93 154.77 28.16C155.3 28.39 155.7 28.73 156 29.2C156.29 29.67 156.44 30.25 156.44 30.95V35.45C156.44 35.77 156.47 36.11 156.52 36.46C156.58 36.82 156.66 37.12 156.76 37.37V37.5H155.25C155.17 37.31 155.1 37.05 155.06 36.74C155.02 36.42 155 36.12 155 35.85ZM155.27 31.8L155.28 32.85H153.55C153.08 32.85 152.65 32.89 152.27 32.97C151.9 33.05 151.58 33.17 151.32 33.33C151.06 33.48 150.87 33.68 150.73 33.91C150.6 34.14 150.53 34.41 150.53 34.71C150.53 35.03 150.6 35.32 150.74 35.58C150.89 35.83 151.1 36.03 151.38 36.17C151.67 36.32 152.01 36.39 152.42 36.39C152.94 36.39 153.39 36.29 153.78 36.09C154.17 35.87 154.49 35.61 154.73 35.29C154.97 34.98 155.11 34.66 155.15 34.34L155.75 35.07C155.7 35.32 155.59 35.6 155.4 35.9C155.22 36.2 154.97 36.48 154.67 36.75C154.37 37.02 154.02 37.25 153.6 37.42C153.2 37.59 152.73 37.68 152.22 37.68C151.58 37.68 151.03 37.56 150.56 37.32C150.09 37.07 149.72 36.74 149.47 36.32C149.21 35.9 149.08 35.42 149.08 34.89C149.08 34.4 149.18 33.96 149.37 33.58C149.57 33.19 149.85 32.87 150.22 32.61C150.59 32.35 151.04 32.15 151.56 32.02C152.09 31.88 152.67 31.8 153.32 31.8H155.27ZM164.57 35.01C164.57 34.77 164.52 34.55 164.41 34.34C164.3 34.12 164.08 33.92 163.75 33.74C163.43 33.56 162.95 33.4 162.31 33.26C161.79 33.14 161.32 33 160.9 32.85C160.49 32.7 160.14 32.52 159.85 32.31C159.57 32.09 159.35 31.84 159.2 31.55C159.04 31.26 158.97 30.92 158.97 30.53C158.97 30.16 159.05 29.81 159.2 29.48C159.37 29.16 159.6 28.87 159.9 28.62C160.2 28.37 160.56 28.17 160.98 28.03C161.4 27.89 161.87 27.81 162.4 27.81C163.14 27.81 163.77 27.95 164.3 28.21C164.83 28.47 165.23 28.82 165.52 29.26C165.8 29.7 165.94 30.2 165.94 30.74H164.5C164.5 30.46 164.41 30.19 164.25 29.92C164.09 29.66 163.85 29.44 163.54 29.27C163.23 29.1 162.85 29.02 162.4 29.02C161.93 29.02 161.54 29.09 161.25 29.24C160.96 29.38 160.75 29.57 160.61 29.79C160.48 30.01 160.42 30.25 160.42 30.49C160.42 30.67 160.45 30.84 160.51 30.99C160.57 31.13 160.68 31.27 160.85 31.39C161.01 31.51 161.24 31.63 161.53 31.74C161.83 31.85 162.2 31.97 162.67 32.08C163.44 32.25 164.06 32.46 164.56 32.71C165.05 32.96 165.42 33.26 165.66 33.62C165.9 33.97 166.02 34.4 166.02 34.91C166.02 35.32 165.94 35.69 165.77 36.03C165.6 36.37 165.36 36.67 165.04 36.91C164.72 37.15 164.35 37.34 163.91 37.47C163.47 37.61 162.98 37.68 162.44 37.68C161.62 37.68 160.93 37.53 160.36 37.25C159.8 36.96 159.37 36.58 159.08 36.12C158.79 35.66 158.64 35.17 158.64 34.65H160.1C160.12 35.11 160.26 35.47 160.5 35.74C160.74 36.01 161.04 36.19 161.39 36.3C161.74 36.42 162.09 36.47 162.44 36.47C162.91 36.47 163.3 36.41 163.61 36.28C163.92 36.15 164.16 35.98 164.33 35.76C164.49 35.54 164.57 35.29 164.57 35.01ZM172.05 27.99V29.12H167.07V27.99H172.05ZM168.79 25.64H170.24V35.15C170.24 35.51 170.29 35.78 170.39 35.96C170.5 36.14 170.63 36.27 170.8 36.33C170.96 36.39 171.14 36.42 171.33 36.42C171.47 36.42 171.61 36.41 171.76 36.38C171.9 36.35 172.02 36.33 172.11 36.31L172.12 37.51C172 37.55 171.84 37.59 171.63 37.62C171.43 37.66 171.19 37.68 170.92 37.68C170.53 37.68 170.17 37.6 169.84 37.45C169.52 37.29 169.26 37.03 169.07 36.66C168.89 36.29 168.79 35.79 168.79 35.15V25.64ZM176.72 36.52L179.42 27.99H180.98L177.15 38.99C177.06 39.21 176.95 39.46 176.81 39.73C176.67 40 176.5 40.26 176.28 40.51C176.07 40.75 175.81 40.95 175.51 41.1C175.2 41.26 174.84 41.34 174.41 41.34C174.29 41.34 174.13 41.32 173.94 41.29C173.75 41.26 173.61 41.23 173.53 41.21L173.52 40.02C173.57 40.03 173.65 40.03 173.76 40.04C173.86 40.05 173.94 40.06 173.99 40.06C174.36 40.06 174.67 40 174.92 39.9C175.18 39.79 175.39 39.62 175.57 39.39C175.75 39.16 175.9 38.84 176.02 38.46L176.72 36.52ZM174.58 27.99L177.17 35.61L177.55 37.14L176.5 37.68L172.99 27.99H174.58ZM183.95 29.51V37.5H182.5V27.99H183.9L183.95 29.51ZM186.99 27.94L186.97 29.28C186.84 29.25 186.72 29.24 186.6 29.23C186.49 29.22 186.36 29.21 186.21 29.21C185.82 29.21 185.48 29.28 185.18 29.41C184.88 29.54 184.63 29.73 184.42 29.97C184.22 30.2 184.05 30.48 183.94 30.8C183.82 31.13 183.75 31.47 183.72 31.85L183.29 32.08C183.29 31.49 183.35 30.94 183.46 30.43C183.58 29.92 183.76 29.46 184 29.07C184.24 28.67 184.56 28.37 184.93 28.15C185.31 27.93 185.76 27.81 186.28 27.81C186.4 27.81 186.53 27.83 186.68 27.86C186.83 27.88 186.93 27.91 186.99 27.94ZM192.19 37.68C191.55 37.68 190.96 37.56 190.43 37.34C189.91 37.12 189.46 36.81 189.08 36.4C188.7 35.99 188.41 35.5 188.21 34.94C188.01 34.38 187.91 33.76 187.91 33.09V32.66C187.91 31.89 188.02 31.21 188.24 30.61C188.47 30.01 188.77 29.5 189.15 29.09C189.54 28.67 189.97 28.35 190.46 28.14C190.95 27.92 191.46 27.81 191.99 27.81C192.64 27.81 193.2 27.93 193.68 28.16C194.16 28.38 194.56 28.7 194.87 29.11C195.19 29.51 195.42 29.99 195.57 30.55C195.73 31.1 195.81 31.71 195.81 32.37V33.09H188.77V31.88H194.36V31.76C194.34 31.3 194.24 30.86 194.08 30.44C193.92 30.03 193.67 29.69 193.33 29.42C193 29.15 192.55 29.02 191.99 29.02C191.6 29.02 191.25 29.1 190.92 29.26C190.6 29.42 190.32 29.66 190.09 29.98C189.86 30.29 189.68 30.67 189.55 31.12C189.42 31.56 189.36 32.08 189.36 32.66V33.09C189.36 33.56 189.42 34.01 189.55 34.42C189.69 34.83 189.88 35.19 190.13 35.5C190.39 35.81 190.7 36.05 191.06 36.23C191.41 36.4 191.82 36.48 192.27 36.48C192.83 36.48 193.31 36.37 193.72 36.15C194.12 35.92 194.48 35.6 194.79 35.2L195.66 35.92C195.46 36.22 195.21 36.51 194.9 36.78C194.59 37.04 194.21 37.26 193.76 37.43C193.32 37.59 192.79 37.68 192.19 37.68ZM199.34 24V37.5H197.89V24H199.34ZM207.52 35.01C207.52 34.77 207.46 34.55 207.35 34.34C207.24 34.12 207.02 33.92 206.69 33.74C206.37 33.56 205.89 33.4 205.25 33.26C204.73 33.14 204.26 33 203.84 32.85C203.43 32.7 203.09 32.52 202.8 32.31C202.51 32.09 202.29 31.84 202.14 31.55C201.99 31.26 201.91 30.92 201.91 30.53C201.91 30.16 201.99 29.81 202.15 29.48C202.31 29.16 202.54 28.87 202.84 28.62C203.14 28.37 203.5 28.17 203.92 28.03C204.35 27.89 204.82 27.81 205.34 27.81C206.08 27.81 206.72 27.95 207.25 28.21C207.77 28.47 208.18 28.82 208.46 29.26C208.74 29.7 208.88 30.2 208.88 30.74H207.44C207.44 30.46 207.36 30.19 207.19 29.92C207.03 29.66 206.79 29.44 206.48 29.27C206.17 29.1 205.79 29.02 205.34 29.02C204.87 29.02 204.49 29.09 204.2 29.24C203.9 29.38 203.69 29.57 203.55 29.79C203.43 30.01 203.36 30.25 203.36 30.49C203.36 30.67 203.39 30.84 203.45 30.99C203.51 31.13 203.63 31.27 203.79 31.39C203.96 31.51 204.18 31.63 204.48 31.74C204.77 31.85 205.15 31.97 205.61 32.08C206.38 32.25 207.01 32.46 207.5 32.71C207.99 32.96 208.36 33.26 208.6 33.62C208.85 33.97 208.97 34.4 208.97 34.91C208.97 35.32 208.88 35.69 208.71 36.03C208.54 36.37 208.3 36.67 207.98 36.91C207.67 37.15 207.29 37.34 206.85 37.47C206.42 37.61 205.93 37.68 205.38 37.68C204.57 37.68 203.88 37.53 203.31 37.25C202.75 36.96 202.32 36.58 202.02 36.12C201.73 35.66 201.59 35.17 201.59 34.65H203.04C203.07 35.11 203.2 35.47 203.44 35.74C203.69 36.01 203.98 36.19 204.34 36.3C204.69 36.42 205.04 36.47 205.38 36.47C205.85 36.47 206.24 36.41 206.55 36.28C206.87 36.15 207.11 35.98 207.27 35.76C207.44 35.54 207.52 35.29 207.52 35.01ZM214.99 37.68C214.34 37.68 213.76 37.56 213.23 37.34C212.71 37.12 212.26 36.81 211.88 36.4C211.5 35.99 211.21 35.5 211.01 34.94C210.81 34.38 210.71 33.76 210.71 33.09V32.66C210.71 31.89 210.82 31.21 211.04 30.61C211.27 30.01 211.57 29.5 211.95 29.09C212.33 28.67 212.77 28.35 213.26 28.14C213.75 27.92 214.26 27.81 214.79 27.81C215.44 27.81 216 27.93 216.48 28.16C216.96 28.38 217.36 28.7 217.67 29.11C217.99 29.51 218.22 29.99 218.37 30.55C218.53 31.1 218.61 31.71 218.61 32.37V33.09H211.57V31.88H217.16V31.76C217.14 31.3 217.04 30.86 216.88 30.44C216.72 30.03 216.47 29.69 216.13 29.42C215.8 29.15 215.35 29.02 214.79 29.02C214.4 29.02 214.05 29.1 213.72 29.26C213.4 29.42 213.12 29.66 212.89 29.98C212.66 30.29 212.48 30.67 212.35 31.12C212.22 31.56 212.16 32.08 212.16 32.66V33.09C212.16 33.56 212.22 34.01 212.35 34.42C212.49 34.83 212.68 35.19 212.93 35.5C213.19 35.81 213.5 36.05 213.85 36.23C214.21 36.4 214.62 36.48 215.07 36.48C215.63 36.48 216.11 36.37 216.52 36.15C216.92 35.92 217.28 35.6 217.59 35.2L218.46 35.92C218.26 36.22 218.01 36.51 217.7 36.78C217.39 37.04 217.01 37.26 216.56 37.43C216.12 37.59 215.59 37.68 214.99 37.68ZM222 30.02V37.5H220.55V27.99H221.92L222 30.02ZM221.66 32.31L221.05 32.22C221.06 31.6 221.16 31.02 221.35 30.49C221.54 29.95 221.8 29.48 222.13 29.08C222.46 28.68 222.85 28.37 223.31 28.15C223.77 27.93 224.29 27.81 224.85 27.81C225.31 27.81 225.73 27.88 226.1 28.01C226.47 28.13 226.78 28.33 227.05 28.61C227.31 28.89 227.51 29.25 227.65 29.69C227.79 30.12 227.86 30.65 227.86 31.28V37.5H226.4V31.27C226.4 30.72 226.32 30.29 226.16 29.97C226.01 29.65 225.78 29.41 225.49 29.27C225.2 29.13 224.85 29.05 224.43 29.05C224.01 29.05 223.63 29.15 223.29 29.34C222.95 29.52 222.66 29.77 222.42 30.08C222.18 30.39 221.99 30.74 221.85 31.13C221.72 31.51 221.66 31.91 221.66 32.31Z" fill="var(--color, black)"/>
</svg>
