<svg class="ds-logo" width="100%" height="100%" viewBox="0 0 45 45" fill="none" xmlns="http://www.w3.org/2000/svg">
  <style>.dsl-path {stroke: var(--ds-logo-color, black); stroke-width: 1.3px;} .dsl-fill {fill: var(--ds-logo-background-color, white)}</style>
  <circle class="dsl-path dsl-fill" cx="22.5" cy="22.5" r="21.7"/>
  <g transform="translate(8,6)">
    <path class="dsl-path" d="M14.4998 1.34766V3M14.4998 6V7M17.652 4.49983H16M13 4.49983H11.3477" stroke-linecap="round"/>
    <path class="dsl-path" d="M5 28.5H24"/>
    <path class="dsl-path" d="M5 26.5H24"/>
    <path class="dsl-path" d="M5 24.5H24"/>
    <circle class="dsl-path" cx="14.5008" cy="9.50005" r="1.7"/>
    <mask id="mask0_2142_35" style="mask-type:alpha" maskUnits="userSpaceOnUse" x="0" y="7" width="29" height="16">
      <path d="M0 7H29V22.1758H0V7Z" fill="#D9D9D9"/>
    </mask>
    <g mask="url(#mask0_2142_35)">
      <path class="dsl-path" d="M14.5001 24.4103V11.6803M14.5001 11.6803C15.4995 11 16.4995 9.5 19.5001 9.51172C21.9995 9.52148 23.5001 10.5 23.5001 13C23.5001 17 21.0754 19.4231 17.0001 25M14.5001 11.6803C13.4995 11 12.4995 9.52577 9.50014 9.51172C6.99951 9.5 5.50014 10.5 5.50014 13C5.50014 17 7.9582 19.4231 12.0001 25M23.4529 12.2749C25.6768 12.2749 26.7001 13.5 26.7001 15.5C26.7001 18 23.2772 22.6143 21.0001 25M5.5473 12.2749C3.24428 12.2749 2.30029 13.4899 2.30029 15.4899C2.30029 18 5.72311 22.6143 8.00014 25"/>
    </g>
  </g>
</svg>