<svg class="ds-logo" width="100%" height="100%" viewBox="0 0 25 25" fill="none" xmlns="http://www.w3.org/2000/svg">
  <style>.dsl-path {stroke: var(--ds-logo-color, black); stroke-width: 0.8px;} .dsl-fill {fill: var(--ds-logo-background-color, white)}</style>
  <circle class="dsl-path dsl-fill" cx="12.5" cy="12.5" r="12"/>
  <g transform="translate(5,4)">
    <path class="dsl-path" d="M7.50006 0.662598V1.51726M7.50006 3.06898V3.58622M9.1305 2.29303H8.27601M6.72429 2.29303H5.86963" stroke-linecap="round"/>
    <path class="dsl-path" d="M2.58643 14.7068H12.414"/>
    <path class="dsl-path" d="M2.58643 12.6379H12.414"/>
    <ellipse class="dsl-path" cx="7.5004" cy="4.87931" rx="0.879311" ry="0.87931"/>
    <mask id="mask0_2142_115" style="mask-type:alpha" maskUnits="userSpaceOnUse" x="0" y="3" width="15" height="9">
      <path d="M0 3.58618H15V11.4357H0V3.58618Z" fill="#D9D9D9"/>
    </mask>
    <g mask="url(#mask0_2142_115)">
      <path class="dsl-path" d="M7.50021 12.5914V6.00693M7.50021 6.00693C8.01712 5.65505 8.53436 4.87919 10.0864 4.88525C11.3792 4.8903 12.1554 5.39643 12.1554 6.68954C12.1554 8.7585 10.9012 10.0118 8.79331 12.8964M7.50021 6.00693C6.98264 5.65505 6.46538 4.89252 4.914 4.88525C3.62057 4.87919 2.84504 5.39643 2.84504 6.68954C2.84504 8.7585 4.11645 10.0118 6.20711 12.8964M12.1309 6.31448C13.2812 6.31448 13.8106 6.94816 13.8106 7.98264C13.8106 9.27574 12.04 11.6625 10.8623 12.8964M2.86943 6.31448C1.67821 6.31448 1.18994 6.94295 1.18994 7.97743C1.18994 9.27574 2.96037 11.6625 4.13814 12.8964"/>
    </g> 
  </g>
</svg>
