<svg width="100%" height="100%" viewBox="0 0 29 31" fill="none" xmlns="http://www.w3.org/2000/svg">
  <path d="M14.4998 0.347826V2.23913M14.4998 4.76087L14.501 6.65125M17.652 3.5H15.7607M13.239 3.5H11.3477" stroke="black"/>
  <circle cx="14.5007" cy="8.93427" r="1.8913" stroke="black"/>
  <path d="M5.03516 26.5H23.9532" stroke="black"/>
  <path d="M5.03516 24.5H23.9532" stroke="black"/>
  <path d="M5.03516 28.5H23.9532" stroke="black"/>
  <mask id="mask0_1974_42574" style="mask-type:alpha" maskUnits="userSpaceOnUse" x="0" y="7" width="29" height="15">
    <rect y="7" width="29" height="15" fill="#D9D9D9"/>
  </mask>
  <g mask="url(#mask0_1974_42574)">
    <path d="M14.4986 22.1727V11.4358M14.4986 11.4358C15.0651 10.7417 17.1807 8.93359 19.2074 8.93359C21.2342 8.93359 22.7203 10.1372 22.7203 12.1087C22.7203 14.0803 21.6398 17.3585 17.7873 22.1727M14.4986 11.4358C13.9322 10.7417 11.8398 8.93359 9.78986 8.93359C7.7399 8.93359 6.27696 10.1372 6.27696 12.1087C6.27696 14.0803 7.38892 17.3585 11.21 22.1727M22.7951 11.6968C25.1679 11.6968 26.009 12.7874 26.009 14.7721C26.009 16.7567 23.7767 20.1133 21.6241 22.1727M6.27696 11.6968C3.90419 11.6968 2.98828 12.7874 2.98828 14.7721C2.98828 16.7567 5.22059 20.1133 7.37318 22.1727" stroke="black"/>
  </g>
</svg>
