<svg width="100%" height="100%" viewBox="0 0 43 46" fill="none" xmlns="http://www.w3.org/2000/svg">
  <path d="M21.502 0.551033V3.35538M21.502 7.09451L21.5038 9.89749M26.176 5.22495H23.3716M19.6325 5.22495H16.8281" stroke="black"/>
  <ellipse cx="21.4997" cy="13.2809" rx="2.80435" ry="2.80435" stroke="black"/>
  <path d="M7.46484 39.3281H35.5158" stroke="black"/>
  <path d="M7.46484 36.3633H35.5158" stroke="black"/>
  <path d="M7.46484 42.293H35.5158" stroke="black"/>
  <mask id="mask0_1978_43639" style="mask-type:alpha" maskUnits="userSpaceOnUse" x="0" y="10" width="43" height="23">
    <rect y="10.4141" width="43" height="22.2414" fill="#D9D9D9"/>
  </mask>
  <g mask="url(#mask0_1978_43639)">
    <path d="M21.5007 32.9117V16.9914M21.5007 16.9914C22.3406 15.9622 25.4775 13.2812 28.4827 13.2812C31.4878 13.2812 33.6915 15.0658 33.6915 17.9892C33.6915 20.9126 32.0894 25.7733 26.377 32.9117M21.5007 16.9914C20.6607 15.9622 17.5583 13.2812 14.5187 13.2812C11.4791 13.2813 9.3099 15.0658 9.3099 17.9892C9.3099 20.9126 10.9587 25.7733 16.6244 32.9117M33.8023 17.3785C37.3206 17.3785 38.5678 18.9956 38.5678 21.9383C38.5678 24.8811 35.2578 29.858 32.066 32.9117M9.3099 17.3785C5.79167 17.3785 4.43359 18.9956 4.43359 21.9383C4.43359 24.8811 7.74357 29.858 10.9353 32.9117" stroke="black"/>
  </g>
</svg>
