<svg class="ds-icon" width="29" height="29" viewBox="0 0 29 29" fill="none" xmlns="http://www.w3.org/2000/svg">
  <g stroke="var(--ds-icon-color, black)" stroke-linejoin="round" stroke-linecap="round" stroke-width="var(--ds-icon-stroke, 1)">
    <path d="M14.5 2C16.15 2 17.5 3.34 17.5 5C17.5 6.66 16.15 8 14.5 8C12.84 8 11.5 6.66 11.5 5C11.5 3.34 12.84 2 14.5 2Z"/>
    <path d="M14.5 9.5C15.5 9.5 16.49 9.37 17.45 9.11L22.62 7.73C23.55 7.48 24.51 8.03 24.76 8.96C25.01 9.9 24.46 10.86 23.52 11.11L17.82 12.65C17.78 12.66 17.75 12.7 17.75 12.74V14.49C17.75 15.8 18.12 17.09 18.81 18.2L22.73 24.46C23.28 25.42 22.95 26.64 22 27.2C21.04 27.75 19.82 27.42 19.26 26.46L14.5 19L9.73 26.46C9.18 27.42 7.95 27.75 7 27.2C6.04 26.64 5.71 25.42 6.26 24.46L10.18 18.2C10.88 17.09 11.25 15.8 11.25 14.49V12.73C11.25 12.69 11.22 12.65 11.17 12.64L5.47 11.11C4.54 10.86 3.98 9.9 4.23 8.96C4.48 8.03 5.44 7.48 6.38 7.73L11.54 9.11C12.5 9.37 13.5 9.5 14.5 9.5Z"/>
  </g>
</svg>