<svg class="ds-icon" width="29" height="29" viewBox="0 0 29 29" fill="none" xmlns="http://www.w3.org/2000/svg">
  <g stroke="var(--ds-icon-color, black)" stroke-linejoin="round" stroke-linecap="round" stroke-width="var(--ds-icon-stroke, 1)">
    <path d="M14.4969 2C16.152 2 17.4969 3.34483 17.4969 5C17.4969 6.65517 16.152 8 14.4969 8C12.8417 8 11.4969 6.65517 11.4969 5C11.4969 3.34483 12.8417 2 14.4969 2Z"/>
    <path d="M14.4969 9.50005C15.4955 9.50005 16.4899 9.36914 17.4545 9.11067L22.6185 7.72698C23.552 7.47684 24.5116 8.03086 24.7618 8.96442C25.0119 9.89799 24.4579 10.8576 23.5244 11.1077L17.8208 12.6477C17.7772 12.6595 17.7469 12.699 17.7469 12.7442V14.491C17.7469 15.8039 18.1161 17.0904 18.8124 18.2035L22.7289 24.4641C23.2812 25.4207 22.9534 26.6439 21.9969 27.1961C21.0403 27.7484 19.8171 27.4207 19.2648 26.4641L14.4969 19L9.72891 26.4641C9.17663 27.4207 7.95344 27.7484 6.99686 27.1961C6.04027 26.6439 5.71252 25.4207 6.26481 24.4641L10.1813 18.2034C10.8777 17.0903 11.2469 15.8038 11.2469 14.4909V12.7325C11.2469 12.6873 11.2165 12.6477 11.1728 12.6359L5.46938 11.1077C4.53581 10.8576 3.98179 9.89799 4.23194 8.96443C4.48209 8.03086 5.44168 7.47684 6.37524 7.72699L11.5392 9.11067C12.5038 9.36914 13.4982 9.50005 14.4969 9.50005Z"/>
  </g>
</svg>