<svg class="ds-icon" width="29" height="29" viewBox="0 0 29 29" fill="none" xmlns="http://www.w3.org/2000/svg">
  <g stroke="var(--ds-icon-color, black)">
    <path d="M26.5 3.5C26.5 2.94772 26.0523 2.5 25.5 2.5H17.5C16.9477 2.5 16.5 2.94772 16.5 3.5V11.5C16.5 12.0523 16.9477 12.5 17.5 12.5H25.5C26.0523 12.5 26.5 12.0523 26.5 11.5V3.5Z"/>
    <path d="M26.5 17.5C26.5 16.9477 26.0523 16.5 25.5 16.5H17.5C16.9477 16.5 16.5 16.9477 16.5 17.5V25.5C16.5 26.0523 16.9477 26.5 17.5 26.5H25.5C26.0523 26.5 26.5 26.0523 26.5 25.5V17.5Z"/>
    <path d="M12.5 3.5C12.5 2.94772 12.0523 2.5 11.5 2.5H3.5C2.94772 2.5 2.5 2.94772 2.5 3.5V11.5C2.5 12.0523 2.94772 12.5 3.5 12.5H11.5C12.0523 12.5 12.5 12.0523 12.5 11.5V3.5Z"/>
    <path d="M12.5 17.5C12.5 16.9477 12.0523 16.5 11.5 16.5H3.5C2.94772 16.5 2.5 16.9477 2.5 17.5V25.5C2.5 26.0523 2.94772 26.5 3.5 26.5H11.5C12.0523 26.5 12.5 26.0523 12.5 25.5V17.5Z"/>
  </g>
</svg>