<svg class="ds-icon" width="29" height="29" viewBox="0 0 29 29" fill="none" xmlns="http://www.w3.org/2000/svg">
  <g stroke="var(--ds-icon-color, black)" stroke-linejoin="round" stroke-linecap="round" stroke-width="var(--ds-icon-stroke, 1)">
    <path d="M26.5 3.5C26.5 2.95 26.05 2.5 25.5 2.5H17.5C16.95 2.5 16.5 2.95 16.5 3.5V11.5C16.5 12.05 16.95 12.5 17.5 12.5H25.5C26.05 12.5 26.5 12.05 26.5 11.5V3.5Z"/>
    <path d="M26.5 17.5C26.5 16.95 26.05 16.5 25.5 16.5H17.5C16.95 16.5 16.5 16.95 16.5 17.5V25.5C16.5 26.05 16.95 26.5 17.5 26.5H25.5C26.05 26.5 26.5 26.05 26.5 25.5V17.5Z"/>
    <path d="M12.5 3.5C12.5 2.95 12.05 2.5 11.5 2.5H3.5C2.95 2.5 2.5 2.95 2.5 3.5V11.5C2.5 12.05 2.95 12.5 3.5 12.5H11.5C12.05 12.5 12.5 12.05 12.5 11.5V3.5Z"/>
    <path d="M12.5 17.5C12.5 16.95 12.05 16.5 11.5 16.5H3.5C2.95 16.5 2.5 16.95 2.5 17.5V25.5C2.5 26.05 2.95 26.5 3.5 26.5H11.5C12.05 26.5 12.5 26.05 12.5 25.5V17.5Z"/>
  </g>
</svg>