<svg class="ds-icon" width="29" height="29" viewBox="0 0 29 29" fill="none" xmlns="http://www.w3.org/2000/svg">
  <g stroke="var(--ds-icon-color, black)" stroke-linejoin="round" stroke-linecap="round" stroke-width="var(--ds-icon-stroke, 1)">
    <path d="M21.5 7V5.5C21.5 4.94772 21.0523 4.5 20.5 4.5H7.5C6.94772 4.5 6.5 4.94772 6.5 5.5V23.5C6.5 24.0523 6.94772 24.5 7.5 24.5H12M16.5 4V2.5C16.5 1.94772 16.0523 1.5 15.5 1.5H2.5C1.94772 1.5 1.5 1.94772 1.5 2.5V20.5C1.5 21.0523 1.94772 21.5 2.5 21.5H6M13.5 7.5H26.5C27.0523 7.5 27.5 7.94772 27.5 8.5V26.5C27.5 27.0523 27.0523 27.5 26.5 27.5H13.5C12.9477 27.5 12.5 27.0523 12.5 26.5V8.5C12.5 7.94772 12.9477 7.5 13.5 7.5Z"/>
  </g>
</svg>