<svg class="ds-icon" width="29" height="29" viewBox="0 0 29 29" fill="none" xmlns="http://www.w3.org/2000/svg">
  <g stroke="var(--ds-icon-color, black)" stroke-linejoin="round" stroke-linecap="round" stroke-width="var(--ds-icon-stroke, 1)">
    <path d="M16.5 14.5C16.5 15.6 15.6 16.5 14.5 16.5C13.4 16.5 12.5 15.6 12.5 14.5C12.5 13.4 13.4 12.5 14.5 12.5C15.6 12.5 16.5 13.4 16.5 14.5Z"/>
    <path d="M27.5 14.5C27.5 15.6 26.6 16.5 25.5 16.5C24.4 16.5 23.5 15.6 23.5 14.5C23.5 13.4 24.4 12.5 25.5 12.5C26.6 12.5 27.5 13.4 27.5 14.5Z"/>
    <path d="M5.5 14.5C5.5 15.6 4.6 16.5 3.5 16.5C2.4 16.5 1.5 15.6 1.5 14.5C1.5 13.4 2.4 12.5 3.5 12.5C4.6 12.5 5.5 13.4 5.5 14.5Z"/>
  </g>
</svg>