<svg class="ds-icon" width="29" height="29" viewBox="0 0 29 29" fill="none" xmlns="http://www.w3.org/2000/svg">
  <g stroke="var(--ds-icon-color, black)" stroke-linejoin="round" stroke-linecap="round" stroke-width="var(--ds-icon-stroke, 1)">
    <path d="M18.5 3.5H22.5C23.03 3.5 23.54 3.71 23.91 4.09C24.29 4.46 24.5 4.97 24.5 5.5V24.5C24.5 25.03 24.29 25.54 23.91 25.91C23.54 26.29 23.03 26.5 22.5 26.5H6.5C5.97 26.5 5.46 26.29 5.09 25.91C4.71 25.54 4.5 25.03 4.5 24.5V5.5C4.5 4.97 4.71 4.46 5.09 4.09C5.46 3.71 5.97 3.5 6.5 3.5H10.5M11.5 1.5H17.5C18.05 1.5 18.5 1.95 18.5 2.5V4.5C18.5 5.05 18.05 5.5 17.5 5.5H11.5C10.95 5.5 10.5 5.05 10.5 4.5V2.5C10.5 1.95 10.95 1.5 11.5 1.5Z"/>
  </g>
</svg>