<svg class="ds-icon" width="29" height="29" viewBox="0 0 29 29" fill="none" xmlns="http://www.w3.org/2000/svg">
  <g stroke="var(--ds-icon-color, black)" stroke-linejoin="round" stroke-linecap="round" stroke-width="var(--ds-icon-stroke, 1)">
    <path d="M18.5 3.5H22.5C23.0304 3.5 23.5391 3.71071 23.9142 4.08579C24.2893 4.46086 24.5 4.96957 24.5 5.5V24.5C24.5 25.0304 24.2893 25.5391 23.9142 25.9142C23.5391 26.2893 23.0304 26.5 22.5 26.5H6.5C5.96957 26.5 5.46086 26.2893 5.08579 25.9142C4.71071 25.5391 4.5 25.0304 4.5 24.5V5.5C4.5 4.96957 4.71071 4.46086 5.08579 4.08579C5.46086 3.71071 5.96957 3.5 6.5 3.5H10.5M11.5 1.5H17.5C18.0523 1.5 18.5 1.94772 18.5 2.5V4.5C18.5 5.05228 18.0523 5.5 17.5 5.5H11.5C10.9477 5.5 10.5 5.05228 10.5 4.5V2.5C10.5 1.94772 10.9477 1.5 11.5 1.5Z"/>
  </g>
</svg>