<svg class="ds-icon" width="31" height="31" viewBox="0 0 31 31" fill="none" xmlns="http://www.w3.org/2000/svg">
  <circle cx="15.5" cy="15.5" r="15" fill="var(--c8, black)" stroke="var(--white, white)"/>
  <path id="west" d="M3.89844 16.7888L7.12066 15.4999L3.89844 14.2111" stroke="white" stroke-linecap="round" stroke-linejoin="round"/>
  <path id="east" d="M23.875 16.7887L27.0972 14.2109M25.8083 16.7887H25.1639C24.4521 16.7887 23.875 16.2117 23.875 15.4998C23.875 14.788 24.4521 14.2109 25.1639 14.2109H25.8083C26.5202 14.2109 27.0972 14.788 27.0972 15.4998C27.0972 16.2117 26.5202 16.7887 25.8083 16.7887Z" stroke="var(--white, white)" stroke-linecap="round" stroke-linejoin="round"/>
  <path id="south" d="M14.2109 26.4567C14.2109 26.8126 14.4995 27.1011 14.8554 27.1011H16.0649C16.4647 27.1011 16.7887 26.7771 16.7887 26.3773C16.7887 26.0452 16.5627 25.7557 16.2405 25.6752L14.7592 25.3049C14.437 25.2243 14.2109 24.9348 14.2109 24.6027C14.2109 24.203 14.535 23.8789 14.9347 23.8789H16.1443C16.5002 23.8789 16.7887 24.1674 16.7887 24.5233" stroke="var(--white, white)" stroke-linejoin="round"/>
  <path id="north" d="M14.2109 7.12066L14.221 3.89844L16.7887 7.12066V3.89844" stroke="var(--white, white)" stroke-linecap="round" stroke-linejoin="round"/>
  <path id="north-pointer" d="M12.125 15.4866C12.123 15.02 12.2851 14.7222 12.452 14.405L14.9592 9.3996C15.1515 8.99445 15.8021 9.00912 15.985 9.37111L18.6295 14.6545C18.7329 14.8657 18.8459 15.1589 18.8383 15.4908L17.2054 15.4912C17.2054 15.4912 17.1229 13.783 15.49 13.7723C13.8571 13.7616 13.7532 15.4859 13.7532 15.4859L12.125 15.4866Z" fill="var(--r5, red)"/>
  <path id="south-pointer" d="M12.1172 15.4968C12.1152 15.9635 12.2773 16.2613 12.4441 16.5784L14.9514 21.5838C15.1437 21.989 15.7943 21.9743 15.9772 21.6123L18.6217 16.329C18.7251 16.1177 18.8381 15.8246 18.8305 15.4926L17.1976 15.4922C17.1976 15.4922 17.1151 17.2004 15.4822 17.2111C13.8493 17.2218 13.7453 15.4975 13.7453 15.4975L12.1172 15.4968Z" fill="var(--white, white)"/>
  <path d="M5.1875 5.1875L7.76528 7.76528M25.8097 5.1875L23.2319 7.76528M25.8097 25.8097L23.2319 23.2319M5.1875 25.8097L7.76528 23.2319" stroke="white" stroke-linecap="round" stroke-linejoin="round"/>
</svg>