<svg class="ds-icon" width="29" height="29" viewBox="0 0 29 29" fill="none" xmlns="http://www.w3.org/2000/svg">
  <g stroke="var(--ds-icon-color, black)" stroke-linejoin="round" stroke-linecap="round" stroke-width="var(--ds-icon-stroke, 1)">
    <path d="M14.67 3.75C14.56 4.06 14.5 4.39 14.5 4.73C14.5 5.5 14.79 6.19 15.27 6.71C14.78 7.57 14.5 8.57 14.5 9.63C14.5 12.87 17.13 15.5 20.38 15.5C21.44 15.5 22.43 15.22 23.29 14.73C23.81 15.21 24.51 15.5 25.27 15.5C25.62 15.5 25.94 15.44 26.25 15.33C26.25 15.39 26.25 15.44 26.25 15.5C26.25 21.99 20.99 27.25 14.5 27.25C8.01 27.25 2.75 21.99 2.75 15.5C2.75 9.01 8.01 3.75 14.5 3.75C14.56 3.75 14.61 3.75 14.67 3.75Z"/>
    <circle cx="19.5" cy="20.2" r="1.4"/>
    <circle cx="13" cy="16.2" r="1.1"/>
    <circle cx="9.2" cy="20.6" r="1.3"/>
    <circle cx="10.5" cy="10.7" r="1.2"/>
    <circle cx="8.25" cy="14.6" r="1.5"/>
    <circle cx="23" cy="4.2" r="1.6"/>
    <circle cx="20" cy="7.4" r="1.2"/>
    <circle cx="25.5" cy="10.9" r="1.3"/>
  </g>
</svg>