<svg class="ds-icon" width="29" height="29" viewBox="0 0 29 29" fill="none" xmlns="http://www.w3.org/2000/svg">
  <g stroke="var(--ds-icon-color, black)" stroke-linejoin="round" stroke-width="var(--ds-icon-stroke, 1)">
    <path d="M5.48 24.5H23.51M5.48 26.5H23.51M5.48 22.5H23.51M14.5 0.5V2M14.5 5V6M17.5 3.5H16M13 3.5H11.5M14.5 9.68C15.5 9 16.5 7.5 19.5 7.51C21.74 7.52 23.18 8.31 23.45 10.28M14.5 9.68C13.5 9 12.5 7.53 9.5 7.51C7.25 7.5 5.82 8.3 5.54 10.28M14.5 9.68V20M23.45 10.28C23.48 10.5 23.5 10.74 23.5 11C23.5 14.2 21.94 16.39 19.23 20M23.45 10.28C25.67 10.28 26.7 11.5 26.7 13.5C26.7 15.16 25.19 17.75 23.51 20M5.54 10.28C5.51 10.5 5.5 10.74 5.5 11C5.5 14.2 7.07 16.39 9.77 20M5.54 10.28C3.24 10.28 2.3 11.49 2.3 13.49C2.3 15.16 3.8 17.75 5.48 20M16 7.75C16 8.58 15.33 9.25 14.5 9.25C13.67 9.25 13 8.58 13 7.75C13 6.92 13.67 6.25 14.5 6.25C15.33 6.25 16 6.92 16 7.75Z"/>
  </g>
</svg>