<svg class="ds-icon" width="29" height="29" viewBox="0 0 29 29" fill="none" xmlns="http://www.w3.org/2000/svg">
  <g stroke="var(--ds-icon-color, black)" stroke-linejoin="round" stroke-linecap="round" stroke-width="var(--ds-icon-stroke, 1)">
    <path d="M5.48307 24.5H23.5107M5.48307 26.5H23.5107M5.48307 22.5H23.5107M14.5037 0.5V2M14.5037 5V6M17.5 3.49983H16.0039M13.0039 3.49983H11.5M14.4967 9.6804C15.4961 9.0001 16.4961 7.5001 19.4967 7.51182C21.7385 7.52058 23.1768 8.30869 23.4494 10.275M14.4967 9.6804C13.4961 9.0001 12.4961 7.52588 9.49673 7.51182C7.25359 7.50131 5.81613 8.30488 5.54388 10.275M14.4967 9.6804V20M23.4494 10.275C23.4808 10.5009 23.4967 10.7424 23.4967 11.0001C23.4967 14.2017 21.9433 16.3931 19.2336 20M23.4494 10.275C25.6734 10.275 26.6967 11.5001 26.6967 13.5001C26.6967 15.1588 25.1899 17.7483 23.5107 20M5.54388 10.275C5.51262 10.5011 5.49673 10.7427 5.49673 11.0001C5.49673 14.2017 7.07146 16.3931 9.77268 20M5.54388 10.275C3.24086 10.275 2.29688 11.49 2.29688 13.49C2.29688 15.1555 3.8038 17.7474 5.48307 20M16 7.75C16 8.57843 15.3284 9.25 14.5 9.25C13.6716 9.25 13 8.57843 13 7.75C13 6.92157 13.6716 6.25 14.5 6.25C15.3284 6.25 16 6.92157 16 7.75Z"/>
  </g>
</svg>