<svg class="ds-icon" width="29" height="29" viewBox="0 0 29 29" fill="none" xmlns="http://www.w3.org/2000/svg">
  <g stroke="var(--ds-icon-color, black)" stroke-linejoin="round" stroke-linecap="round" stroke-width="var(--ds-icon-stroke, 1)">
    <path d="M5.79594 26.0981H23.1959M5.79594 22.2315H23.1959M14.4959 0.964844V1.93151M14.4959 4.83151V5.31484M14.496 9.18188C15.4518 8.52451 16.4596 6.72314 19.3294 6.73446C21.4734 6.74292 22.7976 7.50447 23.0584 9.4045M14.496 9.18188C13.539 8.52451 12.5313 6.74804 9.66276 6.73446C7.51743 6.7243 6.19393 7.50079 5.93355 9.4045M14.496 9.18188V18.8018M23.0584 9.4045C23.0883 9.62284 23.1036 9.8562 23.1036 10.1052C23.1036 13.1989 21.6179 15.3164 19.0263 18.8018M23.0584 9.4045C25.1853 9.4045 26.1641 10.5883 26.1641 12.5209C26.1641 14.1237 24.7229 16.6259 23.117 18.8018M5.93355 9.4045C5.90366 9.62304 5.88845 9.85643 5.88845 10.1052C5.88845 13.1989 7.39452 15.3164 9.97796 18.8018M5.93355 9.4045C3.73095 9.4045 2.82812 10.5786 2.82812 12.5112C2.82812 14.1206 4.26935 16.6251 5.87539 18.8018M16.9128 3.38171H15.9461M13.0461 3.38171H12.0794M16.0051 7.14453C16.0051 7.97767 15.3297 8.65306 14.4966 8.65306C13.6634 8.65306 12.988 7.97767 12.988 7.14453C12.988 6.31139 13.6634 5.63601 14.4966 5.63601C15.3297 5.63601 16.0051 6.31139 16.0051 7.14453Z"/>
  </g>
</svg>