<svg class="ds-icon" width="29" height="29" viewBox="0 0 29 29" fill="none" xmlns="http://www.w3.org/2000/svg">
  <g stroke="var(--ds-icon-color, black)" stroke-linejoin="round" stroke-width="var(--ds-icon-stroke, 1)">
    <path d="M5.8 26.1H23.2M5.8 22.23H23.2M14.5 0.96V1.93M14.5 4.83V5.31M14.5 9.18C15.45 8.52 16.46 6.72 19.33 6.73C21.47 6.74 22.8 7.5 23.06 9.4M14.5 9.18C13.54 8.52 12.53 6.75 9.66 6.73C7.52 6.72 6.19 7.5 5.93 9.4M14.5 9.18V18.8M23.06 9.4C23.09 9.62 23.1 9.86 23.1 10.11C23.1 13.2 21.62 15.32 19.03 18.8M23.06 9.4C25.19 9.4 26.16 10.59 26.16 12.52C26.16 14.12 24.72 16.63 23.12 18.8M5.93 9.4C5.9 9.62 5.89 9.86 5.89 10.11C5.89 13.2 7.39 15.32 9.98 18.8M5.93 9.4C3.73 9.4 2.83 10.58 2.83 12.51C2.83 14.12 4.27 16.63 5.88 18.8M16.91 3.38H15.95M13.05 3.38H12.08M16.01 7.14C16.01 7.98 15.33 8.65 14.5 8.65C13.66 8.65 12.99 7.98 12.99 7.14C12.99 6.31 13.66 5.64 14.5 5.64C15.33 5.64 16.01 6.31 16.01 7.14Z"/>
  </g>
</svg>