<svg class="ds-icon" width="29" height="29" viewBox="0 0 29 29" fill="none" xmlns="http://www.w3.org/2000/svg">
  <g stroke="var(--ds-icon-color, black)" stroke-linejoin="round" stroke-linecap="round" stroke-width="var(--ds-icon-stroke, 1)">
    <path d="M15 26.54C22.18 26.54 28 20.93 28 14.02C28 7.1 22.18 1.5 15 1.5C7.82 1.5 2 7.1 2 14.02C2 16.2 2.58 18.25 3.59 20.03L1 27.5L8.77 25.01C10.62 25.98 12.74 26.54 15 26.54Z"/>
    <path d="M16 18.5V14.5M16 10.5V14.5M16 14.5H17M20 10.5L17 14.5M20 18.5L17 14.5"/>
    <path d="m 9.63,10.5 c -0.12,0.03 -0.13,0.04 -0.13,0.16 0,2.56 0,5.12 0,7.67 0,0.15 0.01,0.16 0.16,0.16 0.58,0.01 1.15,0.01 1.73,0 0.31,0 0.62,-0.04 0.91,-0.16 0.3,-0.13 0.53,-0.34 0.69,-0.61 0.19,-0.32 0.29,-0.68 0.35,-1.04 0.03,-0.19 0.06,-0.38 0.09,-0.58 0.01,-0.13 0.02,-0.26 0.03,-0.39 0.04,-0.57 0.02,-1.14 0.02,-1.72 0,-0.19 0,-0.38 -0.02,-0.57 -0.03,-0.38 -0.06,-0.76 -0.13,-1.13 -0.08,-0.39 -0.19,-0.77 -0.41,-1.11 -0.23,-0.33 -0.54,-0.52 -0.93,-0.61 -0.24,-0.05 -0.48,-0.07 -0.72,-0.07 -0.55,0 -1.09,0 -1.63,0"/>
  </g>
</svg>