<svg class="ds-icon" width="29" height="29" viewBox="0 0 29 29" fill="none" xmlns="http://www.w3.org/2000/svg">
  <path d="M15 26.537C22.1797 26.537 28 20.9323 28 14.0185C28 7.10472 22.1797 1.5 15 1.5C7.8203 1.5 2 7.10472 2 14.0185C2 16.1976 2.57821 18.2467 3.59495 20.0313L1 27.5L8.76855 25.0078C10.6188 25.9827 12.7422 26.537 15 26.537Z" stroke="var(--ds-icon-color, black)"/>
  <path d="M16 18.5V14.5M16 10.5V14.5M16 14.5H17M20 10.5L17 14.5M20 18.5L17 14.5" stroke="var(--ds-icon-color, black)" stroke-linecap="round" stroke-linejoin="round"/>
  <path d="M10.1279 10.5006C10.0107 10.5302 10.0001 10.5426 10.0001 10.6639C10.0001 13.2206 9.9995 15.7772 10.0013 18.3339C10.0013 18.4759 10.0072 18.4937 10.1634 18.4949C10.7387 18.5008 11.3139 18.5026 11.8892 18.4949C12.1999 18.4907 12.5059 18.4505 12.7994 18.3292C13.1042 18.2031 13.3297 17.9936 13.493 17.7154C13.6812 17.3953 13.7765 17.0414 13.841 16.6792C13.8747 16.4886 13.9025 16.2963 13.9262 16.1039C13.9422 15.972 13.9457 15.8388 13.9558 15.7062C14.0002 15.1363 13.9813 14.5652 13.983 13.9947C13.983 13.8029 13.9765 13.6106 13.9617 13.4194C13.9321 13.0413 13.9025 12.6625 13.8268 12.2903C13.7475 11.9002 13.6433 11.5191 13.4173 11.1812C13.1935 10.8462 12.8757 10.6604 12.4928 10.5716C12.2549 10.5166 12.0123 10.5006 11.7684 10.5C11.224 10.5 10.6795 10.5 10.135 10.5" stroke="var(--ds-icon-color, black)" stroke-linecap="round" stroke-linejoin="round"/>
</svg>