<svg class="ds-icon" width="29" height="29" viewBox="0 0 29 29" fill="none" xmlns="http://www.w3.org/2000/svg">
  <g stroke="var(--ds-icon-color, black)" stroke-linejoin="round" stroke-linecap="round" stroke-width="var(--ds-icon-stroke, 1)">
    <path d="M2.5 10.5V3.5C2.5 2.94772 2.94772 2.5 3.5 2.5H25.5C26.0523 2.5 26.5 2.94772 26.5 3.5V10.5M2.5 10.5H26.5M2.5 10.5L2.50017 18.5002M26.5 10.5L26.5002 18.5002M2.50017 18.5002H26.5002M2.50017 18.5002V25.5002C2.50017 26.0525 2.94789 26.5002 3.50017 26.5002H25.5002C26.0525 26.5002 26.5002 26.0525 26.5002 25.5002V18.5002M8.00012 6.50024C8.00012 6.77639 7.77626 7.00024 7.50012 7.00024C7.22398 7.00024 7.00012 6.77639 7.00012 6.50024C7.00012 6.2241 7.22398 6.00024 7.50012 6.00024C7.77626 6.00024 8.00012 6.2241 8.00012 6.50024ZM8.00012 14.5002C8.00012 14.7764 7.77626 15.0002 7.50012 15.0002C7.22398 15.0002 7.00012 14.7764 7.00012 14.5002C7.00012 14.2241 7.22398 14.0002 7.50012 14.0002C7.77626 14.0002 8.00012 14.2241 8.00012 14.5002ZM8.00012 22.5002C8.00012 22.7764 7.77626 23.0002 7.50012 23.0002C7.22398 23.0002 7.00012 22.7764 7.00012 22.5002C7.00012 22.2241 7.22398 22.0002 7.50012 22.0002C7.77626 22.0002 8.00012 22.2241 8.00012 22.5002Z"/>
  </g>
</svg>