<svg class="ds-icon" width="29" height="29" viewBox="0 0 29 29" fill="none" xmlns="http://www.w3.org/2000/svg">
  <g stroke="var(--ds-icon-color, black)" stroke-linejoin="round" stroke-linecap="round" stroke-width="var(--ds-icon-stroke, 1)">
    <path d="M2.5 10.5V3.5C2.5 2.95 2.95 2.5 3.5 2.5H25.5C26.05 2.5 26.5 2.95 26.5 3.5V10.5M2.5 10.5H26.5M2.5 10.5L2.5 18.5M26.5 10.5L26.5 18.5M2.5 18.5H26.5M2.5 18.5V25.5C2.5 26.05 2.95 26.5 3.5 26.5H25.5C26.05 26.5 26.5 26.05 26.5 25.5V18.5M8 6.5C8 6.78 7.78 7 7.5 7C7.22 7 7 6.78 7 6.5C7 6.22 7.22 6 7.5 6C7.78 6 8 6.22 8 6.5ZM8 14.5C8 14.78 7.78 15 7.5 15C7.22 15 7 14.78 7 14.5C7 14.22 7.22 14 7.5 14C7.78 14 8 14.22 8 14.5ZM8 22.5C8 22.78 7.78 23 7.5 23C7.22 23 7 22.78 7 22.5C7 22.22 7.22 22 7.5 22C7.78 22 8 22.22 8 22.5Z"/>
  </g>
</svg>