<svg class="ds-icon" width="29" height="29" viewBox="0 0 29 29" fill="none" xmlns="http://www.w3.org/2000/svg">
  <g stroke="var(--ds-icon-color, black)" stroke-linejoin="round" stroke-linecap="round" stroke-width="var(--ds-icon-stroke, 1)" stroke-miterlimit="10">
    <path d="M22.31 28C21.57 27.3 20.55 27.72 19.74 27.5C19.28 26.92 18.64 26.84 18.01 26.71C17.63 26.63 17.22 26.57 17.74 26.09C17.84 25.7 17.39 25.37 17.93 25.09C19.44 23.97 19.52 26.96 21.13 25.17C21.81 24.83 23 25.14 23.46 25.74C23.52 25.87 23.38 26.18 23.23 26.29C22.5 26.65 22.76 27.68 22.31 28Z"/>
    <path d="M12.3 16.91C13.72 17.7 12.57 18.64 11.35 18.38C12.04 19.35 11.24 19.64 10.64 20.01C11.74 21.35 9.91 22.9 10.5 24.17C12.23 24.97 10.75 25.64 9.67 25.98C8.5 26.58 7.73 25.09 6.49 25.2C3.4 24.62 8.08 22.16 4.23 19.55C3.83 19.95 3.46 19.76 3.11 19.35C2.65 18.76 3.74 16.9 4.21 16.38C5.5 15.51 2.47 14.64 3.34 12.63C3.78 8.34 5.34 4.79 10.27 5.57C13.19 4.67 10.03 2 15.76 1C14.98 1.96 15.35 2.95 15.62 3.9C16.05 6.68 12.91 8.02 14.86 11.14C15.39 11.99 17.97 10.95 17.54 12.5C17.03 13.71 15.83 16.29 14.99 13.83C13.88 13.94 14.28 15.5 14.28 16.27C14.32 17.7 12.57 16.26 12.27 16.91H12.3Z"/>
    <path d="M19.18 22.68C18.85 22.21 18.06 21.86 18.4 21.19C18.53 20.12 17.44 19.14 17.42 18.08C19.19 18.34 19.46 16.2 20.93 16.11C22.02 16.63 20.12 18.1 22.41 18.61C23.83 18.82 22.24 16.45 22.49 15.71C23.09 14.24 25.81 14.86 25.52 16.53C25.56 17.09 25.94 17.65 26.04 18.21C26.64 20.46 24.42 18.46 23.87 20.7C24.79 21 25.93 21.71 24.63 22.39C22.96 22.51 24.1 24.74 22.75 24.77C21.11 24.41 21.33 22.17 19.2 22.7L19.18 22.68Z"/>
    <path d="M15.63 25.12C15.23 24.15 14.27 24.22 13.63 23.76C13.16 23 12.65 22.85 12.5 22C12.26 20.72 12.5 20 13.18 19.71C14.21 19.14 15 19.5 15 19.5C15.2 19.5 15.5 19.5 15.87 19.71C17.42 20.76 16.92 23.9 15.63 25.12Z"/>
  </g>
</svg>