<svg width="29" height="29" viewBox="0 0 29 29" fill="none" xmlns="http://www.w3.org/2000/svg">
  <g transform="rotate(180 15 15)">
    <path d="M4.5 28L4.03113 27.8263C3.96123 28.0151 4.01129 28.2273 4.15815 28.3649C4.30502 28.5025 4.52006 28.5386 4.70383 28.4566L4.5 28ZM14.5 1L14.9689 0.826343C14.8962 0.630197 14.7092 0.5 14.5 0.5C14.2908 0.5 14.1038 0.630197 14.0311 0.826343L14.5 1ZM24.5 28L24.2962 28.4566C24.4799 28.5386 24.695 28.5025 24.8418 28.3649C24.9887 28.2273 25.0388 28.0151 24.9689 27.8263L24.5 28ZM15 18.5C15 18.2239 14.7761 18 14.5 18C14.2239 18 14 18.2239 14 18.5H15ZM4.96887 28.1737L14.9689 1.17366L14.0311 0.826343L4.03113 27.8263L4.96887 28.1737ZM14.0311 1.17366L24.0311 28.1737L24.9689 27.8263L14.9689 0.826343L14.0311 1.17366ZM24.7038 27.5434L14.7038 23.0791L14.2962 23.9922L24.2962 28.4566L24.7038 27.5434ZM14.2962 23.0791L4.29617 27.5434L4.70383 28.4566L14.7038 23.9922L14.2962 23.0791ZM15 23.5357V18.5H14V23.5357H15Z" fill="var(--ds-icon-color, black)"/>
  </g>
</svg>