<svg class="ds-icon" width="29" height="29" viewBox="0 0 29 29" fill="none" xmlns="http://www.w3.org/2000/svg">
  <g transform="rotate(180 15 15)">
    <path d="M0.999878 4.50012L1.17354 4.03125C0.984815 3.96135 0.772584 4.01141 0.634992 4.15828C0.497401 4.30514 0.46127 4.52018 0.54331 4.70395L0.999878 4.50012ZM27.9999 14.5001L28.1735 14.969C28.3697 14.8963 28.4999 14.7093 28.4999 14.5001C28.4999 14.291 28.3697 14.1039 28.1735 14.0312L27.9999 14.5001ZM0.999878 24.5001L0.54331 24.2963C0.46127 24.4801 0.497401 24.6951 0.634992 24.842C0.772584 24.9888 0.984815 25.0389 1.17354 24.969L0.999878 24.5001ZM10.4999 15.0001C10.776 15.0001 10.9999 14.7763 10.9999 14.5001C10.9999 14.224 10.776 14.0001 10.4999 14.0001V15.0001ZM0.826221 4.969L27.8262 14.969L28.1735 14.0312L1.17354 4.03125L0.826221 4.969ZM27.8262 14.0312L0.826221 24.0312L1.17354 24.969L28.1735 14.969L27.8262 14.0312ZM1.45645 24.7039L5.92079 14.7039L5.00766 14.2963L0.54331 24.2963L1.45645 24.7039ZM5.92079 14.2963L1.45645 4.29629L0.54331 4.70395L5.00766 14.7039L5.92079 14.2963ZM5.46422 15.0001H10.4999V14.0001H5.46422V15.0001Z" fill="var(--ds-icon-color, black)"/>
  </g>
</svg>