<svg class="ds-icon" width="29" height="29" viewBox="0 0 29 29" fill="none" xmlns="http://www.w3.org/2000/svg">
  <g stroke="var(--ds-icon-color, black)" stroke-linejoin="round" stroke-linecap="round" stroke-width="var(--ds-icon-stroke, 1)">
    <path d="M 9.5,10.5 H 6.73 c 0,0 -0.27,0.12 -0.45,0.3 C 6.11,10.97 6,11.36 6,11.36 v 6.23 c 0,0 0.08,0.44 0.29,0.64 C 6.5,18.44 6.9,18.5 6.9,18.5 H 9.5"/>
    <path d="M 8.9,14.53 H 6.15"/>
    <path d="m 12,18.56 v -8.02 l 5,7.9 v -7.99"/>
    <path d="m 24.25,11.48 c 0,0 -0.03,-0.45 -0.27,-0.7 -0.24,-0.25 -0.68,-0.29 -0.68,-0.29 L 20.93,10.5 c 0,0 -0.45,0.09 -0.66,0.32 C 20.05,11.04 20,11.51 20,11.51 v 6.23 c 0,0 0.12,0.32 0.31,0.51 C 20.5,18.44 20.91,18.5 20.91,18.5 l 2.59,0.03 c 0,0 0.31,-0.14 0.51,-0.32 C 24.22,18.03 24.25,17.73 24.25,17.73 V 14.49 L 23,14.5"/>
    <path d="M15 26.54C22.18 26.54 28 20.93 28 14.02C28 7.1 22.18 1.5 15 1.5C7.82 1.5 2 7.1 2 14.02C2 16.2 2.58 18.25 3.59 20.03L1 27.5L8.77 25.01C10.62 25.98 12.74 26.54 15 26.54Z"/>
  </g>
</svg>