<svg class="ds-icon" width="29" height="29" viewBox="0 0 29 29" fill="none" xmlns="http://www.w3.org/2000/svg">
  <path d="M11.5 18.5C11.5 18.7761 11.7239 19 12 19C12.2761 19 12.5 18.7761 12.5 18.5H11.5ZM12 10.5L12.424 10.235C12.3058 10.0459 12.0766 9.95788 11.8622 10.0194C11.6477 10.0809 11.5 10.2769 11.5 10.5H12ZM17 18.5L16.576 18.765C16.6942 18.9541 16.9234 19.0421 17.1378 18.9806C17.3523 18.9191 17.5 18.7231 17.5 18.5H17ZM17.5 10.5C17.5 10.2239 17.2761 10 17 10C16.7239 10 16.5 10.2239 16.5 10.5H17.5ZM24.2927 14.5H24.7927V14H24.2927V14.5ZM24.6002 15C24.8764 15 25.1002 14.7761 25.1002 14.5C25.1002 14.2239 24.8764 14 24.6002 14V15ZM3.59495 20.0313L4.06726 20.1954L4.14175 19.981L4.02939 19.7838L3.59495 20.0313ZM8.76855 25.0078L9.00164 24.5654L8.81581 24.4675L8.61581 24.5317L8.76855 25.0078ZM1 27.5L0.527695 27.3359L0.198951 28.2821L1.15274 27.9761L1 27.5ZM9.70646 10H7V11H9.70646V10ZM7 19H9.70646V18H7V19ZM5.5 11.5V14.5H6.5V11.5H5.5ZM5.5 14.5V17.5H6.5V14.5H5.5ZM6 15H9V14H6V15ZM12.5 18.5V10.5H11.5V18.5H12.5ZM11.576 10.765L16.576 18.765L17.424 18.235L12.424 10.235L11.576 10.765ZM17.5 18.5V10.5H16.5V18.5H17.5ZM23.2927 10H21V11H23.2927V10ZM19.5 11.5V17.5H20.5V11.5H19.5ZM21 19H23.2927V18H21V19ZM24.7927 17.5V14.5H23.7927V17.5H24.7927ZM24.2927 14H23V15H24.2927V14ZM23.2927 19C24.1211 19 24.7927 18.3284 24.7927 17.5H23.7927C23.7927 17.7761 23.5688 18 23.2927 18V19ZM7 18C6.72386 18 6.5 17.7761 6.5 17.5H5.5C5.5 18.3284 6.17157 19 7 19V18ZM19.5 17.5C19.5 18.3284 20.1716 19 21 19V18C20.7239 18 20.5 17.7761 20.5 17.5H19.5ZM7 10C6.17157 10 5.5 10.6716 5.5 11.5H6.5C6.5 11.2239 6.72386 11 7 11V10ZM21 10C20.1716 10 19.5 10.6716 19.5 11.5H20.5C20.5 11.2239 20.7239 11 21 11V10ZM24.7927 11.5C24.7927 10.6716 24.1211 10 23.2927 10V11C23.5688 11 23.7927 11.2239 23.7927 11.5H24.7927ZM23.5 15H24.6002V14H23.5V15ZM27.5 14.0185C27.5 20.6385 21.9215 26.037 15 26.037V27.037C22.4379 27.037 28.5 21.226 28.5 14.0185H27.5ZM2.5 14.0185C2.5 7.39848 8.07849 2 15 2V1C7.56211 1 1.5 6.81096 1.5 14.0185H2.5ZM15 2C21.9215 2 27.5 7.39848 27.5 14.0185H28.5C28.5 6.81096 22.4379 1 15 1V2ZM4.02939 19.7838C3.05411 18.072 2.5 16.1079 2.5 14.0185H1.5C1.5 16.2874 2.10231 18.4215 3.16052 20.2788L4.02939 19.7838ZM15 26.037C12.8247 26.037 10.7812 25.5031 9.00164 24.5654L8.53546 25.4501C10.4564 26.4623 12.6596 27.037 15 27.037V26.037ZM1.4723 27.6641L4.06726 20.1954L3.12265 19.8672L0.527695 27.3359L1.4723 27.6641ZM8.61581 24.5317L0.847262 27.0239L1.15274 27.9761L8.92129 25.4839L8.61581 24.5317Z" fill="var(--ds-icon-color, black)"/>
</svg>