<svg class="ds-icon" width="29" height="29" viewBox="0 0 29 29" fill="none" xmlns="http://www.w3.org/2000/svg">
  <g stroke="var(--ds-icon-color, black)" stroke-linejoin="round" stroke-linecap="round" stroke-width="var(--ds-icon-stroke, 1)">
    <path d="M 9.5,10.5 H 6.7344668 c 0,0 -0.2683378,0.124359 -0.4453998,0.29624 C 6.112005,10.968121 6,11.363 6,11.363 v 6.234 c 0,0 0.078108,0.442768 0.2911766,0.641159 C 6.5042456,18.436549 6.9049802,18.5 6.9049802,18.5 H 9.5"/>
    <path d="M 8.899233,14.526176 H 6.1526803"/>
    <path d="m 12,18.556 v -8.015 l 5,7.903 v -7.985"/>
    <path d="m 24.25,11.477934 c 0,0 -0.03078,-0.45118 -0.271065,-0.701472 -0.240282,-0.250293 -0.67849,-0.288442 -0.67849,-0.288442 L 20.928637,10.5 c 0,0 -0.446101,0.09057 -0.660479,0.315907 C 20.053779,11.041243 20,11.505 20,11.505 v 6.231 c 0,0 0.11908,0.318512 0.307997,0.511461 C 20.496914,18.44041 20.914,18.5 20.914,18.5 l 2.593659,0.03151 c 0,0 0.311496,-0.141322 0.510174,-0.323279 C 24.216511,18.026274 24.25,17.730743 24.25,17.730743 V 14.493 L 23,14.5"/>
    <path d="M15 26.537C22.1797 26.537 28 20.9323 28 14.0185C28 7.10472 22.1797 1.5 15 1.5C7.8203 1.5 2 7.10472 2 14.0185C2 16.1976 2.57821 18.2467 3.59495 20.0313L1 27.5L8.76855 25.0078C10.6188 25.9827 12.7422 26.537 15 26.537Z"/>
  </g>
</svg>