<svg class="ds-icon" width="29" height="29" viewBox="0 0 29 29" fill="none" xmlns="http://www.w3.org/2000/svg">
  <g stroke="var(--ds-icon-color, black)" stroke-linejoin="round" stroke-linecap="round" stroke-width="var(--ds-icon-stroke, 1)">
    <path d="M11.48 18.47C15.95 18.22 19.49 14.52 19.49 9.99C19.49 9.48 19.44 8.98 19.35 8.49M11.48 18.47C11.32 18.48 11.16 18.49 10.99 18.49C9.75 18.49 8.57 18.22 7.5 17.74L1.5 20.5L3.66 14.27C2.92 13.02 2.5 11.55 2.5 9.99C2.5 5.3 6.3 1.5 10.99 1.5C15.17 1.5 18.65 4.52 19.35 8.49M11.48 18.47V20.83C11.48 21.75 12.23 22.5 13.15 22.5H23.5L27.48 26.5V10.16C27.48 9.24 26.74 8.49 25.81 8.49H19.35"/>
  </g>
</svg>