<svg width="29" height="29" viewBox="0 0 29 29" fill="none" xmlns="http://www.w3.org/2000/svg">
  <path d="M11.4815 18.4734C15.9453 18.2206 19.4872 14.5207 19.4872 9.99358C19.4872 9.48074 19.4417 8.97852 19.3546 8.49072M11.4815 18.4734C11.32 18.4825 11.1573 18.4872 10.9936 18.4872C9.74912 18.4872 8.56717 18.2195 7.50215 17.7387L1.5 20.5L3.65586 14.274C2.92109 13.0172 2.5 11.5545 2.5 9.99358C2.5 5.3027 6.3027 1.5 10.9936 1.5C15.1716 1.5 18.6451 4.51668 19.3546 8.49072M11.4815 18.4734V20.8333C11.4815 21.7538 12.2277 22.5 13.1481 22.5H23.5L27.4815 26.5V10.1574C27.4815 9.23691 26.7353 8.49072 25.8148 8.49072H19.3546" stroke="var(--ds-icon-color, black)" stroke-linejoin="round"/>
</svg>