<svg class="ds-icon" width="29" height="29" viewBox="0 0 29 29" fill="none" xmlns="http://www.w3.org/2000/svg">
  <g stroke="var(--ds-icon-color, black)" stroke-linejoin="round" stroke-linecap="round" stroke-width="var(--ds-icon-stroke, 1)" stroke-miterlimit="10">
    <path d="M23.44 6.17C23.42 6.8 22.85 7.31 22.34 7.62C22.08 7.75 22.03 7.98 22.06 8.25C22.08 8.99 21.25 9.51 21.1 10.44C21.03 10.77 20.85 11.07 20.83 11.41C20.82 11.96 21.16 12.43 21.31 12.94C21.36 13.09 21.41 13.26 21.34 13.41C21.26 13.58 21.02 13.68 20.9 13.83C20.61 14.17 21.2 14.62 21.13 15.38C21.18 16.29 21.2 17.25 20.28 17.68C20.19 17.73 20.16 17.77 20.17 17.86C20.28 18.34 20.32 18.38 20.23 18.9C20.21 19.26 20.45 19.66 20.46 20.04C20.47 20.23 20.4 20.38 20.28 20.42C20.26 20.64 20.15 20.84 19.99 20.99C19.92 21.68 18.49 22.21 17.95 22.45C17.16 22.73 16.79 23.55 16.15 24.03C15.82 24.26 15.41 24.41 15.14 24.71C14.85 25.01 14.76 25.46 14.62 25.84C14.45 26.26 14.25 26.66 14.15 27.09C14.03 27.68 13.89 28.17 13.19 27.85C12.5 27.57 11.98 26.99 11.7 26.31C11.54 25.98 11.53 25.59 11.41 25.25C11.34 25.06 11.22 24.89 11.13 24.72C10.67 23.91 10.64 22.85 11.19 22.07C11.86 20.97 10.97 20.87 11 20.3C11.03 20.15 11.16 20 11.11 19.84C10.99 19.51 10.46 19.49 10.4 19.12C10.36 18.83 10.41 18.53 10.35 18.24C10.22 17.73 9.99 17.25 9.86 16.74C9.49 15.32 8.72 14.17 7.14 14.52C7 14.53 6.86 14.54 6.74 14.52C6.45 14.48 6.21 14.33 6.01 14.11C5.82 13.88 5.55 13.54 5.67 13.22C5.72 13.06 5.9 12.93 5.88 12.75C5.78 12.51 5.47 12.39 5.3 12.2C4.15 11.04 6.64 10.57 7.12 9.73C7.51 8.8 5.9 8.74 7.25 7.21C7.78 6.53 8.36 7 8.34 6.33C8.34 6.14 8.33 5.95 8.37 5.76C8.45 5.36 8.74 5.06 9.08 4.81C9.38 4.61 9.72 4.35 10.1 4.39C10.54 4.59 11.24 5.8 11.4 4.62C11.56 3.74 11.72 4.62 12.74 3.84C12.94 3.69 13.01 3.41 12.88 3.19C12.51 2.52 13.65 2.14 14.59 2.35C14.67 2.37 14.71 2.29 14.71 2.05C14.69 1.69 15.03 1.47 15.31 1.31C16.26 0.79 17.64 0.96 18.59 1.55C18.94 1.8 19.13 2.18 19.4 2.49C19.62 2.75 19.9 3.06 20.04 3.41C20.18 3.75 20.2 3.88 20.16 4C19.92 4.71 20.51 5.44 21.26 5.41C21.74 5.39 22.26 5.3 22.72 5.46C23.08 5.52 23.41 5.78 23.44 6.17Z"/>
  </g>
</svg>