<svg class="ds-icon" width="29" height="29" viewBox="0 0 29 29" fill="none" xmlns="http://www.w3.org/2000/svg">
  <g stroke="var(--ds-icon-color, black)" stroke-linejoin="round" stroke-linecap="round" stroke-width="var(--ds-icon-stroke, 1)">
    <path d="M2.47 21.55V13.9C2.47 10.86 3.74 7.94 5.99 5.79C8.25 3.64 11.31 2.43 14.5 2.43C17.69 2.43 20.75 3.64 23.01 5.79C25.26 7.94 26.53 10.86 26.53 13.9V21.55M26.53 21.27C26.53 21.85 26.28 22.41 25.83 22.82C25.38 23.23 24.76 23.46 24.13 23.46H22.92C22.28 23.46 21.67 23.23 21.22 22.82C20.77 22.41 20.52 21.85 20.52 21.27V18C20.52 17.42 20.77 16.86 21.22 16.45C21.67 16.04 22.28 15.81 22.92 15.81H26.53V21.27ZM2.47 21.27C2.47 21.85 2.72 22.41 3.17 22.82C3.62 23.23 4.24 23.46 4.88 23.46H6.08C6.72 23.46 7.33 23.23 7.78 22.82C8.23 22.41 8.48 21.85 8.48 21.27V18C8.48 17.42 8.23 16.86 7.78 16.45C7.33 16.04 6.72 15.81 6.08 15.81H2.47V21.27Z"/>
  </g>
</svg>