<svg width="29" height="29" viewBox="0 0 29 29" fill="none" xmlns="http://www.w3.org/2000/svg">
  <path d="M2.46875 21.5466V13.8999C2.46875 10.8578 3.73632 7.9403 5.99262 5.78922C8.24892 3.63815 11.3091 2.42969 14.5 2.42969C17.6909 2.42969 20.7511 3.63815 23.0074 5.78922C25.2637 7.9403 26.5312 10.8578 26.5312 13.8999V21.5466M26.5312 21.2735C26.5312 21.853 26.2777 22.4087 25.8265 22.8184C25.3752 23.2282 24.7632 23.4583 24.125 23.4583H22.9219C22.2837 23.4583 21.6717 23.2282 21.2204 22.8184C20.7691 22.4087 20.5156 21.853 20.5156 21.2735V17.9963C20.5156 17.4169 20.7691 16.8612 21.2204 16.4515C21.6717 16.0417 22.2837 15.8116 22.9219 15.8116H26.5312V21.2735ZM2.46875 21.2735C2.46875 21.853 2.72226 22.4087 3.17352 22.8184C3.62478 23.2282 4.23682 23.4583 4.875 23.4583H6.07812C6.7163 23.4583 7.32834 23.2282 7.7796 22.8184C8.23086 22.4087 8.48438 21.853 8.48438 21.2735V17.9963C8.48438 17.4169 8.23086 16.8612 7.7796 16.4515C7.32834 16.0417 6.7163 15.8116 6.07812 15.8116H2.46875V21.2735Z" stroke="var(--ds-icon-color, black)" stroke-linecap="round" stroke-linejoin="round"/>
</svg>