<svg class="ds-icon" width="29" height="29" viewBox="0 0 29 29" fill="none" xmlns="http://www.w3.org/2000/svg">
  <g stroke="var(--ds-icon-color, black)" stroke-linejoin="round" stroke-linecap="round" stroke-width="var(--ds-icon-stroke, 1)">
    <path d="M19.38 19.38C19.93 18.83 20.37 18.21 20.7 17.56L25.64 20.98C25.11 21.93 24.44 22.82 23.63 23.63C22.82 24.43 21.93 25.1 20.98 25.64L17.56 20.7C18.21 20.37 18.83 19.93 19.38 19.38ZM19.38 19.38C22.08 16.68 22.08 12.31 19.38 9.61C16.68 6.91 12.31 6.91 9.61 9.61C6.91 12.31 6.91 16.68 9.61 19.38C12.31 22.08 16.68 22.08 19.38 19.38ZM17.56 8.29C18.21 8.63 18.83 9.07 19.38 9.62C19.93 10.16 20.37 10.78 20.7 11.44L25.64 8.01C25.11 7.07 24.44 6.17 23.63 5.37C22.82 4.56 21.93 3.89 20.98 3.36L17.56 8.29ZM8.28 11.45C8.61 10.79 9.05 10.18 9.6 9.63C10.15 9.08 10.77 8.64 11.42 8.31L8.01 3.36C7.07 3.89 6.17 4.56 5.37 5.37C4.56 6.17 3.89 7.07 3.36 8.01L8.28 11.45ZM11.44 20.7C10.79 20.37 10.17 19.93 9.62 19.38C9.07 18.83 8.63 18.21 8.3 17.56L3.36 20.98C3.89 21.93 4.56 22.82 5.37 23.63C6.17 24.44 7.07 25.1 8.01 25.64L11.44 20.7ZM23.69 5.31C18.62 0.23 10.38 0.23 5.31 5.31C0.23 10.38 0.23 18.61 5.31 23.69C10.38 28.76 18.62 28.76 23.69 23.69C28.77 18.61 28.77 10.38 23.69 5.31Z"/>
  </g>
</svg>