<svg class="ds-icon" width="29" height="29" viewBox="0 0 29 29" fill="none" xmlns="http://www.w3.org/2000/svg">
  <path d="M19.3809 19.3783C19.9299 18.8294 20.3687 18.2119 20.7032 17.5556L25.6406 20.98C25.1051 21.9272 24.4372 22.8198 23.6302 23.6267C22.8232 24.4336 21.9305 25.1014 20.9832 25.6369L17.558 20.7005C18.2144 20.366 18.8315 19.9276 19.3809 19.3783ZM19.3809 19.3783C22.0787 16.6809 22.0793 12.3082 19.3815 9.61082C16.6837 6.91341 12.3099 6.91341 9.61204 9.61082C6.91423 12.3082 6.91423 16.6814 9.61204 19.3788C12.3099 22.0762 16.6831 22.0757 19.3809 19.3783ZM17.558 8.293C18.2144 8.62749 18.832 9.0662 19.381 9.61509C19.9304 10.1644 20.3688 10.7814 20.7034 11.4377L25.6409 8.01265C25.1054 7.06547 24.4375 6.17299 23.6304 5.3661C22.8234 4.55922 21.9307 3.89144 20.9833 3.35603L17.558 8.293ZM8.27972 11.4507C8.61426 10.7945 9.05304 10.1771 9.60201 9.62822C10.1514 9.07897 10.7685 8.64068 11.4249 8.30621L8.01363 3.35603C7.06631 3.89141 6.17369 4.55915 5.36668 5.366C4.55968 6.17284 3.8918 7.06527 3.35631 8.0124L8.27972 11.4507ZM11.4421 20.7004C10.7857 20.3659 10.1682 19.9272 9.6193 19.3783C9.06996 18.829 8.6316 18.212 8.29708 17.5557L3.35631 20.9837C3.89177 21.9309 4.55961 22.8234 5.36658 23.6303C6.17354 24.4372 7.06611 25.1049 8.01338 25.6403L11.4421 20.7004ZM23.6922 5.30691C18.6156 0.231029 10.3846 0.231029 5.30749 5.30691C0.230838 10.3828 0.230838 18.6126 5.30749 23.6889C10.3841 28.7648 18.6151 28.7648 23.6922 23.6889C28.7693 18.6126 28.7693 10.3828 23.6922 5.30691Z" stroke="var(--ds-icon-color, black)" stroke-miterlimit="10" stroke-linecap="round" stroke-linejoin="round"/>
</svg>