<svg width="24" height="24" viewBox="0 0 24 24" class="ds-svg-icon" fill="none" xmlns="http://www.w3.org/2000/svg">
<path d="M7.35355 9.64645C7.15829 9.45118 6.84171 9.45118 6.64645 9.64645C6.45118 9.84171 6.45118 10.1583 6.64645 10.3536L7.35355 9.64645ZM12 15L11.6464 15.3536C11.8417 15.5488 12.1583 15.5488 12.3536 15.3536L12 15ZM17.3536 10.3536C17.5488 10.1583 17.5488 9.84171 17.3536 9.64645C17.1583 9.45118 16.8417 9.45118 16.6464 9.64645L17.3536 10.3536ZM12.5 5C12.5 4.72386 12.2761 4.5 12 4.5C11.7239 4.5 11.5 4.72386 11.5 5H12.5ZM6 17.5C5.72386 17.5 5.5 17.7239 5.5 18C5.5 18.2761 5.72386 18.5 6 18.5V17.5ZM18 18.5C18.2761 18.5 18.5 18.2761 18.5 18C18.5 17.7239 18.2761 17.5 18 17.5V18.5ZM6.64645 10.3536L11.6464 15.3536L12.3536 14.6464L7.35355 9.64645L6.64645 10.3536ZM12.3536 15.3536L17.3536 10.3536L16.6464 9.64645L11.6464 14.6464L12.3536 15.3536ZM11.5 5V15H12.5V5H11.5ZM6 18.5H18V17.5H6V18.5Z" fill="hsl(186,100%,33%)"/>
</svg>
