<svg width="24" height="24" viewBox="0 0 24 24" class="ds-svg-icon" fill="none" xmlns="http://www.w3.org/2000/svg">
<path d="M19.2481 9.43412C19.4878 9.29712 19.5711 8.99169 19.4341 8.75193C19.2971 8.51217 18.9917 8.42887 18.7519 8.56588L19.2481 9.43412ZM5.24807 8.56588C5.00831 8.42887 4.70288 8.51217 4.56588 8.75193C4.42887 8.99169 4.51217 9.29712 4.75193 9.43412L5.24807 8.56588ZM12.7442 12.5747L12.4961 12.1406L12.7442 12.5747ZM11.2558 12.5747L11.5039 12.1406L11.2558 12.5747ZM18.7519 8.56588L12.4961 12.1406L12.9923 13.0089L19.2481 9.43412L18.7519 8.56588ZM11.5039 12.1406L5.24807 8.56588L4.75193 9.43412L11.0077 13.0089L11.5039 12.1406ZM12.4961 12.1406C12.1887 12.3163 11.8113 12.3163 11.5039 12.1406L11.0077 13.0089C11.6226 13.3602 12.3774 13.3602 12.9923 13.0089L12.4961 12.1406ZM6.5 7.5H17.5V6.5H6.5V7.5ZM18.5 8.5V15.5H19.5V8.5H18.5ZM17.5 16.5H6.5V17.5H17.5V16.5ZM5.5 15.5V8.5H4.5V15.5H5.5ZM6.5 16.5C5.94772 16.5 5.5 16.0523 5.5 15.5H4.5C4.5 16.6046 5.39543 17.5 6.5 17.5V16.5ZM18.5 15.5C18.5 16.0523 18.0523 16.5 17.5 16.5V17.5C18.6046 17.5 19.5 16.6046 19.5 15.5H18.5ZM17.5 7.5C18.0523 7.5 18.5 7.94772 18.5 8.5H19.5C19.5 7.39543 18.6046 6.5 17.5 6.5V7.5ZM6.5 6.5C5.39543 6.5 4.5 7.39543 4.5 8.5H5.5C5.5 7.94772 5.94772 7.5 6.5 7.5V6.5Z" fill="hsl(186,100%,33%)"/>
</svg>
