<svg width="24" height="24" viewBox="0 0 24 24" xmlns="http://www.w3.org/2000/svg">
<path d="M19.3116 6.68149V10.6758M19.3116 10.6758H15.3173M19.3116 10.6758L16.2294 7.77329C15.3111 6.85443 14.1191 6.25891 12.8329 6.07647C11.5467 5.89404 10.2361 6.13457 9.09846 6.76183C7.96088 7.38908 7.05797 8.36907 6.52581 9.55413C5.99364 10.7392 5.86105 12.0651 6.14801 13.3321C6.43498 14.599 7.12595 15.7384 8.1168 16.5785C9.10765 17.4186 10.3447 17.9139 11.6415 17.9898C12.9384 18.0656 14.2248 17.718 15.3068 16.9991C16.3889 16.2803 17.208 15.2293 17.6407 14.0044" stroke="hsl(186,100%,33%)" stroke-linecap="round" stroke-linejoin="round" fill="none"/>
</svg>
