<svg width="24" height="24" viewBox="0 0 24 24" xmlns="http://www.w3.org/2000/svg">
<path d="M13.941 5.00008H7.5C7.10218 5.00008 6.72064 5.15742 6.43934 5.43747C6.15804 5.71752 6 6.09736 6 6.49341L6 17.5067C6 17.9028 6.15804 18.2826 6.43934 18.5626C6.72064 18.8427 7.10218 19 7.5 19H12.972M13.941 5.00008L18 9.00006M13.941 5.00008V9.00006H18M18 16.0001V9.00006M11.0173 14.0519C11.105 14.1436 11.2228 14.1949 11.3455 14.1949C11.4682 14.1949 11.586 14.1436 11.6736 14.0519L12.4236 13.2519C12.5095 13.1585 12.5576 13.0328 12.5576 12.9019C12.5576 12.7711 12.5095 12.6454 12.4236 12.5519L10.6564 10.667C11.1773 10.4155 11.7576 10.3394 12.3201 10.4487C12.8825 10.558 13.4004 10.8476 13.8047 11.2788C14.2089 11.71 14.4804 12.2624 14.5829 12.8624C14.6853 13.4623 14.614 14.0813 14.3783 14.6369L17.6173 18.0919C17.8038 18.2908 17.9086 18.5606 17.9086 18.8419C17.9086 19.1232 17.8038 19.393 17.6173 19.5919C17.4309 19.7908 17.1779 19.9026 16.9142 19.9026C16.6505 19.9026 16.3976 19.7908 16.2111 19.5919L12.972 16.1369C12.4511 16.3883 11.8708 16.4645 11.3084 16.3552C10.7459 16.2458 10.228 15.9563 9.82376 15.5251C9.4195 15.0939 9.14804 14.5415 9.04556 13.9415C8.94307 13.3416 9.01444 12.7225 9.25014 12.1669L11.0173 14.0519Z" stroke="hsl(186,100%,33%)" stroke-linecap="round" stroke-linejoin="round" fill="none"/>
</svg>
