<svg width="24" height="24" viewBox="0 0 24 24" xmlns="http://www.w3.org/2000/svg">
<path d="M17.9997 11.8697C18.0021 12.774 17.7908 13.6661 17.3831 14.4733C16.8997 15.4405 16.1565 16.2541 15.2368 16.8229C14.3171 17.3916 13.2573 17.6931 12.1759 17.6935C11.2716 17.6959 10.3795 17.4846 9.57236 17.0769L5.66699 18.3786L6.96878 14.4733C6.56107 13.6661 6.34979 12.774 6.35214 11.8697C6.35256 10.7884 6.65403 9.72851 7.22278 8.80883C7.79153 7.88915 8.6051 7.14597 9.57236 6.66255C10.3795 6.25484 11.2716 6.04356 12.1759 6.04592H12.5185C13.9466 6.1247 15.2955 6.72748 16.3068 7.73883C17.3182 8.75018 17.9209 10.099 17.9997 11.5271V11.8697Z" stroke="hsl(186,100%,33%)" stroke-linecap="round" stroke-linejoin="round" fill="none"/>
</svg>
