<svg width="24" height="24" viewBox="0 0 24 24" xmlns="http://www.w3.org/2000/svg">
<g fill="none" stroke="hsl(186,100%,33%)" stroke-linecap="round" stroke-linejoin="round">
<path d="M8.5 10V8.33333C8.5 7.44928 8.86875 6.60143 9.52513 5.97631C10.1815 5.35119 11.0717 5 12 5C12.9283 5 13.8185 5.35119 14.4749 5.97631C15.1313 6.60143 15.5 7.44928 15.5 8.33333V10M7.33333 10H16.6667C17.403 10 18 10.6512 18 11.4546V16.5455C18 17.3488 17.403 18 16.6667 18H7.33333C6.59695 18 6 17.3488 6 16.5455V11.4546C6 10.6512 6.59695 10 7.33333 10Z"/>
<path d="M12.6665 14.2455L12.5 14.3945V14.6181V15C12.5 15.2761 12.2761 15.5 12 15.5C11.7239 15.5 11.5 15.2761 11.5 15V14.6181V14.3945L11.3335 14.2455C11.1281 14.0617 11 13.7961 11 13.5C11 12.9477 11.4477 12.5 12 12.5C12.5523 12.5 13 12.9477 13 13.5C13 13.7961 12.8719 14.0617 12.6665 14.2455Z"/>
</g>
</svg>
