<svg width="24" height="24" viewBox="0 0 24 24" xmlns="http://www.w3.org/2000/svg">
  <g fill="none" stroke="hsl(186,100%,33%)" stroke-linecap="round" stroke-linejoin="round">
    <path d="M11.9999 15.5L12 16.5"/>
    <path d="M9.5 9.53846C9.5 8.76923 10.9189 8.00008 12 8C12.9982 8 14.5 8.46154 14.5 10C14.5 11.5385 12 12.0769 12 12.0769L12 13.5"/>
    <path d="M12 19C15.866 19 19 15.866 19 12C19 8.13401 15.866 5 12 5C8.13401 5 5 8.13401 5 12C5 13.275 5.3419 14.4079 5.9375 15.4375L5.625 16.625L5 19L7.375 18.375L8.5625 18.0625C9.59211 18.6581 10.725 19 12 19Z"/>
  </g>
</svg>
