<svg width="24" height="24" viewBox="0 0 24 24" xmlns="http://www.w3.org/2000/svg">
<path d="M13.5 18C13.3476 18.3042 13.1288 18.5566 12.8655 18.7321C12.6023 18.9076 12.3038 19 12 19C11.6962 19 11.3977 18.9076 11.1345 18.7321C10.8712 18.5566 10.6524 18.3042 10.5 18M16 9.4C16 8.23305 15.5786 7.11389 14.8284 6.28873C14.0783 5.46357 13.0609 5 12 5C10.9391 5 9.92172 5.46357 9.17157 6.28873C8.42143 7.11389 8 8.23305 8 9.4C8 14.5333 6 16 6 16H18C18 16 16 14.5333 16 9.4Z" stroke="hsl(186,100%,33%)" stroke-linecap="round" stroke-linejoin="round" fill="none"/>
</svg>
