<svg width="24" height="24" viewBox="0 0 24 24" class="ds-svg-icon" fill="none" xmlns="http://www.w3.org/2000/svg">
<path d="M11.6464 11.6464C11.4512 11.8417 11.4512 12.1583 11.6464 12.3536C11.8417 12.5488 12.1583 12.5488 12.3536 12.3536L11.6464 11.6464ZM18.8536 5.85355C19.0488 5.65829 19.0488 5.34171 18.8536 5.14645C18.6583 4.95118 18.3417 4.95118 18.1464 5.14645L18.8536 5.85355ZM15.3536 8.64645C15.1583 8.45118 14.8417 8.45118 14.6464 8.64645C14.4512 8.84171 14.4512 9.15829 14.6464 9.35355L15.3536 8.64645ZM16.6464 11.3536C16.8417 11.5488 17.1583 11.5488 17.3536 11.3536C17.5488 11.1583 17.5488 10.8417 17.3536 10.6464L16.6464 11.3536ZM17.3536 6.64645C17.1583 6.45118 16.8417 6.45118 16.6464 6.64645C16.4512 6.84171 16.4512 7.15829 16.6464 7.35355L17.3536 6.64645ZM19.1464 9.85355C19.3417 10.0488 19.6583 10.0488 19.8536 9.85355C20.0488 9.65829 20.0488 9.34171 19.8536 9.14645L19.1464 9.85355ZM12.3536 12.3536L18.8536 5.85355L18.1464 5.14645L11.6464 11.6464L12.3536 12.3536ZM12.5 15C12.5 16.933 10.933 18.5 9 18.5V19.5C11.4853 19.5 13.5 17.4853 13.5 15H12.5ZM9 18.5C7.067 18.5 5.5 16.933 5.5 15H4.5C4.5 17.4853 6.51472 19.5 9 19.5V18.5ZM5.5 15C5.5 13.067 7.067 11.5 9 11.5V10.5C6.51472 10.5 4.5 12.5147 4.5 15H5.5ZM9 11.5C10.933 11.5 12.5 13.067 12.5 15H13.5C13.5 12.5147 11.4853 10.5 9 10.5V11.5ZM14.6464 9.35355L16.6464 11.3536L17.3536 10.6464L15.3536 8.64645L14.6464 9.35355ZM16.6464 7.35355L19.1464 9.85355L19.8536 9.14645L17.3536 6.64645L16.6464 7.35355Z" fill="hsl(186,100%,33%)"/>
</svg>
