<svg width="24" height="24" viewBox="0 0 24 24" class="ds-svg-icon" fill="none" xmlns="http://www.w3.org/2000/svg">
<path d="M18.7071 7.79289L19.0607 8.14645H19.0607L18.7071 7.79289ZM18.2929 8.20711L17.9393 7.85355L17.9393 7.85355L18.2929 8.20711ZM5.5 8.25L5.72361 7.80279L5.5 8.25ZM10.5 11C10.5 10.7239 10.2761 10.5 10 10.5C9.72386 10.5 9.5 10.7239 9.5 11H10.5ZM9.5 16C9.5 16.2761 9.72386 16.5 10 16.5C10.2761 16.5 10.5 16.2761 10.5 16H9.5ZM14.5 11C14.5 10.7239 14.2761 10.5 14 10.5C13.7239 10.5 13.5 10.7239 13.5 11H14.5ZM13.5 16C13.5 16.2761 13.7239 16.5 14 16.5C14.2761 16.5 14.5 16.2761 14.5 16H13.5ZM5.5 7.5C5.22386 7.5 5 7.72386 5 8C5 8.27614 5.22386 8.5 5.5 8.5L5.5 7.5ZM18.5 8.5C18.7761 8.5 19 8.27614 19 8C19 7.72386 18.7761 7.5 18.5 7.5V8.5ZM6 6.5H9V5.5H6V6.5ZM9 6.5H15V5.5H9V6.5ZM15 6.5H18V5.5H15V6.5ZM9.5 6V5H8.5V6H9.5ZM14.5 5V6H15.5V5H14.5ZM10 4.5H14V3.5H10V4.5ZM7.5 19.5H16.5V18.5H7.5V19.5ZM17.5 8.91421V17.5H18.5V8.91421H17.5ZM18.5 7V7.08579H19.5V7H18.5ZM18.3536 7.43934L17.9393 7.85355L18.6464 8.56066L19.0607 8.14645L18.3536 7.43934ZM5.5 7.44098V7H4.5V7.44098H5.5ZM18.5 8.91421C18.5 8.7816 18.5527 8.65443 18.6464 8.56066L17.9393 7.85355C17.658 8.13486 17.5 8.51639 17.5 8.91421H18.5ZM6.5 9.05902C6.5 8.52703 6.19943 8.0407 5.72361 7.80279L5.27639 8.69721C5.41343 8.76573 5.5 8.9058 5.5 9.05902H6.5ZM15.5 5C15.5 4.17157 14.8284 3.5 14 3.5V4.5C14.2761 4.5 14.5 4.72386 14.5 5H15.5ZM6 5.5C5.17157 5.5 4.5 6.17157 4.5 7H5.5C5.5 6.72386 5.72386 6.5 6 6.5V5.5ZM7.5 18.5C6.94772 18.5 6.5 18.0523 6.5 17.5H5.5C5.5 18.6046 6.39543 19.5 7.5 19.5V18.5ZM5.72361 7.80279C5.58657 7.73427 5.5 7.5942 5.5 7.44098H4.5C4.5 7.97297 4.80057 8.4593 5.27639 8.69721L5.72361 7.80279ZM16.5 19.5C17.6046 19.5 18.5 18.6046 18.5 17.5H17.5C17.5 18.0523 17.0523 18.5 16.5 18.5V19.5ZM9.5 5C9.5 4.72386 9.72386 4.5 10 4.5V3.5C9.17157 3.5 8.5 4.17157 8.5 5H9.5ZM18.5 7.08579C18.5 7.21839 18.4473 7.34557 18.3536 7.43934L19.0607 8.14645C19.342 7.86514 19.5 7.48361 19.5 7.08579H18.5ZM18 6.5C18.2761 6.5 18.5 6.72386 18.5 7H19.5C19.5 6.17157 18.8284 5.5 18 5.5V6.5ZM9.5 11V16H10.5V11H9.5ZM13.5 11V16H14.5V11H13.5ZM5.5 8.5L18.5 8.5V7.5L5.5 7.5L5.5 8.5ZM6.5 17.5V9.05902H5.5V17.5H6.5Z" fill="hsl(186,100%,33%)"/>
</svg>
