<svg width="24" height="24" viewBox="0 0 24 24" xmlns="http://www.w3.org/2000/svg">
<path d="M7 10V4H17V10M7 16H5.6C5.17565 16 4.76869 15.8595 4.46863 15.6095C4.16857 15.3594 4 15.0203 4 14.6667V11.3333C4 10.9797 4.16857 10.6406 4.46863 10.3905C4.76869 10.1405 5.17565 10 5.6 10H18.4C18.8243 10 19.2313 10.1405 19.5314 10.3905C19.8314 10.6406 20 10.9797 20 11.3333V14.6667C20 15.0203 19.8314 15.3594 19.5314 15.6095C19.2313 15.8595 18.8243 16 18.4 16H17M7 13H17V19H7V13Z" stroke="hsl(186,100%,33%)" stroke-linecap="round" stroke-linejoin="round" fill="none"/>
</svg>
