<svg width="24" height="24" viewBox="0 0 24 24" xmlns="http://www.w3.org/2000/svg">
<path d="M15 5.5H16.5C16.8978 5.5 17.2794 5.65804 17.5607 5.93934C17.842 6.22064 18 6.60218 18 7V17.5C18 17.8978 17.842 18.2794 17.5607 18.5607C17.2794 18.842 16.8978 19 16.5 19H7.5C7.10218 19 6.72064 18.842 6.43934 18.5607C6.15804 18.2794 6 17.8978 6 17.5V7C6 6.60218 6.15804 6.22064 6.43934 5.93934C6.72064 5.65804 7.10218 5.5 7.5 5.5H9M9.75 4H14.25C14.6642 4 15 4.33579 15 4.75V6.25C15 6.66421 14.6642 7 14.25 7H9.75C9.33579 7 9 6.66421 9 6.25V4.75C9 4.33579 9.33579 4 9.75 4Z" stroke="hsl(186,100%,33%)" stroke-linecap="round" stroke-linejoin="round" fill="none"/>
</svg>
