<svg width="24" height="24" viewBox="0 0 24 24" xmlns="http://www.w3.org/2000/svg">
<path d="M11.3412 4.01146C12.048 3.38228 12.9793 3 14 3C16.2091 3 18 4.79086 18 7C18 8.48368 17.1919 9.77821 15.9922 10.4688M18 18V17.4208C18 16.7788 17.6313 16.163 16.9749 15.709C16.3185 15.255 15.4283 15 14.5 15H7.5C6.57174 15 5.6815 15.255 5.02513 15.709C4.36875 16.163 4 16.7788 4 17.4208V18M20 16V15.4208C20 14.7788 19.6313 14.163 18.9749 13.709C18.3185 13.255 17.4283 13 16.5 13H15M15 9C15 11.2091 13.2091 13 11 13C8.79086 13 7 11.2091 7 9C7 6.79086 8.79086 5 11 5C13.2091 5 15 6.79086 15 9Z" stroke="hsl(186,100%,33%)" stroke-linecap="round" stroke-linejoin="round" fill="none"/>
</svg>
