<svg width="24" height="24" viewBox="0 0 24 24" xmlns="http://www.w3.org/2000/svg">
<path d="M6 16V12C6 10.4087 6.63214 8.88258 7.75736 7.75736C8.88258 6.63214 10.4087 6 12 6C13.5913 6 15.1174 6.63214 16.2426 7.75736C17.3679 8.88258 18 10.4087 18 12V16M18 15.8571C18 16.1602 17.8736 16.4509 17.6485 16.6653C17.4235 16.8796 17.1183 17 16.8 17H16.2C15.8817 17 15.5765 16.8796 15.3515 16.6653C15.1264 16.4509 15 16.1602 15 15.8571V14.1429C15 13.8398 15.1264 13.5491 15.3515 13.3347C15.5765 13.1204 15.8817 13 16.2 13H18V15.8571ZM6 15.8571C6 16.1602 6.12643 16.4509 6.35147 16.6653C6.57652 16.8796 6.88174 17 7.2 17H7.8C8.11826 17 8.42348 16.8796 8.64853 16.6653C8.87357 16.4509 9 16.1602 9 15.8571V14.1429C9 13.8398 8.87357 13.5491 8.64853 13.3347C8.42348 13.1204 8.11826 13 7.8 13H6V15.8571Z" stroke="hsl(186,100%,33%)" stroke-linecap="round" stroke-linejoin="round" fill="none"/>
</svg>
