<svg width="24" height="24" viewBox="0 0 24 24" xmlns="http://www.w3.org/2000/svg">
<path d="M7.30769 15H6.53846C6.13044 15 5.73912 14.8379 5.4506 14.5494C5.16209 14.2609 5 13.8696 5 13.4615V6.53846C5 6.13044 5.16209 5.73912 5.4506 5.4506C5.73912 5.16209 6.13044 5 6.53846 5H13.4615C13.8696 5 14.2609 5.16209 14.5494 5.4506C14.8379 5.73912 15 6.13044 15 6.53846V7.30769M10.5385 9.00001H17.4615C18.3112 9.00001 19 9.6888 19 10.5385V17.4615C19 18.3112 18.3112 19 17.4615 19H10.5385C9.68879 19 9 18.3112 9 17.4615V10.5385C9 9.6888 9.68879 9.00001 10.5385 9.00001Z" stroke="hsl(186,100%,33%)" stroke-linecap="round" stroke-linejoin="round" fill="none"/>
</svg>
