<svg width="24" height="24" viewBox="0 0 24 24" xmlns="http://www.w3.org/2000/svg">
<path d="M15.25 8H18C18.5523 8 19 8.44771 19 9V19L16.5686 17H11C10.4477 17 10 16.5523 10 16V14.5516M15 9.19445C15.0021 10.001 14.8136 10.7967 14.45 11.5167C14.0188 12.3794 13.3559 13.1051 12.5357 13.6123C11.7154 14.1196 10.77 14.3885 9.80555 14.3889C8.99896 14.391 8.20329 14.2025 7.48333 13.8389L4 15L5.16111 11.5167C4.79746 10.7967 4.60901 10.001 4.61111 9.19445C4.61148 8.22997 4.88037 7.28464 5.38766 6.46435C5.89495 5.64406 6.6206 4.9812 7.48333 4.55002C8.20329 4.18636 8.99896 3.99791 9.80555 4.00002H10.1111C11.3849 4.07029 12.588 4.60793 13.49 5.50998C14.3921 6.41204 14.9297 7.61513 15 8.8889V9.19445Z" stroke="hsl(186,100%,33%)" stroke-linecap="round" stroke-linejoin="round" fill="none"/>
</svg>
