<svg width="24" height="24" viewBox="0 0 24 24" class="ds-svg-icon" fill="none" xmlns="http://www.w3.org/2000/svg">
<path d="M20 12L20.5 12L20.441 11.7644L20 12ZM16 12V11.5C15.8674 11.5 15.7402 11.5527 15.6464 11.6464L16 12ZM14 14V14.5C14.1326 14.5 14.2598 14.4473 14.3536 14.3536L14 14ZM10 14L9.64645 14.3536C9.74021 14.4473 9.86739 14.5 10 14.5V14ZM8 12L8.35355 11.6464C8.25979 11.5527 8.13261 11.5 8 11.5V12ZM4 12L3.55897 11.7644C3.52025 11.8369 3.5 11.9178 3.5 12H4ZM6.76 6.8325L7.20104 7.06806L7.20178 7.06666L6.76 6.8325ZM4 16.5H3.5H4ZM20 16.5H20.5V16.5L20 16.5ZM17.24 6.8325L16.7982 7.06666L16.799 7.06806L17.24 6.8325ZM15.808 6L15.8083 5.5H15.808V6ZM8.19201 6V5.5L8.19176 5.5L8.19201 6ZM20 11.5H16V12.5H20V11.5ZM15.6464 11.6464L13.6464 13.6464L14.3536 14.3536L16.3536 12.3536L15.6464 11.6464ZM14 13.5H10V14.5H14V13.5ZM10.3536 13.6464L8.35355 11.6464L7.64645 12.3536L9.64645 14.3536L10.3536 13.6464ZM8 11.5H4V12.5H8V11.5ZM6.31897 6.59694L3.55897 11.7644L4.44103 12.2356L7.20104 7.06806L6.31897 6.59694ZM3.5 12V16.5H4.5V12H3.5ZM3.5 16.5C3.5 17.0412 3.72963 17.5532 4.12666 17.9254L4.8106 17.1959C4.60751 17.0055 4.5 16.7544 4.5 16.5H3.5ZM4.12666 17.9254C4.52259 18.2966 5.05309 18.5 5.6 18.5V17.5C5.29822 17.5 5.01478 17.3873 4.8106 17.1959L4.12666 17.9254ZM5.6 18.5H18.4V17.5H5.6V18.5ZM18.4 18.5C18.9469 18.5 19.4774 18.2966 19.8734 17.9254L19.1894 17.1959C18.9852 17.3873 18.7018 17.5 18.4 17.5V18.5ZM19.8734 17.9254C20.2704 17.5532 20.5 17.0412 20.5 16.5H19.5C19.5 16.7544 19.3925 17.0055 19.1894 17.1959L19.8734 17.9254ZM20.5 16.5L20.5 12L19.5 12L19.5 16.5L20.5 16.5ZM20.441 11.7644L17.6811 6.59694L16.799 7.06806L19.559 12.2356L20.441 11.7644ZM17.6818 6.59834C17.504 6.26295 17.2325 5.98526 16.9017 5.79295L16.3991 6.65747C16.5742 6.7593 16.7111 6.90223 16.7982 7.06666L17.6818 6.59834ZM16.9017 5.79295C16.5711 5.60076 16.1925 5.50019 15.8083 5.5L15.8078 6.5C16.0188 6.5001 16.2237 6.55552 16.3991 6.65747L16.9017 5.79295ZM15.808 5.5H8.19201V6.5H15.808V5.5ZM8.19176 5.5C7.80749 5.50019 7.42893 5.60076 7.09834 5.79295L7.60094 6.65747C7.7763 6.55552 7.98118 6.5001 8.19225 6.5L8.19176 5.5ZM7.09834 5.79295C6.76755 5.98526 6.49599 6.26295 6.31822 6.59834L7.20178 7.06666C7.28894 6.90223 7.42578 6.7593 7.60094 6.65747L7.09834 5.79295Z" fill="hsl(186,100%,33%)"/>
</svg>
