<svg width="24" height="24" viewBox="0 0 24 24" xmlns="http://www.w3.org/2000/svg">
<path d="M8.56329 13.0785L13.4761 15.8687M13.469 8.17124L8.56329 10.9614M17.49 7.11265C17.49 8.27418 16.5239 9.21579 15.3321 9.21579C14.1403 9.21579 13.1742 8.27418 13.1742 7.11265C13.1742 5.95113 14.1403 5.00952 15.3321 5.00952C16.5239 5.00952 17.49 5.95113 17.49 7.11265ZM8.85832 12.02C8.85832 13.1815 7.89218 14.1231 6.7004 14.1231C5.50861 14.1231 4.54248 13.1815 4.54248 12.02C4.54248 10.8584 5.50861 9.91683 6.7004 9.91683C7.89218 9.91683 8.85832 10.8584 8.85832 12.02ZM17.49 16.9273C17.49 18.0888 16.5239 19.0304 15.3321 19.0304C14.1403 19.0304 13.1742 18.0888 13.1742 16.9273C13.1742 15.7657 14.1403 14.8241 15.3321 14.8241C16.5239 14.8241 17.49 15.7657 17.49 16.9273Z" stroke="hsl(186,100%,33%)" stroke-linecap="round" stroke-linejoin="round" fill="none"/>
</svg>
