<svg class="ds-icon" width="29" height="29" viewBox="0 0 29 29" fill="none" xmlns="http://www.w3.org/2000/svg">
  <g stroke="var(--ds-icon-color, black)" stroke-linejoin="round" stroke-linecap="round" stroke-width="var(--ds-icon-stroke, 1)">
    <path d="M 27.5,14.5 H 21 L 17.5,18 h -6 L 8,14.5 H 1.5 m 0,7.5 c 0,0 -0.00,0.89 0.70,1.69 C 2.91,24.49 4,24.5 4,24.5 h 20.5 c 0,0 1.33,0.13 2.20,-0.72 C 27.58,22.91 27.5,22 27.5,22 V 14.5 L 23,5 C 23,5 22.60,4.34 22.06,3.96 21.51,3.58 20.5,3.5 20.5,3.5 H 9 C 9,3.5 7.89,3.42 7.17,3.83 6.45,4.23 6,5 6,5 l -4.5,9.5 z"/>
  </g>
</svg>