<svg width="29" height="29" viewBox="0 0 29 29" fill="none" xmlns="http://www.w3.org/2000/svg">
  <path d="M27.5 14.5L28 14.5L27.951 14.2842L27.5 14.5ZM20.8333 14.5V14C20.7007 14 20.5735 14.0527 20.4798 14.1464L20.8333 14.5ZM17.5 17.8333L17.5 18.3333C17.6326 18.3333 17.7598 18.2807 17.8536 18.1869L17.5 17.8333ZM11.5 17.8334L11.1464 18.1869C11.2402 18.2807 11.3674 18.3334 11.5 18.3334L11.5 17.8334ZM8.16667 14.5001L8.52022 14.1465C8.42645 14.0527 8.29927 14.0001 8.16667 14.0001V14.5001ZM1.5 14.5001L1.04898 14.2842C1.01674 14.3516 1 14.4254 1 14.5001H1.5ZM6.10001 4.88755L5.65823 4.65339C5.65502 4.65944 5.65194 4.66555 5.64899 4.67172L6.10001 4.88755ZM1.5 22.0001H1H1.5ZM4.16667 24.5001V25.0001H4.16667L4.16667 24.5001ZM24.8334 24.5V24H24.8334L24.8334 24.5ZM27.5 22H28V22L27.5 22ZM22.9 4.8875L23.351 4.67167C23.3481 4.6655 23.345 4.65939 23.3418 4.65334L22.9 4.8875ZM20.5134 3.5L20.5136 3H20.5134L20.5134 3.5ZM8.48668 3.50005L8.48667 3.00005L8.48643 3.00005L8.48668 3.50005ZM27.5 14H20.8333V15H27.5V14ZM20.4798 14.1464L17.1464 17.4798L17.8536 18.1869L21.1869 14.8536L20.4798 14.1464ZM17.5 17.3333L11.5 17.3334L11.5 18.3334L17.5 18.3333L17.5 17.3333ZM11.8536 17.4798L8.52022 14.1465L7.81311 14.8536L11.1464 18.1869L11.8536 17.4798ZM8.16667 14.0001H1.5V15.0001H8.16667V14.0001ZM5.64899 4.67172L1.04898 14.2842L1.95102 14.7159L6.55102 5.10338L5.64899 4.67172ZM1 14.5001V22.0001H2V14.5001H1ZM1 22.0001C1 22.8065 1.34201 23.5728 1.93908 24.1326L2.62302 23.403C2.21989 23.0251 2 22.5197 2 22.0001H1ZM1.93908 24.1326C2.53505 24.6913 3.33686 25.0001 4.16667 25.0001V24.0001C3.582 24.0001 3.02724 23.782 2.62302 23.403L1.93908 24.1326ZM4.16667 25.0001L24.8334 25L24.8334 24L4.16667 24.0001L4.16667 25.0001ZM24.8334 25C25.6632 25 26.465 24.6913 27.061 24.1325L26.377 23.403C25.9728 23.782 25.418 24 24.8334 24V25ZM27.061 24.1325C27.658 23.5728 28 22.8064 28 22H27C27 22.5196 26.7801 23.0251 26.377 23.403L27.061 24.1325ZM28 22L28 14.5L27 14.5L27 22L28 22ZM27.951 14.2842L23.351 4.67167L22.449 5.10333L27.049 14.7158L27.951 14.2842ZM23.3418 4.65334C23.0757 4.15135 22.668 3.73344 22.1686 3.44309L21.666 4.30761C22.0098 4.50749 22.2828 4.79062 22.4582 5.12166L23.3418 4.65334ZM22.1686 3.44309C21.6694 3.15285 21.0963 3.00029 20.5136 3L20.5131 4C20.9226 4.0002 21.322 4.10762 21.666 4.30761L22.1686 3.44309ZM20.5134 3L8.48667 3.00005L8.48668 4.00005L20.5134 4L20.5134 3ZM8.48643 3.00005C7.90372 3.00034 7.33068 3.1529 6.83144 3.44314L7.33403 4.30766C7.67804 4.10767 8.07741 4.00026 8.48692 4.00005L8.48643 3.00005ZM6.83144 3.44314C6.33199 3.73349 5.9243 4.1514 5.65823 4.65339L6.54178 5.12171C6.71725 4.79067 6.99022 4.50754 7.33403 4.30766L6.83144 3.44314Z" fill="var(--ds-icon-color, black)"/>
</svg>