<svg class="ds-icon" width="29" height="29" viewBox="0 0 29 29" fill="none" xmlns="http://www.w3.org/2000/svg">
  <g stroke="var(--ds-icon-color, black)" stroke-linejoin="round" stroke-linecap="round" stroke-width="var(--ds-icon-stroke, 1)">
    <path d="M18.5 25.5H10.5L10.5 22.5C11.1872 22.4045 11.678 22.2136 11.9234 21.975C12.3161 21.6409 12.5124 21.0205 12.5124 20.1614L12.5124 13.6955C12.5124 12.9318 12.3652 12.4068 12.1198 12.1205C11.8743 11.8341 11.3344 11.6432 10.5491 11.5V8.5H16.5L16.5 20.3523C16.5 21.1636 16.6472 21.7364 16.8927 21.9273C17.1381 22.1659 17.8128 22.3568 18.5 22.5L18.5 25.5Z"/>
    <path d="M17 3C17 4.38071 15.8807 5.5 14.5 5.5C13.1193 5.5 12 4.38071 12 3C12 1.61929 13.1193 0.5 14.5 0.5C15.8807 0.5 17 1.61929 17 3Z"/>
  </g>
</svg>