<svg class="ds-icon" width="29" height="29" viewBox="0 0 29 29" fill="none" xmlns="http://www.w3.org/2000/svg">
  <g stroke="var(--ds-icon-color, black)" stroke-linejoin="round" stroke-linecap="round" stroke-width="var(--ds-icon-stroke, 1)">
    <path d="M18.5 25.5H10.5L10.5 22.5C11.19 22.4 11.68 22.21 11.92 21.98C12.32 21.64 12.51 21.02 12.51 20.16L12.51 13.7C12.51 12.93 12.37 12.41 12.12 12.12C11.87 11.83 11.33 11.64 10.55 11.5V8.5H16.5L16.5 20.35C16.5 21.16 16.65 21.74 16.89 21.93C17.14 22.17 17.81 22.36 18.5 22.5L18.5 25.5Z"/>
    <path d="M17 3C17 4.38 15.88 5.5 14.5 5.5C13.12 5.5 12 4.38 12 3C12 1.62 13.12 0.5 14.5 0.5C15.88 0.5 17 1.62 17 3Z"/>
  </g>
</svg>