<svg width="29" height="29" viewBox="0 0 29 29" fill="none" xmlns="http://www.w3.org/2000/svg">
  <path d="M11 25.5H18M12.5 27.5H16.5M14.5 0.5V3.5M25.6428 19.9176L24.3492 18.9446M28 15.246H25.7004M27.8234 10.4032L25.2976 11.3221M25.425 5.32038L23.1397 7.39875M20.7917 1.45635L19.3784 4.55954M8.23127 1.45886L9.64048 4.55263M3.57942 5.3026L5.86756 7.38358M1.18318 10.3971L3.70543 11.3147M1 15.246H3.29818M3.27045 20L4.67073 18.946M18 21.5C18 20 22.5625 18.0946 22.5625 13.6065C22.5625 9.1185 18.9763 6.48047 14.5459 6.48047C10.1155 6.48047 6.53906 9.1185 6.53906 13.6065C6.53906 18.0946 11 20 11 21.5C11 23 11 23.5325 11 23.5325H18C18 23.5325 18 23 18 21.5Z" stroke="var(--ds-icon-color, black)" stroke-miterlimit="10" stroke-linecap="round"/>
</svg>