<svg class="ds-icon" width="29" height="29" viewBox="0 0 29 29" fill="none" xmlns="http://www.w3.org/2000/svg">
  <g stroke="var(--ds-icon-color, black)" stroke-linejoin="round" stroke-linecap="round" stroke-width="var(--ds-icon-stroke, 1)">
    <path d="M7.79 10.5V7.15C7.79 5.52 8.5 3.96 9.76 2.8C11.01 1.65 12.72 1 14.5 1C16.28 1 17.99 1.65 19.24 2.8C20.5 3.96 21.21 5.52 21.21 7.15V10.5M5.06 10.5H23.94C25.36 10.5 26.5 11.7 26.5 13.19V23.81C26.5 25.3 25.36 26.5 23.94 26.5H5.06C3.64 26.5 2.5 25.3 2.5 23.81V13.19C2.5 11.7 3.64 10.5 5.06 10.5ZM17 17C17 17.82 16.61 18.54 16 19V21.5C16 22.05 15.55 22.5 15 22.5H14C13.45 22.5 13 22.05 13 21.5V19C12.39 18.54 12 17.82 12 17C12 15.62 13.12 14.5 14.5 14.5C15.88 14.5 17 15.62 17 17Z"/>
  </g>
</svg>