<svg class="ds-icon" width="29" height="29" viewBox="0 0 29 29" fill="none" xmlns="http://www.w3.org/2000/svg">
  <g stroke="var(--ds-icon-color, black)" stroke-linejoin="round" stroke-linecap="round" stroke-width="var(--ds-icon-stroke, 1)">
    <path d="M7.79167 10.5V7.15384C7.79167 5.52174 8.49844 3.95649 9.75649 2.80242C11.0145 1.64835 12.7208 1 14.5 1C16.2792 1 17.9855 1.64835 19.2435 2.80242C20.5016 3.95649 21.2083 5.52174 21.2083 7.15384V10.5M5.05556 10.5H23.9444C25.3558 10.5 26.5 11.7023 26.5 13.1853V23.8147C26.5 25.2977 25.3558 26.5 23.9444 26.5H5.05556C3.64416 26.5 2.5 25.2977 2.5 23.8147V13.1853C2.5 11.7023 3.64416 10.5 5.05556 10.5ZM17 17C17 17.8179 16.6072 18.5441 16 19.0002V21.5C16 22.0523 15.5523 22.5 15 22.5H14C13.4477 22.5 13 22.0523 13 21.5V19.0002C12.3928 18.5441 12 17.8179 12 17C12 15.6193 13.1193 14.5 14.5 14.5C15.8807 14.5 17 15.6193 17 17Z"/>
  </g>
</svg>