<svg width="100%" height="100%" viewBox="0 0 15 16" fill="none" xmlns="http://www.w3.org/2000/svg">

    <path d="M7.50153 0.144619V1.12288M7.50153 2.42723L7.50214 3.40501M9.13196 1.77505H8.1537M6.84935 1.77505H5.87109" stroke="black"/>
    <circle cx="7.5017" cy="4.58764" r="0.978261" stroke="black"/>
    <path d="M2.60547 12.6367H12.3907" stroke="black"/>
    <path d="M2.60547 14.707H12.3907" stroke="black"/>
    <mask id="mask0_1974_42590" style="mask-type:alpha" maskUnits="userSpaceOnUse" x="0" y="3" width="15" height="9">
      <rect y="3.58594" width="15" height="7.75862" fill="#D9D9D9"/>
    </mask>
    <g mask="url(#mask0_1974_42590)">
      <path d="M7.50051 11.4338V5.88018M7.50051 5.88018C7.79351 5.52116 8.88778 4.58594 9.93609 4.58594C10.9844 4.58594 11.7531 5.20847 11.7531 6.22825C11.7531 7.24803 11.1942 8.94364 9.20155 11.4338M7.50051 5.88018C7.2075 5.52116 6.12526 4.58594 5.06493 4.58594C4.00461 4.58594 3.24791 5.20847 3.24791 6.22825C3.24791 7.24803 3.82307 8.94364 5.79947 11.4338M11.7918 6.0152C13.0191 6.0152 13.4541 6.57931 13.4541 7.60585C13.4541 8.63238 12.2995 10.3685 11.1861 11.4338M3.24791 6.0152C2.02062 6.0152 1.54688 6.57931 1.54688 7.60585C1.54688 8.63238 2.70152 10.3685 3.81493 11.4338" stroke="black"/>
    </g> 
  
</svg>


