<svg class="ds-icon" width="29" height="29" viewBox="0 0 29 29" fill="none" xmlns="http://www.w3.org/2000/svg">
  <path d="M18.5 2.5H6.9375C6.29103 2.5 5.67105 2.75567 5.21393 3.21075C4.75681 3.66584 4.5 4.28308 4.5 4.92667V24.0733C4.5 24.7169 4.75681 25.3342 5.21393 25.7892C5.67105 26.2443 6.29103 26.5 6.9375 26.5H15.5M18.5 2.5L24.5 8.5M18.5 2.5V8.5H24.5M24.5 17.5V8.5M8.08089 13.1778C7.0364 15.0771 7.31905 17.5115 8.92883 19.1212L9.96442 20.1568C11.4531 21.6455 13.6469 21.9992 15.4707 21.218L21.3228 27.0701C22.3576 28.1049 24.0353 28.1049 25.0701 27.0701C26.1049 26.0353 26.1049 24.3576 25.0701 23.3228L19.1778 17.4305C19.8848 15.6347 19.5124 13.5124 18.0606 12.0606L17.025 11.025C15.4507 9.45069 13.0876 9.1457 11.2077 10.1101L15.3345 14.2369C15.725 14.6275 15.725 15.2606 15.3345 15.6512L13.6515 17.3342C13.261 17.7247 12.6278 17.7247 12.2373 17.3342L8.08089 13.1778Z" stroke="var(--ds-icon-color, black)" stroke-linejoin="round"/>
</svg>