<svg class="ds-icon" width="29" height="29" viewBox="0 0 29 29" fill="none" xmlns="http://www.w3.org/2000/svg">
  <g stroke="var(--ds-icon-color, black)" stroke-linejoin="round" stroke-linecap="round" stroke-width="var(--ds-icon-stroke, 1)">
    <path d="M18.5 2.5H6.94C6.29 2.5 5.67 2.76 5.21 3.21C4.76 3.67 4.5 4.28 4.5 4.93V24.07C4.5 24.72 4.76 25.33 5.21 25.79C5.67 26.24 6.29 26.5 6.94 26.5H15.5M18.5 2.5L24.5 8.5M18.5 2.5V8.5H24.5M24.5 17.5V8.5M8.08 13.18C7.04 15.08 7.32 17.51 8.93 19.12L9.96 20.16C11.45 21.65 13.65 22 15.47 21.22L21.32 27.07C22.36 28.1 24.04 28.1 25.07 27.07C26.1 26.04 26.1 24.36 25.07 23.32L19.18 17.43C19.88 15.63 19.51 13.51 18.06 12.06L17.03 11.02C15.45 9.45 13.09 9.15 11.21 10.11L15.33 14.24C15.73 14.63 15.73 15.26 15.33 15.65L13.65 17.33C13.26 17.72 12.63 17.72 12.24 17.33L8.08 13.18Z"/>
  </g>
</svg>