<svg width="24" height="24" viewBox="0 0 24 24" class="ds-svg-icon" fill="none" xmlns="http://www.w3.org/2000/svg">
<path d="M5.5 10C5.5 9.72386 5.27614 9.5 5 9.5C4.72386 9.5 4.5 9.72386 4.5 10L5.5 10ZM4.5 14C4.5 14.2761 4.72386 14.5 5 14.5C5.27614 14.5 5.5 14.2761 5.5 14H4.5ZM19.5 10C19.5 9.72386 19.2761 9.5 19 9.5C18.7239 9.5 18.5 9.72386 18.5 10H19.5ZM18.5 14C18.5 14.2761 18.7239 14.5 19 14.5C19.2761 14.5 19.5 14.2761 19.5 14H18.5ZM5 12.5H19V11.5H5V12.5ZM4.5 10L4.5 14H5.5L5.5 10L4.5 10ZM18.5 10V14H19.5V10H18.5Z" fill="hsl(186,100%,33%)"/>
</svg>
