<svg fill="none" version="1.1" viewBox="0 0 24 24" xmlns="http://www.w3.org/2000/svg">
<g stroke="hsl(186,100%,33%)" fill="none" stroke-linecap="round" stroke-linejoin="round" stroke-width="0.8">
  <g id="grid" stroke-dasharray="1 1.5">
    <path d="m 8 2 v 20"/>
    <path d="m 16 2 v 12"/>
    <path d="m 2 8 h 20"/>
    <path d="m 2 16 h 9"/>
  </g>
  <path id="hand" d="m 14,16 v -4 c 0,0 0,-0.8 -0.8,-0.8 -0.8,0 -0.8,0.8 -0.8,0.8 v 6 l -1,-1 c 0,0 -0.5,-0.5 -1,0 -0.5,0.5 0,1 0,1 l 3,3 c 0,0 0.5,0.5 1.5,0.5 0,0 1.5,0 1.5,0 0,0 2.5,0 2.5,-2.5 v -3.5 c 0,0 -0.06,-0.67 -0.8,-0.71 -0.75,-0.03 -0.83,0.69 -0.83,0.69 V 16 l -0.02,-1.5 c 0,0 -0.17,-0.48 -0.78,-0.5 -0.61,-0.02 -0.83,0.5 -0.83,0.5 l -0.02,1.5 0.02,-1.5 c 0,0 -0.13,-0.58 -0.92,-0.58 -0.79,0 -0.75,0.52 -0.75,0.52z" stroke-width="0.95"/>
</g>
</svg>
