<svg width="24" height="24" viewBox="0 0 24 24" class="ds-svg-icon" fill="none" xmlns="http://www.w3.org/2000/svg">
<path d="M5 15H4.5V15.5H5V15ZM19 15V15.5H19.5V15H19ZM5 9V8.5H4.5V9H5ZM19 9H19.5V8.5H19V9ZM11.1686 13C11.1686 12.7239 10.9447 12.5 10.6686 12.5C10.3924 12.5 10.1686 12.7239 10.1686 13H11.1686ZM10.1686 15C10.1686 15.2761 10.3924 15.5 10.6686 15.5C10.9447 15.5 11.1686 15.2761 11.1686 15H10.1686ZM8.50283 13C8.50283 12.7239 8.27898 12.5 8.00283 12.5C7.72669 12.5 7.50283 12.7239 7.50283 13H8.50283ZM7.50283 15C7.50283 15.2761 7.72669 15.5 8.00283 15.5C8.27898 15.5 8.50283 15.2761 8.50283 15H7.50283ZM16.5 13C16.5 12.7239 16.2761 12.5 16 12.5C15.7239 12.5 15.5 12.7239 15.5 13H16.5ZM15.5 15C15.5 15.2761 15.7239 15.5 16 15.5C16.2761 15.5 16.5 15.2761 16.5 15H15.5ZM13.8343 13C13.8343 12.7239 13.6104 12.5 13.3343 12.5C13.0581 12.5 12.8343 12.7239 12.8343 13H13.8343ZM12.8343 15C12.8343 15.2761 13.0581 15.5 13.3343 15.5C13.6104 15.5 13.8343 15.2761 13.8343 15H12.8343ZM5 15.5H19V14.5H5V15.5ZM5 9.5H19V8.5H5V9.5ZM5.5 15V9H4.5V15H5.5ZM18.5 9V15H19.5V9H18.5ZM10.1686 13V15H11.1686V13H10.1686ZM7.50283 13V15H8.50283V13H7.50283ZM15.5 13V15H16.5V13H15.5ZM12.8343 13V15H13.8343V13H12.8343Z" fill="hsl(186,100%,33%)"/>
</svg>
