<svg width="24" height="24" viewBox="0 0 24 24" class="ds-svg-icon" fill="none" xmlns="http://www.w3.org/2000/svg">
<path d="M11.5 19C11.5 19.2761 11.7239 19.5 12 19.5C12.2761 19.5 12.5 19.2761 12.5 19H11.5ZM12.5 5C12.5 4.72386 12.2761 4.5 12 4.5C11.7239 4.5 11.5 4.72386 11.5 5L12.5 5ZM5 11.5C4.72386 11.5 4.5 11.7239 4.5 12C4.5 12.2761 4.72386 12.5 5 12.5L5 11.5ZM19 12.5C19.2761 12.5 19.5 12.2761 19.5 12C19.5 11.7239 19.2761 11.5 19 11.5V12.5ZM11.5 16L11.5 19H12.5L12.5 16H11.5ZM11.5 5L11.5 8H12.5L12.5 5L11.5 5ZM8 11.5L5 11.5L5 12.5L8 12.5L8 11.5ZM19 11.5L16 11.5V12.5L19 12.5V11.5ZM15.5 12C15.5 13.933 13.933 15.5 12 15.5V16.5C14.4853 16.5 16.5 14.4853 16.5 12H15.5ZM12 15.5C10.067 15.5 8.5 13.933 8.5 12H7.5C7.5 14.4853 9.51472 16.5 12 16.5V15.5ZM8.5 12C8.5 10.067 10.067 8.5 12 8.5V7.5C9.51472 7.5 7.5 9.51472 7.5 12H8.5ZM12 8.5C13.933 8.5 15.5 10.067 15.5 12H16.5C16.5 9.51472 14.4853 7.5 12 7.5V8.5Z" fill="hsl(186,100%,33%)"/>
</svg>
