<svg width="24" height="24" viewBox="0 0 24 24" xmlns="http://www.w3.org/2000/svg">
<circle cx="12" cy="12" r="3" fill="#3EDDC6"/>
<path d="M4 11.5C3.72386 11.5 3.5 11.7239 3.5 12C3.5 12.2761 3.72386 12.5 4 12.5V11.5ZM4 12.5H6V11.5H4V12.5Z" fill="hsl(186,100%,33%)"/>
<path d="M20 12.5C20.2761 12.5 20.5 12.2761 20.5 12C20.5 11.7239 20.2761 11.5 20 11.5V12.5ZM18 12.5H20V11.5H18V12.5Z" fill="hsl(186,100%,33%)"/>
<path d="M12.5 4C12.5 3.72386 12.2761 3.5 12 3.5C11.7239 3.5 11.5 3.72386 11.5 4L12.5 4ZM11.5 4L11.5 6L12.5 6L12.5 4L11.5 4Z" fill="hsl(186,100%,33%)"/>
<path d="M11.5 20C11.5 20.2761 11.7239 20.5 12 20.5C12.2761 20.5 12.5 20.2761 12.5 20L11.5 20ZM11.5 18L11.5 20L12.5 20L12.5 18L11.5 18Z" fill="hsl(186,100%,33%)"/>
<circle cx="12" cy="12" r="6" stroke="hsl(186,100%,33%)" fill="none"/>
</svg>
