<svg width="24" height="24" viewBox="0 0 24 24" xmlns="http://www.w3.org/2000/svg">
<path d="M3.5 6.5H14V17H3.5V6.5Z" stroke="hsl(186,100%,33%)" stroke-dasharray="1 1" fill="none"/>
<path d="M20.3464 9.0766C20.5555 8.86748 20.8392 8.75 21.1349 8.75C21.2813 8.75 21.4263 8.77884 21.5616 8.83488C21.6969 8.89092 21.8198 8.97306 21.9234 9.0766C22.0269 9.18015 22.1091 9.30308 22.1651 9.43837C22.2212 9.57366 22.25 9.71866 22.25 9.86509C22.25 10.0115 22.2212 10.1565 22.1651 10.2918C22.1091 10.4271 22.0269 10.55 21.9234 10.6536L15.3526 17.2243L13.25 17.75L13.7757 15.6474L20.3464 9.0766Z" stroke="hsl(186,100%,33%)" stroke-linecap="round" stroke-linejoin="round" fill="none"/>
<path d="M2.75 5.75H4.25V7.25H2.75V5.75Z" fill="hsl(186,100%,33%)"/>
<path d="M13.25 5.75H14.75V7.25H13.25V5.75Z" fill="hsl(186,100%,33%)"/>
<path d="M2.75 16.25H4.25V17.75H2.75V16.25Z" fill="hsl(186,100%,33%)"/>
<path d="M13.25 16.25H14.75V17.75H13.25V16.25Z" fill="hsl(186,100%,33%)"/>
</svg>
