<svg class="ds-icon" width="23" height="25" viewBox="0 0 23 25" xmlns="http://www.w3.org/2000/svg">
  <g fill="var(--ds-icon-color, black)">
    <path d="M22.3 14.92C21.96 16.62 19.35 18.49 16.3 18.86C14.71 19.04 13.16 19.22 11.5 19.15C8.78 19.01 6.67 18.49 6.67 18.49V19.24C7.05 21.93 9.35 22.08 11.54 22.17C13.74 22.23 15.69 21.61 15.69 21.61L15.79 23.61C15.79 23.61 14.24 24.43 11.5 24.58C9.99 24.67 8.1 24.55 5.92 23.98C1.18 22.71 0.36 17.65 0.24 12.5L0.23 8.36C0.23 3.11 3.65 1.58 3.65 1.58C5.4 0.78 8.37 0.42 11.46 0.42H11.54C14.63 0.42 17.6 0.78 19.35 1.58C19.35 1.58 22.77 3.11 22.77 8.36C22.77 8.36 22.82 12.24 22.3 14.92ZM18.75 8.77C18.75 7.46 18.39 6.46 17.72 5.67C17.05 4.91 16.15 4.51 15.03 4.51C13.75 4.51 12.77 5.01 12.1 6L11.5 7.06L10.9 6C10.22 5.01 9.25 4.51 7.96 4.51C6.85 4.51 5.95 4.91 5.27 5.67C4.6 6.46 4.25 7.46 4.25 8.77V15.12H6.79V8.95C6.79 7.67 7.33 6.99 8.43 6.99C9.64 6.99 10.24 7.78 10.24 9.32V12.69H12.74V9.32C12.74 7.78 13.35 6.99 14.57 6.99C15.66 6.99 16.2 7.67 16.2 8.95V15.12H18.75V8.77Z"/>
  </g>
</svg>