<svg class="ds-icon" width="29" height="29" viewBox="0 0 29 29" fill="none" xmlns="http://www.w3.org/2000/svg">
  <path d="M27.5 14.0139C27.505 15.957 27.051 17.8739 26.175 19.6083C25.1362 21.6867 23.5393 23.4349 21.5632 24.657C19.587 25.8791 17.3096 26.5269 14.9861 26.5278C13.043 26.5328 11.1261 26.0789 9.39165 25.2028L1 28L3.79722 19.6083C2.92115 17.8739 2.46715 15.957 2.47222 14.0139C2.47312 11.6904 3.1209 9.413 4.343 7.43684C5.5651 5.46068 7.31325 3.86379 9.39165 2.82504C11.1261 1.94897 13.043 1.49498 14.9861 1.50004H15.7222C18.7908 1.66934 21.6892 2.96455 23.8623 5.13769C26.0354 7.31083 27.3307 10.2092 27.5 13.2778V14.0139Z" stroke="var(--ds-icon-color, black)" stroke-linecap="round" stroke-linejoin="round"/>
</svg>