<svg class="ds-icon" width="29" height="29" viewBox="0 0 29 29" fill="none" xmlns="http://www.w3.org/2000/svg">
  <g stroke="var(--ds-icon-color, black)" stroke-linejoin="round" stroke-linecap="round" stroke-width="var(--ds-icon-stroke, 1)">
    <path d="M27.5 14.01C27.51 15.96 27.05 17.87 26.18 19.61C25.14 21.69 23.54 23.43 21.56 24.66C19.59 25.88 17.31 26.53 14.99 26.53C13.04 26.53 11.13 26.08 9.39 25.2L1 28L3.8 19.61C2.92 17.87 2.47 15.96 2.47 14.01C2.47 11.69 3.12 9.41 4.34 7.44C5.57 5.46 7.31 3.86 9.39 2.83C11.13 1.95 13.04 1.49 14.99 1.5H15.72C18.79 1.67 21.69 2.96 23.86 5.14C26.04 7.31 27.33 10.21 27.5 13.28V14.01Z"/>
  </g>
</svg>