<svg class="ds-icon" width="29" height="29" viewBox="0 0 29 29" fill="none" xmlns="http://www.w3.org/2000/svg">
  <path d="M1 22.6509L0.793496 22.1955C0.644128 22.2632 0.537478 22.3999 0.508091 22.5613C0.478705 22.7226 0.53032 22.8881 0.646216 23.0042L1 22.6509ZM5.80193 20.4732L6.00844 20.9286C6.12917 20.8738 6.22322 20.7734 6.2699 20.6493L5.80193 20.4732ZM12 4L12.3391 3.6326C12.2169 3.51976 12.0465 3.47511 11.8847 3.51348C11.7228 3.55185 11.5906 3.66822 11.532 3.82393L12 4ZM6.34164 27.9995L5.98786 28.3528C6.10365 28.4687 6.26891 28.5206 6.43019 28.4916C6.59147 28.4625 6.72829 28.3563 6.7964 28.2073L6.34164 27.9995ZM8.5319 23.2068L8.33144 22.7487C8.21878 22.798 8.12825 22.8871 8.07713 22.9989L8.5319 23.2068ZM25 16L25.2005 16.4581C25.3551 16.3904 25.4651 16.2493 25.4931 16.0828C25.5211 15.9164 25.4632 15.7471 25.3391 15.6326L25 16ZM17 22C17 21.7239 16.7761 21.5 16.5 21.5C16.2239 21.5 16 21.7239 16 22H17ZM10.8977 24.1402C10.7007 23.9466 10.3841 23.9494 10.1906 24.1464C9.99708 24.3434 9.99988 24.66 10.1969 24.8535L10.8977 24.1402ZM1.2065 23.1062L6.00844 20.9286L5.59543 20.0179L0.793496 22.1955L1.2065 23.1062ZM6.2699 20.6493L12.468 4.17607L11.532 3.82393L5.33396 20.2972L6.2699 20.6493ZM6.7964 28.2073L8.98666 23.4146L8.07713 22.9989L5.88688 27.7917L6.7964 28.2073ZM8.73235 23.6648L25.2005 16.4581L24.7995 15.5419L8.33144 22.7487L8.73235 23.6648ZM6.69542 27.6462L1.35378 22.2975L0.646216 23.0042L5.98786 28.3528L6.69542 27.6462ZM11.6609 4.3674L24.6609 16.3674L25.3391 15.6326L12.3391 3.6326L11.6609 4.3674ZM20.5 4.5C20.5 5.05228 20.0523 5.5 19.5 5.5V6.5C20.6046 6.5 21.5 5.60457 21.5 4.5H20.5ZM19.5 5.5C18.9477 5.5 18.5 5.05228 18.5 4.5H17.5C17.5 5.60457 18.3954 6.5 19.5 6.5V5.5ZM18.5 4.5C18.5 3.94772 18.9477 3.5 19.5 3.5V2.5C18.3954 2.5 17.5 3.39543 17.5 4.5H18.5ZM19.5 3.5C20.0523 3.5 20.5 3.94772 20.5 4.5H21.5C21.5 3.39543 20.6046 2.5 19.5 2.5V3.5ZM26.5 2.5C26.5 3.05228 26.0523 3.5 25.5 3.5V4.5C26.6046 4.5 27.5 3.60457 27.5 2.5H26.5ZM25.5 3.5C24.9477 3.5 24.5 3.05228 24.5 2.5H23.5C23.5 3.60457 24.3954 4.5 25.5 4.5V3.5ZM24.5 2.5C24.5 1.94772 24.9477 1.5 25.5 1.5V0.5C24.3954 0.5 23.5 1.39543 23.5 2.5H24.5ZM25.5 1.5C26.0523 1.5 26.5 1.94772 26.5 2.5H27.5C27.5 1.39543 26.6046 0.5 25.5 0.5V1.5ZM27.5 10.5C27.5 11.0523 27.0523 11.5 26.5 11.5V12.5C27.6046 12.5 28.5 11.6046 28.5 10.5H27.5ZM26.5 11.5C25.9477 11.5 25.5 11.0523 25.5 10.5H24.5C24.5 11.6046 25.3954 12.5 26.5 12.5V11.5ZM25.5 10.5C25.5 9.94771 25.9477 9.5 26.5 9.5V8.5C25.3954 8.5 24.5 9.39543 24.5 10.5H25.5ZM26.5 9.5C27.0523 9.5 27.5 9.94771 27.5 10.5H28.5C28.5 9.39543 27.6046 8.5 26.5 8.5V9.5ZM16 22C16 23.6569 14.6569 25 13 25V26C15.2091 26 17 24.2091 17 22H16ZM13 25C12.181 25 11.4395 24.6725 10.8977 24.1402L10.1969 24.8535C10.9181 25.5621 11.9084 26 13 26V25Z" fill="var(--ds-icon-color, black)"/>
</svg>