<svg class="ds-icon" width="29" height="29" viewBox="0 0 29 29" fill="none" xmlns="http://www.w3.org/2000/svg">
  <path d="M17.5021 25.625C17.197 26.1953 16.7591 26.6687 16.2322 26.9977C15.7054 27.3268 15.108 27.5 14.5 27.5C13.892 27.5 13.2946 27.3268 12.7678 26.9977C12.2409 26.6687 11.803 26.1953 11.4979 25.625M22.5055 9.62488C22.5055 7.43684 21.6621 5.33842 20.1608 3.79125C18.6594 2.24407 16.6232 1.37488 14.5 1.37488C12.3768 1.37488 10.3406 2.24407 8.83923 3.79125C7.3379 5.33842 6.49447 7.43684 6.49447 9.62488C6.49447 19.2499 2 22.5 2 22.5H27C27 22.5 22.5055 19.2499 22.5055 9.62488Z" stroke="var(--ds-icon-color, black)" stroke-linecap="round" stroke-linejoin="round"/>
</svg>