<svg class="ds-icon" width="29" height="29" viewBox="0 0 29 29" fill="none" xmlns="http://www.w3.org/2000/svg">
  <g stroke="var(--ds-icon-color, black)" stroke-linejoin="round" stroke-linecap="round" stroke-width="var(--ds-icon-stroke, 1)">
    <path d="M17.5 25.63C17.2 26.2 16.76 26.67 16.23 27C15.71 27.33 15.11 27.5 14.5 27.5C13.89 27.5 13.29 27.33 12.77 27C12.24 26.67 11.8 26.2 11.5 25.63M22.51 9.62C22.51 7.44 21.66 5.34 20.16 3.79C18.66 2.24 16.62 1.37 14.5 1.37C12.38 1.37 10.34 2.24 8.84 3.79C7.34 5.34 6.49 7.44 6.49 9.62C6.49 19.25 2 22.5 2 22.5H27C27 22.5 22.51 19.25 22.51 9.62Z"/>
  </g>
</svg>