<svg class="ds-icon" width="29" height="29" viewBox="0 0 29 29" fill="none" xmlns="http://www.w3.org/2000/svg">
  <path d="M25.0148 21.2621C25.1643 21.03 25.0974 20.7206 24.8653 20.571C24.6332 20.4214 24.3237 20.4883 24.1742 20.7205L25.0148 21.2621ZM26 16.0292C26 16.3053 26.2239 16.5292 26.5 16.5292C26.7761 16.5292 27 16.3053 27 16.0292H26ZM24.9649 13.2271C24.8142 12.9957 24.5045 12.9303 24.2731 13.081C24.0417 13.2317 23.9763 13.5415 24.127 13.7729L24.9649 13.2271ZM26.5 16.5L26.081 16.7729C26.1728 16.9138 26.3292 16.9991 26.4973 17C26.6655 17.0009 26.8228 16.9172 26.916 16.7774L26.5 16.5ZM28.916 13.7774C29.0692 13.5476 29.0071 13.2372 28.7774 13.084C28.5476 12.9308 28.2372 12.9929 28.084 13.2226L28.916 13.7774ZM14.5 26C8.14873 26 3 20.8513 3 14.5H2C2 21.4036 7.59644 27 14.5 27V26ZM3 14.5C3 8.14873 8.14873 3 14.5 3V2C7.59644 2 2 7.59644 2 14.5H3ZM14.5 3C20.8513 3 26 8.14873 26 14.5H27C27 7.59644 21.4036 2 14.5 2V3ZM24.1742 20.7205C22.1267 23.8978 18.5587 26 14.5 26V27C18.9127 27 22.791 24.7131 25.0148 21.2621L24.1742 20.7205ZM26 14.5V16.0292H27V14.5H26ZM15 16.5C16.1046 16.5 17 15.6046 17 14.5H16C16 15.0523 15.5523 15.5 15 15.5V16.5ZM17 14.5C17 13.3954 16.1046 12.5 15 12.5V13.5C15.5523 13.5 16 13.9477 16 14.5H17ZM24.127 13.7729L26.081 16.7729L26.919 16.2271L24.9649 13.2271L24.127 13.7729ZM26.916 16.7774L28.916 13.7774L28.084 13.2226L26.084 16.2226L26.916 16.7774ZM15 12.5C14.4479 12.5 13.9472 12.7244 13.5858 13.0858L14.2929 13.7929C14.4744 13.6114 14.7237 13.5 15 13.5V12.5ZM13.5858 13.0858C13.2244 13.4472 13 13.9479 13 14.5H14C14 14.2237 14.1114 13.9744 14.2929 13.7929L13.5858 13.0858ZM10.1464 10.3536L13.5858 13.7929L14.2929 13.0858L10.8536 9.64645L10.1464 10.3536ZM13 14.5C13 15.0521 13.2244 15.5528 13.5858 15.9142L14.2929 15.2071C14.1114 15.0256 14 14.7763 14 14.5H13ZM13.5858 15.9142C13.9472 16.2756 14.4479 16.5 15 16.5V15.5C14.7237 15.5 14.4744 15.3886 14.2929 15.2071L13.5858 15.9142ZM8.85355 21.3536L14.2929 15.9142L13.5858 15.2071L8.14645 20.6464L8.85355 21.3536Z" fill="var(--ds-icon-color, black)"/>
</svg>