<svg class="ds-icon" width="29" height="29" viewBox="0 0 29 29" fill="none" xmlns="http://www.w3.org/2000/svg">
  <path d="M26.4289 20.4617V24.0881C26.4303 24.4248 26.3615 24.758 26.2269 25.0665C26.0923 25.375 25.8949 25.6519 25.6473 25.8795C25.3998 26.1071 25.1075 26.2803 24.7893 26.3882C24.471 26.4961 24.1338 26.5361 23.7992 26.5058C20.0871 26.1016 16.5214 24.8305 13.3886 22.7947C10.4739 20.9387 8.0028 18.4625 6.1507 15.5417C4.11199 12.3881 2.84326 8.79764 2.44729 5.06115C2.41715 4.72687 2.45679 4.38996 2.5637 4.07187C2.67061 3.75379 2.84245 3.46149 3.06826 3.2136C3.29408 2.96571 3.56893 2.76765 3.87532 2.63203C4.18171 2.49642 4.51292 2.42621 4.84787 2.4259H8.46683C9.05227 2.42012 9.61982 2.62787 10.0637 3.01041C10.5076 3.39295 10.7975 3.92418 10.8795 4.50509C11.0322 5.66565 11.3155 6.80516 11.7239 7.9019C11.8862 8.33457 11.9213 8.8048 11.8251 9.25686C11.7289 9.70892 11.5054 10.1239 11.1811 10.4525L9.64903 11.9878C11.3663 15.0141 13.8669 17.5199 16.8869 19.2407L18.419 17.7055C18.747 17.3805 19.161 17.1565 19.6122 17.0601C20.0633 16.9637 20.5325 16.9989 20.9643 17.1615C22.0588 17.5708 23.1959 17.8547 24.3541 18.0077C24.9401 18.0906 25.4752 18.3863 25.8578 18.8388C26.2404 19.2912 26.4436 19.8688 26.4289 20.4617Z" stroke="var(--ds-icon-color, black)" stroke-linecap="round" stroke-linejoin="round"/>
</svg>