<svg class="ds-icon" width="29" height="29" viewBox="0 0 29 29" fill="none" xmlns="http://www.w3.org/2000/svg">
  <g stroke="var(--ds-icon-color, black)" stroke-linejoin="round" stroke-linecap="round" stroke-width="var(--ds-icon-stroke, 1)">
    <path d="M26.43 20.46V24.09C26.43 24.42 26.36 24.76 26.23 25.07C26.09 25.38 25.89 25.65 25.65 25.88C25.4 26.11 25.11 26.28 24.79 26.39C24.47 26.5 24.13 26.54 23.8 26.51C20.09 26.1 16.52 24.83 13.39 22.79C10.47 20.94 8 18.46 6.15 15.54C4.11 12.39 2.84 8.8 2.45 5.06C2.42 4.73 2.46 4.39 2.56 4.07C2.67 3.75 2.84 3.46 3.07 3.21C3.29 2.97 3.57 2.77 3.88 2.63C4.18 2.5 4.51 2.43 4.85 2.43H8.47C9.05 2.42 9.62 2.63 10.06 3.01C10.51 3.39 10.8 3.92 10.88 4.51C11.03 5.67 11.32 6.81 11.72 7.9C11.89 8.33 11.92 8.8 11.83 9.26C11.73 9.71 11.51 10.12 11.18 10.45L9.65 11.99C11.37 15.01 13.87 17.52 16.89 19.24L18.42 17.71C18.75 17.38 19.16 17.16 19.61 17.06C20.06 16.96 20.53 17 20.96 17.16C22.06 17.57 23.2 17.85 24.35 18.01C24.94 18.09 25.48 18.39 25.86 18.84C26.24 19.29 26.44 19.87 26.43 20.46Z"/>
  </g>
</svg>