<svg class="ds-icon" width="29" height="29" viewBox="0 0 29 29" fill="none" xmlns="http://www.w3.org/2000/svg">
  <g stroke="var(--ds-icon-color, black)" stroke-linejoin="round" stroke-linecap="round" stroke-width="var(--ds-icon-stroke, 1)">
    <path d="M27.75 4.75L25.5 2.5C25.5 2.5 17.25 5.25 12.5 8L7.21 2.71C6.42 1.92 5.42 1.37 4.31 1.22C3.47 1.1 2.43 1 1.5 1L1 1.5C1 2.43 1.1 3.47 1.22 4.31C1.37 5.42 1.92 6.42 2.71 7.21L8 12.5C5.25 17.25 2.5 25.5 2.5 25.5L4.75 27.75C4.75 27.75 9.25 21.25 13 17.5C13 17.5 15.78 19.28 20 23.5C20 23.5 19.5 25.5 19.5 27.5L20 28C20 28 22 25.5 23.75 23.75C25.5 22 28 20 28 20L27.5 19.5C25.5 19.5 23.5 20 23.5 20C19.28 15.78 17.5 13 17.5 13C21.25 9.25 27.75 4.75 27.75 4.75Z"/>
  </g>
</svg>
