<svg class="ds-icon" width="29" height="29" viewBox="0 0 29 29" fill="none" xmlns="http://www.w3.org/2000/svg">
  <g stroke="var(--ds-icon-color, black)" stroke-linejoin="round" stroke-linecap="round" stroke-width="var(--ds-icon-stroke, 1)">
    <path d="M27.7496 4.75055L25.5 2.49973C25.5 2.49973 17.2503 5.25005 12.4995 8.00036L7.21 2.71082C6.42086 1.92168 5.41695 1.37432 4.30995 1.22336C3.46559 1.108 2.42977 1 1.4995 1L1 1.4995C1 2.42855 1.108 3.46559 1.22336 4.30995C1.37432 5.41695 1.92168 6.42086 2.71082 7.21123L8.00036 12.5008C5.25005 17.2503 2.49973 25.5 2.49973 25.5L4.75054 27.7496C4.75054 27.7496 9.24973 21.25 13.0003 17.4995C13.0003 17.4995 15.7788 19.279 19.9994 23.5008C19.9994 23.5008 19.4999 25.5 19.4999 27.5005L19.9994 28C19.9994 28 21.9999 25.5 23.75 23.75C25.5 21.9999 28 20.0006 28 20.0006L27.5005 19.4999C25.5 19.4999 23.4996 19.9994 23.4996 19.9994C19.279 15.7788 17.4995 13.0003 17.4995 13.0003C21.25 9.24973 27.7496 4.75055 27.7496 4.75055Z"/>
  </g>
</svg>
