<svg width="29" height="29" viewBox="0 0 29 29" fill="none" xmlns="http://www.w3.org/2000/svg">
  <path d="M0.5 14.0016C0.223858 14.0016 0 14.2254 0 14.5016C0 14.7777 0.223858 15.0016 0.5 15.0016V14.0016ZM28.5 15.0016C28.7761 15.0016 29 14.7777 29 14.5016C29 14.2254 28.7761 14.0016 28.5 14.0016V15.0016ZM14.9922 0.5C14.9922 0.223858 14.7683 0 14.4922 0C14.216 0 13.9922 0.223858 13.9922 0.5H14.9922ZM14 28.5C14 28.7761 14.2239 29 14.5 29C14.7761 29 15 28.7761 15 28.5H14ZM0.5 15.0016H5.49844V14.0016H0.5V15.0016ZM23.4984 15.0016H28.5V14.0016H23.4984V15.0016ZM13.9922 0.5V5.5H14.9922V0.5H13.9922ZM14 23.5V28.5H15V23.5H14ZM22.9985 14.5C22.9985 19.1944 19.1929 23 14.4985 23V24C19.7452 24 23.9985 19.7467 23.9985 14.5H22.9985ZM14.4985 23C9.80403 23 5.99845 19.1944 5.99845 14.5H4.99845C4.99845 19.7467 9.25175 24 14.4985 24V23ZM5.99845 14.5C5.99845 9.80556 9.80403 5.99998 14.4985 5.99998V4.99998C9.25175 4.99998 4.99845 9.25327 4.99845 14.5H5.99845ZM14.4985 5.99998C19.1929 5.99998 22.9985 9.80556 22.9985 14.5H23.9985C23.9985 9.25327 19.7452 4.99998 14.4985 4.99998V5.99998Z" fill="var(--ds-icon-color, black)"/>
</svg>