<svg class="ds-icon" width="29" height="29" viewBox="0 0 29 29" fill="none" xmlns="http://www.w3.org/2000/svg">
  <path d="M27 14.5C27 21.4036 21.4036 27 14.5 27V28C21.9558 28 28 21.9558 28 14.5H27ZM14.5 27C7.59644 27 2 21.4036 2 14.5H1C1 21.9558 7.04416 28 14.5 28V27ZM2 14.5C2 7.59644 7.59644 2 14.5 2V1C7.04416 1 1 7.04416 1 14.5H2ZM14.5 2C21.4036 2 27 7.59644 27 14.5H28C28 7.04416 21.9558 1 14.5 1V2ZM20 14.5C20 17.5376 17.5376 20 14.5 20V21C18.0899 21 21 18.0899 21 14.5H20ZM14.5 20C11.4624 20 9 17.5376 9 14.5H8C8 18.0899 10.9101 21 14.5 21V20ZM9 14.5C9 11.4624 11.4624 9 14.5 9V8C10.9101 8 8 10.9101 8 14.5H9ZM14.5 9C17.5376 9 20 11.4624 20 14.5H21C21 10.9101 18.0899 8 14.5 8V9Z" fill="var(--ds-icon-color, black)"/>
  <path d="M20.5 14.5C20.5 17.8137 17.8137 20.5 14.5 20.5C11.1863 20.5 8.5 17.8137 8.5 14.5C8.5 11.1863 11.1863 8.5 14.5 8.5C17.8137 8.5 20.5 11.1863 20.5 14.5Z" fill="var(--ds-icon-color, black)"/>
</svg>