<svg width="29" height="29" viewBox="0 0 29 29" fill="none" xmlns="http://www.w3.org/2000/svg">
  <path fill-rule="evenodd" clip-rule="evenodd" d="M28 14.5C28 21.9558 21.9558 28 14.5 28C7.04416 28 1 21.9558 1 14.5C1 7.04416 7.04416 1 14.5 1C21.9558 1 28 7.04416 28 14.5ZM14.5 20.5C17.8137 20.5 20.5 17.8137 20.5 14.5C20.5 11.1863 17.8137 8.5 14.5 8.5C11.1863 8.5 8.5 11.1863 8.5 14.5C8.5 17.8137 11.1863 20.5 14.5 20.5Z" fill="var(--primary, #0090CC)"/>
  <path d="M20.5 14.5H24.5M20.5 14.5C20.5 17.8137 17.8137 20.5 14.5 20.5M20.5 14.5C20.5 11.1863 17.8137 8.5 14.5 8.5M4.5 14.5H8.5M8.5 14.5C8.5 17.8137 11.1863 20.5 14.5 20.5M8.5 14.5C8.5 11.1863 11.1863 8.5 14.5 8.5M14.5 20.5V24.5M14.5 4.5V8.5" stroke="var(--background-color, white)" stroke-linecap="round"/>
</svg>