<svg width="29" height="29" viewBox="0 0 29 29" fill="none" xmlns="http://www.w3.org/2000/svg">
  <path d="M20.5 14.5C20.5 17.8137 17.8137 20.5 14.5 20.5C11.1863 20.5 8.5 17.8137 8.5 14.5C8.5 11.1863 11.1863 8.5 14.5 8.5C17.8137 8.5 20.5 11.1863 20.5 14.5Z" fill="var(--ds-icon-color, black)"/>
  <path d="M0.5 14.0016C0.223858 14.0016 0 14.2254 0 14.5016C0 14.7777 0.223858 15.0016 0.5 15.0016V14.0016ZM28.5 15.0016C28.7761 15.0016 29 14.7777 29 14.5016C29 14.2254 28.7761 14.0016 28.5 14.0016V15.0016ZM14.9922 0.5C14.9922 0.223858 14.7683 0 14.4922 0C14.216 0 13.9922 0.223858 13.9922 0.5H14.9922ZM14 28.5C14 28.7761 14.2239 29 14.5 29C14.7761 29 15 28.7761 15 28.5H14ZM0.5 15.0016H3.5V14.0016H0.5V15.0016ZM25.5 15.0016H28.5V14.0016H25.5V15.0016ZM13.9922 0.5V3.50159H14.9922V0.5H13.9922ZM14 25.5016V28.5H15V25.5016H14ZM24.9984 14.5C24.9984 20.299 20.2974 25 14.4984 25V26C20.8497 26 25.9984 20.8513 25.9984 14.5H24.9984ZM14.4984 25C8.69945 25 3.99844 20.299 3.99844 14.5H2.99844C2.99844 20.8513 8.14717 26 14.4984 26V25ZM3.99844 14.5C3.99844 8.70101 8.69945 4 14.4984 4V3C8.14717 3 2.99844 8.14873 2.99844 14.5H3.99844ZM14.4984 4C20.2974 4 24.9984 8.70101 24.9984 14.5H25.9984C25.9984 8.14873 20.8497 3 14.4984 3V4Z" fill="var(--ds-icon-color, black)"/>
</svg>