<svg class="ds-icon" width="29" height="29" viewBox="0 0 29 29" fill="none" xmlns="http://www.w3.org/2000/svg">
  <path d="M17.9869 17.8064C17.9869 18.0825 18.2107 18.3064 18.4869 18.3064C18.763 18.3064 18.9869 18.0825 18.9869 17.8064H17.9869ZM21.1615 16.02L21.5189 15.6704L21.1615 16.02ZM16.4966 9.51899L16.4943 9.01899L16.4966 9.51899ZM24.5 27L24.0507 26.7807L24 26.8845V27H24.5ZM25.6418 24.6612L26.0911 24.8806L25.6418 24.6612ZM10.9962 16.5001L10.9962 16.0001H10.9962L10.9962 16.5001ZM12.2718 16.5001L12.2718 17.0001L12.2718 16.5001ZM23.6084 18.4208C23.6084 18.697 23.8323 18.9208 24.1084 18.9208C24.3845 18.9208 24.6084 18.697 24.6084 18.4208H23.6084ZM21.154 17.8064C21.154 18.0825 21.3778 18.3064 21.654 18.3064C21.9301 18.3064 22.154 18.0825 22.154 17.8064H21.154ZM10.4966 16.997L9.99664 16.9941L10.4966 16.997ZM13.624 27.0632L13.8726 26.6295H13.8726L13.624 27.0632ZM14.2507 18.21L14.7454 18.1374L14.2507 18.21ZM5.5 5.5V5H5V5.5H5.5ZM7.5 5.5H8V5H7.5V5.5ZM7.5 7.5V8H8V7.5H7.5ZM5.5 7.5H5V8H5.5V7.5ZM5.5 21.5V21H5V21.5H5.5ZM7.5 21.5H8V21H7.5V21.5ZM7.5 23.5V24H8V23.5H7.5ZM5.5 23.5H5V24H5.5V23.5ZM21.5 5.5V5H21V5.5H21.5ZM23.5 5.5H24V5H23.5V5.5ZM23.5 7.5V8H24V7.5H23.5ZM21.5 7.5H21V8H21.5V7.5ZM15.0246 20.9672V20.0783H14.0246V20.9672H15.0246ZM15.0246 20.0783V11.5H14.0246V20.0783H15.0246ZM25.9529 19.7717V21.1514H26.9529V19.7717H25.9529ZM17.9869 11.5V15.5H18.9869V11.5H17.9869ZM17.9869 15.5V17.8064H18.9869V15.5H17.9869ZM19.9259 15H18.4869V16H19.9259V15ZM21.1615 15.52H21.1552V16.52H21.1615V15.52ZM16.4989 10.019C17.3196 10.0152 17.9869 10.6794 17.9869 11.5H18.9869C18.9869 10.1252 17.869 9.01265 16.4943 9.01899L16.4989 10.019ZM26.9529 19.7717C26.9529 19.0607 26.6056 18.3745 26.1266 17.8755C25.6481 17.3769 24.975 17.0001 24.2505 17.0001V18.0001C24.6306 18.0001 25.0586 18.2069 25.4052 18.5679C25.7512 18.9285 25.9529 19.3782 25.9529 19.7717H26.9529ZM24.6084 18.0001C24.6084 16.7696 23.6108 15.772 22.3803 15.772V16.772C23.0585 16.772 23.6084 17.3218 23.6084 18.0001H24.6084ZM22.154 17.2282C22.154 16.6221 21.9113 16.0716 21.5189 15.6704L20.804 16.3696C21.021 16.5915 21.154 16.8938 21.154 17.2282H22.154ZM21.5189 15.6704C21.115 15.2574 20.55 15 19.9259 15V16C20.2701 16 20.5804 16.141 20.804 16.3696L21.5189 15.6704ZM15.0246 11.5C15.0246 10.6847 15.6835 10.0227 16.4989 10.019L16.4943 9.01899C15.1285 9.02529 14.0246 10.1342 14.0246 11.5H15.0246ZM24.9493 27.2194L26.0911 24.8806L25.1925 24.4419L24.0507 26.7807L24.9493 27.2194ZM10.9962 17.0001L12.2718 17.0001L12.2718 16.0001L10.9962 16.0001L10.9962 17.0001ZM23.6084 18.0001V18.4208H24.6084V18.0001H23.6084ZM22.3803 15.772H21.5V16.772H22.3803V15.772ZM21.154 17.2282V17.8064H22.154V17.2282H21.154ZM9.99664 16.9941C9.9818 19.5714 10.014 21.7243 10.4441 23.451C10.8831 25.2134 11.7433 26.5616 13.3754 27.497L13.8726 26.6295C12.5185 25.8533 11.8001 24.7576 11.4145 23.2094C11.02 21.6255 10.9816 19.601 10.9966 16.9999L9.99664 16.9941ZM24 27V28.5001H25V27H24ZM13.756 18.2825L14.0299 20.1508L15.0193 20.0058L14.7454 18.1374L13.756 18.2825ZM12.2718 17.0001C13.0162 17.0001 13.648 17.546 13.756 18.2825L14.7454 18.1374C14.5654 16.9099 13.5125 16.0001 12.2718 16.0001L12.2718 17.0001ZM25.9529 21.1514C25.9529 22.2918 25.6928 23.4171 25.1925 24.4419L26.0911 24.8806C26.6582 23.7192 26.9529 22.4438 26.9529 21.1514H25.9529ZM13.3754 27.497C13.7797 27.7288 14.0246 28.1113 14.0246 28.5001H15.0246C15.0246 27.679 14.518 26.9993 13.8726 26.6295L13.3754 27.497ZM10.9962 16.0001C10.4463 16.0001 9.9998 16.4447 9.99664 16.9941L10.9966 16.9999L10.9962 17.0001L10.9962 16.0001ZM5.5 6H7.5V5H5.5V6ZM7 5.5V7.5H8V5.5H7ZM7.5 7H5.5V8H7.5V7ZM6 7.5V5.5H5V7.5H6ZM5.5 22H7.5V21H5.5V22ZM7 21.5V23.5H8V21.5H7ZM7.5 23H5.5V24H7.5V23ZM6 23.5V21.5H5V23.5H6ZM21.5 6H23.5V5H21.5V6ZM23 5.5V7.5H24V5.5H23ZM23.5 7H21.5V8H23.5V7ZM22 7.5V5.5H21V7.5H22Z" fill="var(--ds-icon-color, black)"/>
  <path d="M6.5 6.5H22.5M6.5 6.5V22.5M6.5 6.5V0.5M6.5 6.5H0.5M22.5 6.5V16.5M22.5 6.5V0.5M22.5 6.5H28.5M6.5 22.5H10.5M6.5 22.5H0.5M6.5 22.5V28.5M28.5 22.5H27" stroke="var(--ds-icon-color, black)" stroke-dasharray="1 1"/>
</svg>