<svg class="ds-icon" width="29" height="29" viewBox="0 0 29 29" fill="none" xmlns="http://www.w3.org/2000/svg">
  <path d="M26.5 17.5V2.5H2.5V26.5H17.5" stroke="var(--ds-icon-color, black)" stroke-dasharray="1 1" stroke-width="var(--ds-icon-stroke, 1)"/>
  <path d="M22.5543 18.4975L23.0273 18.3357C23.0027 18.2635 22.9618 18.1979 22.9078 18.144L22.5543 18.4975ZM18.5 22.4482L18.1465 22.8018C18.201 22.8564 18.2675 22.8976 18.3406 22.9221L18.5 22.4482ZM24 24L23.9079 24.4915C24.0648 24.5208 24.2262 24.4736 24.3424 24.3643C24.4587 24.2551 24.5158 24.0969 24.4962 23.9386L24 24ZM22 23.6254L21.8406 24.0993C21.8626 24.1067 21.8851 24.1125 21.9079 24.1168L22 23.6254ZM23.7524 22L24.2486 21.9386C24.2444 21.9044 24.2366 21.8707 24.2255 21.8382L23.7524 22ZM9.60504 9.49909L9.25609 9.141L9.60504 9.49909ZM13.5815 9.52481L13.935 9.17125L13.5815 9.52481ZM9.57899 13.5273L9.22544 13.8808L9.57899 13.5273ZM1.5 1.5V1H1V1.5H1.5ZM3.5 1.5H4V1H3.5V1.5ZM3.5 3.5V4H4V3.5H3.5ZM1.5 3.5H1V4H1.5V3.5ZM25.5 1.5V1H25V1.5H25.5ZM27.5 1.5H28V1H27.5V1.5ZM27.5 3.5V4H28V3.5H27.5ZM25.5 3.5H25V4H25.5V3.5ZM1.5 25.5V25H1V25.5H1.5ZM3.5 25.5H4V25H3.5V25.5ZM3.5 27.5V28H4V27.5H3.5ZM1.5 27.5H1V28H1.5V27.5ZM13.2279 9.87836L22.2007 18.8511L22.9078 18.144L13.935 9.17125L13.2279 9.87836ZM18.8536 22.0947L9.93255 13.1737L9.22544 13.8808L18.1465 22.8018L18.8536 22.0947ZM24.0921 23.5085L22.0921 23.1339L21.9079 24.1168L23.9079 24.4915L24.0921 23.5085ZM23.2562 22.0614L23.5038 24.0614L24.4962 23.9386L24.2486 21.9386L23.2562 22.0614ZM22.34 23.992L24.0924 22.3666L23.4124 21.6334L21.66 23.2588L22.34 23.992ZM9.95399 9.85719C10.8673 8.96725 12.3262 8.97669 13.2279 9.87836L13.935 9.17125C12.6464 7.88262 10.5613 7.86914 9.25609 9.141L9.95399 9.85719ZM9.25609 9.141C7.9268 10.4363 7.91301 12.5684 9.22544 13.8808L9.93255 13.1737C9.01422 12.2554 9.02386 10.7636 9.95399 9.85719L9.25609 9.141ZM1.5 2H3.5V1H1.5V2ZM3 1.5V3.5H4V1.5H3ZM3.5 3H1.5V4H3.5V3ZM2 3.5V1.5H1V3.5H2ZM25.5 2H27.5V1H25.5V2ZM27 1.5V3.5H28V1.5H27ZM27.5 3H25.5V4H27.5V3ZM26 3.5V1.5H25V3.5H26ZM1.5 26H3.5V25H1.5V26ZM3 25.5V27.5H4V25.5H3ZM3.5 27H1.5V28H3.5V27ZM2 27.5V25.5H1V27.5H2ZM22.1594 23.1515L18.6594 21.9743L18.3406 22.9221L21.8406 24.0993L22.1594 23.1515ZM22.0812 18.6594L23.2793 22.1618L24.2255 21.8382L23.0273 18.3357L22.0812 18.6594Z" fill="var(--ds-icon-color, black)"/>
</svg>