<svg class="ds-icon" width="29" height="29" viewBox="0 0 29 29" fill="none" xmlns="http://www.w3.org/2000/svg">
  <g stroke="var(--ds-icon-color, black)" stroke-width="var(--ds-icon-stroke, 1)">
    <path d="M6.5 6.5H22.5M6.5 6.5V22.5M6.5 6.5V0.5M6.5 6.5H0.5M22.5 6.5V16.5M22.5 6.5V0.5M22.5 6.5H28.5M6.5 22.5H10.5M6.5 22.5H0.5M6.5 22.5V28.5M28.5 22.5H27" stroke-dasharray="1 1"/>
    <rect x="5.5" y="5.5" height="2" width="2"/>
    <rect x="21.5" y="5.5" height="2" width="2"/>
    <rect x="5.5" y="21.5" height="2" width="2"/>
    <g stroke-linecap="round" stroke-linejoin="round">
      <path d="m 14.506802,28.108686 c 0,0 -0.384949,-0.910095 -1.283213,-1.314565 -0.715099,-0.321995 -2.575891,-2.387779 -2.653087,-5.656668 -0.05926,-2.509341 0.02145,-4.551954 0.02145,-4.551954 0,0 1.340272,-0.359862 2.6837,0.226283 1.343429,0.586145 1.228053,3.918999 1.228053,3.918999 l -0.0056,-9.419795 c 0,0 0.01865,-1.8336633 2.062872,-1.766655 2.044224,0.067008 1.94338,1.77257 1.94338,1.77257 l -0.04999,6.520919"/>
      <path d="m 18.697617,15.551179 c 0,0 3.374184,-0.657504 2.916031,2.368258"/>
      <path d="m 21.660381,16.335866 c 0,0 2.331434,-0.655434 2.463792,2.081506"/>
      <path d="m 24.477475,28.13501 -0.0098,-1.125122 c 0,0 2.093633,-2.942023 2.070856,-6.853811 -0.111606,-2.598899 -2.431406,-2.701152 -2.431406,-2.701152"/>
    </g>
  </g>
</svg>