<svg class="ds-icon" width="29" height="29" viewBox="0 0 29 29" fill="none" xmlns="http://www.w3.org/2000/svg">
  <g stroke="var(--ds-icon-color, black)" stroke-width="var(--ds-icon-stroke, 1)">
    <path d="M6.5 6.5H22.5M6.5 6.5V22.5M6.5 6.5V0.5M6.5 6.5H0.5M22.5 6.5V16.5M22.5 6.5V0.5M22.5 6.5H28.5M6.5 22.5H10.5M6.5 22.5H0.5M6.5 22.5V28.5M28.5 22.5H27" stroke-dasharray="1 1"/>
    <rect x="5.5" y="5.5" height="2" width="2"/>
    <rect x="21.5" y="5.5" height="2" width="2"/>
    <rect x="5.5" y="21.5" height="2" width="2"/>
    <g stroke-linecap="round" stroke-linejoin="round">
      <path d="m 14.51,28.11 c 0,0 -0.38,-0.91 -1.28,-1.31 -0.72,-0.32 -2.58,-2.39 -2.65,-5.66 -0.06,-2.51 0.02,-4.55 0.02,-4.55 0,0 1.34,-0.36 2.68,0.23 1.34,0.59 1.23,3.92 1.23,3.92 l -0.01,-9.42 c 0,0 0.02,-1.83 2.06,-1.77 2.04,0.07 1.94,1.77 1.94,1.77 l -0.05,6.52"/>
      <path d="m 18.7,15.55 c 0,0 3.37,-0.66 2.92,2.37"/>
      <path d="m 21.66,16.34 c 0,0 2.33,-0.66 2.46,2.08"/>
      <path d="m 24.48,28.14 -0.01,-1.13 c 0,0 2.09,-2.94 2.07,-6.85 -0.11,-2.6 -2.43,-2.7 -2.43,-2.7"/>
    </g>
  </g>
</svg>