<svg class="ds-icon" width="29" height="29" viewBox="0 0 29 29" fill="none" xmlns="http://www.w3.org/2000/svg">
  <g stroke="var(--ds-icon-color, black)" stroke-linejoin="round" stroke-linecap="round" stroke-width="var(--ds-icon-stroke, 1)">
    <path d="M6.5 11.5V2.5H22.5V11.5M6.5 21.4H4C3.33696 21.4 2.70107 21.1846 2.23223 20.8012C1.76339 20.4178 1.5 19.8978 1.5 19.3556V13.5444C1.5 13.0022 1.76339 12.4822 2.23223 12.0988C2.70107 11.7154 3.33696 11.5 4 11.5H25C25.663 11.5 26.2989 11.7154 26.7678 12.0988C27.2366 12.4822 27.5 13.0022 27.5 13.5444V19.3556C27.5 19.8978 27.2366 20.4178 26.7678 20.8012C26.2989 21.1846 25.663 21.4 25 21.4H22.5M6.5 16.5H22.5V26.5H6.5V16.5Z"/>
  </g>
</svg>