<svg class="ds-icon" width="29" height="29" viewBox="0 0 29 29" fill="none" xmlns="http://www.w3.org/2000/svg">
  <g stroke="var(--ds-icon-color, black)" stroke-linejoin="round" stroke-linecap="round" stroke-width="var(--ds-icon-stroke, 1)">
    <path d="M6.5 11.5V2.5H22.5V11.5M6.5 21.4H4C3.34 21.4 2.7 21.18 2.23 20.8C1.76 20.42 1.5 19.9 1.5 19.36V13.54C1.5 13 1.76 12.48 2.23 12.1C2.7 11.72 3.34 11.5 4 11.5H25C25.66 11.5 26.3 11.72 26.77 12.1C27.24 12.48 27.5 13 27.5 13.54V19.36C27.5 19.9 27.24 20.42 26.77 20.8C26.3 21.18 25.66 21.4 25 21.4H22.5M6.5 16.5H22.5V26.5H6.5V16.5Z"/>
  </g>
</svg>