<svg class="ds-icon" width="30" height="29" viewBox="0 0 30 29" fill="none" xmlns="http://www.w3.org/2000/svg">
  <path d="M22.1743 6.9402C20.1299 5.53146 17.5785 4.49219 14.5 4.49219C4.94711 4.49219 0.500244 14.5 0.500244 14.5C0.500244 14.5 2.56632 19.1498 6.90723 22.1105M18.4483 10.632C17.4391 9.61676 16.039 8.98788 14.4913 8.98788C11.4159 8.98788 8.92275 11.4713 8.92275 14.5347C8.92275 16.0729 9.55131 17.4649 10.5665 18.4697M24.8223 9.20425C27.3226 11.7996 28.5308 14.5 28.5308 14.5C28.5308 14.5 24.0529 24.5078 14.5 24.5078C12.9253 24.5078 11.4894 24.2359 10.1892 23.7817M3.00002 25.9996L26.0643 3.05078" stroke="var(--ds-icon-color, black)" stroke-linecap="round" stroke-linejoin="round"/>
</svg>