<svg class="ds-icon" width="30" height="29" viewBox="0 0 30 29" fill="none" xmlns="http://www.w3.org/2000/svg">
  <g stroke="var(--ds-icon-color, black)" stroke-linejoin="round" stroke-linecap="round" stroke-width="var(--ds-icon-stroke, 1)">
    <path d="M22.17 6.94C20.13 5.53 17.58 4.49 14.5 4.49C4.95 4.49 0.5 14.5 0.5 14.5C0.5 14.5 2.57 19.15 6.91 22.11M18.45 10.63C17.44 9.62 16.04 8.99 14.49 8.99C11.42 8.99 8.92 11.47 8.92 14.53C8.92 16.07 9.55 17.46 10.57 18.47M24.82 9.2C27.32 11.8 28.53 14.5 28.53 14.5C28.53 14.5 24.05 24.51 14.5 24.51C12.93 24.51 11.49 24.24 10.19 23.78M3 26L26.06 3.05"/>
  </g>
</svg>