<svg class="ds-icon" width="29" height="29" viewBox="0 0 29 29" fill="none" xmlns="http://www.w3.org/2000/svg">
  <g stroke="var(--ds-icon-color, black)" stroke-linejoin="round" stroke-linecap="round" stroke-width="var(--ds-icon-stroke, 1)">
    <path d="M15 26.537C22.1797 26.537 28 20.9323 28 14.0185C28 7.10472 22.1797 1.5 15 1.5C7.8203 1.5 2 7.10472 2 14.0185C2 16.1976 2.57821 18.2467 3.59495 20.0313L1 27.5L8.76855 25.0078C10.6188 25.9827 12.7422 26.537 15 26.537Z"/>
    <path d="m 14.5,17 v -2.75 c 0,0 5.059188,-0.776 5.023231,-3.943963 C 19.490708,7.4404987 16.672162,6.0663983 13.2088,6.6646991 9.5838154,7.2909207 9.5,10 9.5,10"/>
    <path d="m 14.5,22.5 v -2"/>
  </g>
</svg>