<svg width="29" height="29" viewBox="0 0 29 29" fill="none" xmlns="http://www.w3.org/2000/svg">
  <path d="M3.59495 20.0313L4.06726 20.1954L4.14175 19.981L4.02939 19.7838L3.59495 20.0313ZM8.76855 25.0078L9.00164 24.5654L8.81581 24.4675L8.61581 24.5317L8.76855 25.0078ZM1 27.5L0.527695 27.3359C0.4655 27.5149 0.509851 27.7137 0.642237 27.8493C0.774623 27.9849 0.97229 28.034 1.15274 27.9761L1 27.5ZM14.9998 20.5C14.9998 20.2238 14.776 20 14.4998 20C14.2237 20 13.9998 20.2238 13.9998 20.5H14.9998ZM13.9998 22.5C13.9998 22.7761 14.2237 23 14.4998 23C14.776 23 14.9998 22.7761 14.9998 22.5H13.9998ZM9 10C9 10.2761 9.22385 10.5 9.5 10.5C9.77614 10.5 10 10.2761 10 10H9ZM14.5 14.2599L14.418 13.7667C14.1768 13.8068 14 14.0154 14 14.2599H14.5ZM14 17C14 17.2761 14.2239 17.5 14.5 17.5C14.7762 17.5 15 17.2761 15 17H14ZM27.5 14.0185C27.5 20.6385 21.9215 26.037 15 26.037V27.037C22.4379 27.037 28.5 21.226 28.5 14.0185H27.5ZM2.5 14.0185C2.5 7.39848 8.07849 2 15 2V1C7.56211 1 1.5 6.81096 1.5 14.0185H2.5ZM15 2C21.9215 2 27.5 7.39848 27.5 14.0185H28.5C28.5 6.81096 22.4379 1 15 1V2ZM4.02939 19.7838C3.05411 18.072 2.5 16.1079 2.5 14.0185H1.5C1.5 16.2874 2.10231 18.4215 3.16052 20.2788L4.02939 19.7838ZM15 26.037C12.8247 26.037 10.7812 25.5031 9.00164 24.5654L8.53546 25.4501C10.4564 26.4623 12.6596 27.037 15 27.037V26.037ZM1.4723 27.6641L4.06726 20.1954L3.12265 19.8672L0.527695 27.3359L1.4723 27.6641ZM8.61581 24.5317L0.847262 27.0239L1.15274 27.9761L8.92129 25.4839L8.61581 24.5317ZM13.9998 20.5V22.5H14.9998V20.5H13.9998ZM19 10.5C19 11.6396 18.023 12.4582 16.7914 13.0236C16.2007 13.2949 15.6049 13.4816 15.1537 13.6007C14.929 13.66 14.7423 13.702 14.613 13.7289C14.5483 13.7424 14.4981 13.7521 14.4648 13.7582C14.4482 13.7613 14.4357 13.7636 14.4278 13.765C14.4239 13.7657 14.421 13.7661 14.4194 13.7664C14.4186 13.7666 14.418 13.7667 14.4178 13.7667C14.4177 13.7667 14.4176 13.7667 14.4177 13.7667C14.4177 13.7667 14.4178 13.7667 14.4178 13.7667C14.4179 13.7667 14.418 13.7667 14.5 14.2599C14.5821 14.7531 14.5822 14.7531 14.5824 14.7531C14.5825 14.753 14.5827 14.753 14.5828 14.753C14.5832 14.7529 14.5836 14.7529 14.5841 14.7528C14.5851 14.7526 14.5863 14.7524 14.5879 14.7521C14.5911 14.7516 14.5954 14.7508 14.6009 14.7499C14.6119 14.7479 14.6276 14.7451 14.6475 14.7414C14.6874 14.734 14.7447 14.7229 14.8168 14.7079C14.9608 14.6779 15.1648 14.632 15.4089 14.5676C15.8951 14.4393 16.5493 14.2351 17.2086 13.9324C18.477 13.35 20 12.2886 20 10.5H19ZM14 14.2599V17H15V14.2599H14ZM14.5 7C15.6901 7 16.8304 7.25686 17.6574 7.81609C18.4588 8.358 19 9.20354 19 10.5H20C20 8.8682 19.2912 7.71374 18.2176 6.98772C17.1696 6.27901 15.8099 6 14.5 6V7ZM10 10C10 9.22543 10.4848 8.48609 11.3399 7.91603C12.1903 7.34908 13.3426 7 14.5 7V6C13.1574 6 11.8098 6.40092 10.7852 7.08397C9.76525 7.76391 9 8.77457 9 10H10Z" fill="var(--ds-icon-color, black)"/>
</svg>