<svg class="ds-icon" width="36" height="23" viewBox="0 0 36 23" xmlns="http://www.w3.org/2000/svg">
  <g fill="var(--ds-icon-color, black)" stroke="none">
    <path d="M16 14.52C16 18.94 12.43 22.53 8.02 22.53C3.62 22.53 0.42 19.07 0.04 14.66C-0.53 7.94 4.56 2.32 10.74 0.53C8.64 1.8 7.17 4.02 6.92 6.61C7.28 6.56 7.65 6.52 8.02 6.52C12.43 6.52 16 10.1 16 14.52Z"/>
    <path d="M36 14.52C36 18.94 32.43 22.53 28.02 22.53C23.62 22.53 20.42 19.07 20.04 14.66C19.47 7.94 24.56 2.32 30.74 0.53C28.64 1.8 27.17 4.02 26.92 6.61C27.28 6.56 27.65 6.52 28.02 6.52C32.43 6.52 36 10.1 36 14.52Z"/>
  </g>
</svg>