
<svg class="ds-icon" width="29" height="29" viewBox="0 0 29 29" fill="none" xmlns="http://www.w3.org/2000/svg">
  <g stroke="var(--ds-icon-color, black)" stroke-width="var(--ds-icon-stroke, 1)">
    <path d="M24.14 11.69L24.22 11.95L24.48 12.03L27.45 12.91C27.46 12.92 27.46 12.92 27.47 12.93C27.47 12.94 27.47 12.95 27.47 12.96L27.47 12.97V12.98V16.05C27.47 16.06 27.47 16.07 27.46 16.07C27.46 16.08 27.45 16.09 27.44 16.09L24.41 16.99L24.15 17.07L24.07 17.33C23.87 18.01 23.6 18.67 23.26 19.29L23.13 19.53L23.26 19.77L24.75 22.56C24.75 22.56 24.75 22.56 24.75 22.56C24.76 22.57 24.76 22.58 24.76 22.59C24.75 22.6 24.75 22.61 24.74 22.61L24.74 22.62L22.59 24.77L22.59 24.77C22.58 24.78 22.57 24.78 22.56 24.78C22.55 24.78 22.54 24.78 22.53 24.78C22.53 24.78 22.53 24.78 22.53 24.78L19.73 23.28L19.49 23.16L19.26 23.29C18.64 23.62 17.98 23.89 17.3 24.09L17.04 24.17L16.96 24.43L16.06 27.47C16.06 27.48 16.06 27.48 16.05 27.49C16.04 27.5 16.03 27.5 16.02 27.5H12.98C12.97 27.5 12.96 27.5 12.95 27.49C12.94 27.48 12.94 27.48 12.94 27.47L12.04 24.44L11.96 24.18L11.7 24.1C11.01 23.9 10.35 23.63 9.72 23.29L9.49 23.17L9.25 23.29L6.47 24.78C6.47 24.78 6.47 24.78 6.47 24.78C6.46 24.78 6.45 24.78 6.44 24.78C6.43 24.78 6.42 24.78 6.41 24.77L6.41 24.77L4.26 22.62L4.26 22.61C4.25 22.61 4.25 22.6 4.24 22.59C4.24 22.58 4.24 22.56 4.25 22.56L4.25 22.55L5.73 19.73L5.85 19.49L5.72 19.25C5.36 18.62 5.07 17.95 4.86 17.25L4.78 17L4.53 16.92L1.53 16.02C1.52 16.02 1.52 16.01 1.51 16C1.5 15.99 1.5 15.98 1.5 15.97V12.94C1.5 12.93 1.5 12.92 1.51 12.91C1.52 12.9 1.52 12.89 1.53 12.89C1.53 12.89 1.53 12.89 1.53 12.89L4.51 11.99L4.77 11.91L4.85 11.65C5.05 10.95 5.34 10.27 5.7 9.62L5.84 9.38L5.71 9.14L4.25 6.44C4.25 6.44 4.25 6.44 4.25 6.44C4.24 6.43 4.24 6.42 4.24 6.41C4.25 6.4 4.25 6.39 4.26 6.39L6.44 4.26L6.44 4.26L6.45 4.25C6.46 4.24 6.47 4.24 6.48 4.24C6.49 4.23 6.5 4.24 6.51 4.24C6.51 4.24 6.51 4.24 6.51 4.24L9.2 5.7L9.45 5.83L9.69 5.69C10.33 5.33 11.02 5.05 11.73 4.84L11.98 4.76L12.06 4.5L12.96 1.53C12.96 1.53 12.96 1.53 12.96 1.53C12.97 1.52 12.97 1.52 12.98 1.51C12.99 1.5 13 1.5 13.01 1.5H16.05V1.5L16.06 1.5C16.07 1.5 16.08 1.5 16.09 1.51C16.1 1.51 16.1 1.52 16.1 1.53L17 4.49L17.08 4.75L17.34 4.83C18.04 5.04 18.72 5.32 19.36 5.68L19.6 5.82L19.84 5.69L22.58 4.22C22.58 4.22 22.58 4.22 22.58 4.22C22.59 4.22 22.6 4.22 22.61 4.22C22.62 4.22 22.63 4.22 22.64 4.23L22.64 4.23L24.79 6.39L24.79 6.39L24.8 6.4C24.8 6.4 24.81 6.41 24.81 6.42C24.81 6.43 24.81 6.44 24.8 6.45C24.8 6.45 24.8 6.45 24.8 6.45L23.33 9.22L23.2 9.45L23.33 9.69C23.67 10.32 23.95 10.99 24.14 11.69ZM11.5 19.03C12.4 19.63 13.45 19.95 14.53 19.95C15.97 19.95 17.36 19.38 18.38 18.35C19.4 17.33 19.98 15.95 19.98 14.5C19.98 13.42 19.66 12.37 19.06 11.47C18.46 10.58 17.61 9.88 16.61 9.46C15.62 9.05 14.52 8.94 13.46 9.15C12.41 9.37 11.44 9.88 10.67 10.65C9.91 11.41 9.39 12.38 9.18 13.44C8.97 14.49 9.08 15.59 9.49 16.59C9.9 17.58 10.6 18.43 11.5 19.03Z"/>
  </g>
</svg>
