<svg width="29" height="29" viewBox="0 0 29 29" fill="none" xmlns="http://www.w3.org/2000/svg">
  <path d="M10.0786 12.7107L18.9199 8.29004M10.0818 16.2909L18.9233 20.7116M10.5 14.5C10.5 16.7091 8.70914 18.5 6.5 18.5C4.29086 18.5 2.5 16.7091 2.5 14.5C2.5 12.2909 4.29086 10.5 6.5 10.5C8.70914 10.5 10.5 12.2909 10.5 14.5ZM26.5 6.5C26.5 8.70914 24.7091 10.5 22.5 10.5C20.2909 10.5 18.5 8.70914 18.5 6.5C18.5 4.29086 20.2909 2.5 22.5 2.5C24.7091 2.5 26.5 4.29086 26.5 6.5ZM26.5 22.5C26.5 24.7091 24.7091 26.5 22.5 26.5C20.2909 26.5 18.5 24.7091 18.5 22.5C18.5 20.2909 20.2909 18.5 22.5 18.5C24.7091 18.5 26.5 20.2909 26.5 22.5Z" stroke="var(--ds-icon-color, black)"/>
</svg>