<svg class="ds-icon" width="29" height="29" viewBox="0 0 29 29" fill="none" xmlns="http://www.w3.org/2000/svg">
  <g stroke="var(--ds-icon-color, black)" stroke-linejoin="round" stroke-linecap="round" stroke-width="var(--ds-icon-stroke, 1)">
    <path d="M10.08 12.71L18.92 8.29M10.08 16.29L18.92 20.71M10.5 14.5C10.5 16.71 8.71 18.5 6.5 18.5C4.29 18.5 2.5 16.71 2.5 14.5C2.5 12.29 4.29 10.5 6.5 10.5C8.71 10.5 10.5 12.29 10.5 14.5ZM26.5 6.5C26.5 8.71 24.71 10.5 22.5 10.5C20.29 10.5 18.5 8.71 18.5 6.5C18.5 4.29 20.29 2.5 22.5 2.5C24.71 2.5 26.5 4.29 26.5 6.5ZM26.5 22.5C26.5 24.71 24.71 26.5 22.5 26.5C20.29 26.5 18.5 24.71 18.5 22.5C18.5 20.29 20.29 18.5 22.5 18.5C24.71 18.5 26.5 20.29 26.5 22.5Z"/>
  </g>
</svg>