<svg width="24" height="24" viewBox="0 0 24 24" xmlns="http://www.w3.org/2000/svg">
<path d="M15.3415 13.6479C15.1613 14.0014 14.9251 14.3339 14.6295 14.6295C14.3337 14.9254 14.0014 15.1614 13.6479 15.3416L15.4923 18C16.0023 17.7116 16.483 17.352 16.9175 16.9174C17.352 16.4829 17.7117 16.0022 18 15.4921L15.3415 13.6479Z" fill="#3EDDC6"/>
<path d="M13.6479 8.65872C14.0014 8.83885 14.3339 9.07511 14.6295 9.3707C14.9254 9.66651 15.1614 9.99881 15.3416 10.3522L18.0002 8.50774C17.7118 7.99765 17.3522 7.51702 16.9176 7.08249C16.4831 6.64796 16.0024 6.28834 15.4923 6L13.6479 8.65872Z" fill="hsl(186,100%,33%)"/>
<path d="M8.65102 10.3593C8.83115 10.0058 9.06741 9.67335 9.363 9.37777C9.65881 9.08198 9.99111 8.84595 10.3445 8.66583L8.50774 6C7.99765 6.28832 7.51702 6.64792 7.08249 7.08243C6.64796 7.51694 6.28834 7.99755 6 8.5076L8.65102 10.3593Z" fill="#FF5252"/>
<path d="M10.3538 15.3396C10.0004 15.1594 9.66789 14.9232 9.37231 14.6276C9.07652 14.3318 8.84048 13.9995 8.66036 13.6461L6 15.4921C6.28832 16.0022 6.64792 16.4829 7.08243 16.9174C7.51694 17.3519 7.99755 17.7115 8.5076 17.9999L10.3538 15.3396Z" fill="#E98436"/>
<path d="M16.9499 7.05014C14.2164 4.31662 9.78438 4.31662 7.05063 7.05014C4.31711 9.78367 4.31711 14.2156 7.05063 16.9494C9.78415 19.6829 14.2161 19.6829 16.9499 16.9494C19.6836 14.2156 19.6836 9.78367 16.9499 7.05014Z" stroke="hsl(186,100%,33%)" stroke-miterlimit="10" stroke-linecap="round" stroke-linejoin="round" fill="none"/>
<path d="M9.36975 9.36975C7.91711 10.8224 7.91711 13.1775 9.36975 14.6301C10.8224 16.0828 13.1775 16.0828 14.6301 14.6301C16.0828 13.1775 16.0828 10.8224 14.6301 9.36975C13.1775 7.91711 10.8224 7.91711 9.36975 9.36975Z" stroke="hsl(186,100%,33%)" stroke-miterlimit="10" stroke-linecap="round" stroke-linejoin="round" fill="none"/>
</svg>
