<svg width="24" height="24" viewBox="0 0 24 24" xmlns="http://www.w3.org/2000/svg">
<path d="M6.5 14H6.07143C5.47969 14 5 13.5635 5 13.025V4.975C5 4.43652 5.40827 4 6 4H12C12.5917 4 13 4.43652 13 4.975V5.5M9.5 17H9.07143C8.47969 17 8 16.5635 8 16.025V7.975C8 7.43652 8.40827 7 9 7H15C15.5917 7 16 7.43652 16 7.975V8.5M12.1429 10H17.8571C18.4883 10 19 10.4477 19 11V19C19 19.5523 18.4883 20 17.8571 20H12.1429C11.5117 20 11 19.5523 11 19V11C11 10.4477 11.5117 10 12.1429 10Z" stroke="hsl(186,100%,33%)" stroke-linecap="round" stroke-linejoin="round" fill="none"/>
</svg>
