<svg width="24" height="24" viewBox="0 0 24 24" xmlns="http://www.w3.org/2000/svg">
<g fill="none" stroke="hsl(186,100%,33%)">
<path d="M13.5 16.9963V17H12H10.5V16.9963V16.9916V16.9868V16.982V16.9771V16.9723V16.9674V16.9625V16.9575V16.9525V16.9475V16.9425V16.9374V16.9323V16.9272V16.9221V16.9169V16.9117V16.9065V16.9012V16.8959V16.8906V16.8852V16.8798V16.8744V16.869V16.8635V16.858V16.8525V16.8469V16.8413V16.8357V16.8301V16.8244V16.8187V16.8129V16.8071V16.8013V16.7955V16.7896V16.7837V16.7778V16.7719V16.7659V16.7599V16.7538V16.7477V16.7416V16.7355V16.7293V16.7231V16.7168V16.7106V16.7043V16.6979V16.6916V16.6852V16.6787V16.6723V16.6658V16.6593V16.6527V16.6461V16.6395V16.6328V16.6261V16.6194V16.6126V16.6059V16.599V16.5922V16.5853V16.5784V16.5714V16.5644V16.5574V16.5503V16.5433V16.5361V16.529V16.5218V16.5146V16.5073V16.5C10.5 16.0268 10.2658 15.6052 10.0187 15.2529C9.85341 15.0171 9.64286 14.761 9.43475 14.5078C9.33462 14.386 9.23506 14.2649 9.14136 14.147C8.52994 13.3781 8 12.553 8 11.4917C8 9.288 9.79082 7.5 12 7.5C14.2092 7.5 16 9.288 16 11.4917C16 12.553 15.4701 13.3781 14.8586 14.147C14.7649 14.2649 14.6654 14.386 14.5652 14.5078C14.3571 14.761 14.1466 15.0171 13.9813 15.2529C13.7342 15.6052 13.5 16.0268 13.5 16.5V16.5073V16.5146V16.5218V16.529V16.5361V16.5433V16.5503V16.5574V16.5644V16.5714V16.5784V16.5853V16.5922V16.599V16.6059V16.6126V16.6194V16.6261V16.6328V16.6395V16.6461V16.6527V16.6593V16.6658V16.6723V16.6787V16.6852V16.6916V16.6979V16.7043V16.7106V16.7168V16.7231V16.7293V16.7355V16.7416V16.7477V16.7538V16.7599V16.7659V16.7719V16.7778V16.7837V16.7896V16.7955V16.8013V16.8071V16.8129V16.8187V16.8244V16.8301V16.8357V16.8413V16.8469V16.8525V16.858V16.8635V16.869V16.8744V16.8798V16.8852V16.8906V16.8959V16.9012V16.9065V16.9117V16.9169V16.9221V16.9272V16.9323V16.9374V16.9425V16.9475V16.9525V16.9575V16.9625V16.9674V16.9723V16.9771V16.982V16.9868V16.9916V16.9963Z"/>
<line x1="10" y1="18" x2="14" y2="18"/>
<line x1="10" y1="19" x2="14" y2="19"/>
<line x1="11.5" y1="20" x2="12.5" y2="20"/>
<path opacity="0.33" d="M12.0876 2.5V5M18.4989 4.98955L16.4649 6.89639M20.0879 11H18.0877M4.08789 11H6.08766M5.67709 4.98955L7.71072 6.89603M15.5574 3.14695L14.5131 5.51045M20.0879 8L17.7072 8.89274M18.4989 13.5L17.6792 13.1804M5.67709 13.5L6.4962 13.1806M4.08789 8L6.46818 8.89264M8.61749 3.14695L9.66194 5.51056" stroke-miterlimit="10"/>
</g>
</svg>
