<svg width="24" height="24" viewBox="0 0 24 24" xmlns="http://www.w3.org/2000/svg">
   <path d="m18 11.87c0.0023 0.9043-0.2089 1.7964-0.6167 2.6036-0.4834 0.9672-1.2265 1.7808-2.1462 2.3496-0.9197 0.5687-1.9796 0.8702-3.0609 0.8706-0.9043 0.0024-1.7964-0.2089-2.6036-0.6166l-4.0384 1.0154 1.4348-3.619c-0.40771-0.8072-0.61899-1.6993-0.61663-2.6036 4.1e-4 -1.0813 0.30188-2.1412 0.87063-3.0609s1.3823-1.6629 2.3496-2.1463c0.80718-0.40771 1.6993-0.61899 2.6036-0.61663h0.3426c1.4281 0.07878 2.7769 0.68156 3.7883 1.6929 1.0113 1.0114 1.6141 2.3602 1.6929 3.7883v0.3426z" stroke="hsl(186,100%,33%)" stroke-linecap="round" stroke-linejoin="round" fill="none" />
   <g transform="matrix(.92996 0 0 1 .88638 0)" style="fill:#0098a8"><path d="m7.8598 10.424h2.2698v0.63744h-1.421v0.47452h1.3181v0.60893h-1.3181v0.58856h1.4621v0.67614h-2.3109z" style="stroke-width:.99909"/><path d="m10.633 10.424h0.79088l1.0321 1.6516v-1.6516h0.79836v2.9856h-0.79836l-1.0265-1.6394v1.6394h-0.79649z" style="stroke-width:.99909"/><path d="m15.162 12.329v-0.62115h1.3088v1.2728q-0.37581 0.27901-0.66561 0.38084-0.28793 0.09979-0.68431 0.09979-0.48799 0-0.79649-0.18125-0.30663-0.18125-0.47677-0.53969-0.16827-0.35843-0.16827-0.82277 0-0.48877 0.1851-0.84924 0.1851-0.36251 0.54221-0.54987 0.27858-0.14459 0.74975-0.14459 0.45434 0 0.6787 0.08961 0.22623 0.08961 0.37394 0.27901 0.14958 0.18736 0.22436 0.47655l-0.81706 0.15885q-0.05048-0.16904-0.17201-0.25864-0.11966-0.08961-0.30663-0.08961-0.27858 0-0.44499 0.2118-0.16453 0.20976-0.16453 0.66595 0 0.4847 0.1664 0.69243 0.16827 0.20773 0.46742 0.20773 0.1421 0 0.27111-0.0448 0.12901-0.04481 0.29541-0.15274v-0.28104z" style="stroke-width:.99909"/></g>
</svg>
