<svg width="24" height="24" viewBox="0 0 24 24" xmlns="http://www.w3.org/2000/svg">
<path d="M15.2705 6.4978C15.2705 7.05009 14.8228 7.4978 14.2705 7.4978C13.7182 7.4978 13.2705 7.05009 13.2705 6.4978C13.2705 5.94552 13.7182 5.4978 14.2705 5.4978C14.8228 5.4978 15.2705 5.94552 15.2705 6.4978Z" fill="hsl(186,100%,33%)"/>
<path d="M19 10C19 10.5523 18.5523 11 18 11C17.4477 11 17 10.5523 17 10C17 9.44772 17.4477 9 18 9C18.5523 9 19 9.44772 19 10Z" fill="#3EDDC6"/>
<path d="M18.502 6C18.502 6.55228 18.0542 7 17.502 7C16.9497 7 16.502 6.55228 16.502 6C16.502 5.44772 16.9497 5 17.502 5C18.0542 5 18.502 5.44772 18.502 6Z" fill="#000"/>
<path d="M10.3512 17.2441C10.5698 17.4686 10.8814 17.5997 11.2185 17.5782C11.6811 17.5486 12.0595 17.24 12.2 16.8267C12.2454 16.693 12.266 16.5483 12.2564 16.3986M5.01221 16.2127L7.49977 15.0861L11.3431 7L17 12.6569L8.91399 16.5003L7.77936 18.9798L5.01221 16.2127Z" stroke="hsl(186,100%,33%)" stroke-linecap="round" stroke-linejoin="round" fill="none"/>
</svg>
