<svg width="24" height="24" viewBox="0 0 24 24" xmlns="http://www.w3.org/2000/svg">
<path d="M4 12H8L12 19L15.5 9L19.5 9" stroke="hsl(186,100%,33%)" stroke-linecap="round" stroke-linejoin="round" fill="none"/>
<path d="M17.5 16.5C17.5 17.0523 17.0523 17.5 16.5 17.5C15.9477 17.5 15.5 17.0523 15.5 16.5C15.5 15.9477 15.9477 15.5 16.5 15.5C17.0523 15.5 17.5 15.9477 17.5 16.5Z" fill="#FF5252"/>
<path d="M17 6C17 6.55228 16.5523 7 16 7C15.4477 7 15 6.55228 15 6C15 5.44772 15.4477 5 16 5C16.5523 5 17 5.44772 17 6Z" fill="#3EDDC6"/>
<path d="M7 9C7 9.55228 6.55228 10 6 10C5.44772 10 5 9.55228 5 9C5 8.44771 5.44772 8 6 8C6.55228 8 7 8.44771 7 9Z" fill="#E98436"/>
</svg>
