<svg width="24" height="24" viewBox="0 0 24 24" class="ds-svg-icon" fill="none" xmlns="http://www.w3.org/2000/svg">
<path d="M5.86307 8.42977L5.36778 8.36127L5.86307 8.42977ZM6.99064 7.5762L6.92214 8.07149L6.99064 7.5762ZM6.71664 9.55734L6.78546 9.0621L6.78514 9.06206L6.71664 9.55734ZM10.4987 12.8427L10.9557 13.0455C10.984 12.9817 10.9986 12.9127 10.9987 12.8429L10.4987 12.8427ZM8.07416 18.3068L8.52877 18.515L8.53119 18.5096L8.07416 18.3068ZM8.56689 19.6324L8.35867 20.087H8.35867L8.56689 19.6324ZM9.89249 19.1396L10.3472 19.3479L10.3514 19.3382L9.89249 19.1396ZM11.9994 14.2704L12.4583 14.0718C12.3791 13.8889 12.1987 13.7704 11.9994 13.7704C11.8 13.7704 11.6197 13.8889 11.5405 14.0718L11.9994 14.2704ZM14.1062 19.1396L13.6473 19.3382L13.6517 19.3479L14.1062 19.1396ZM15.4318 19.6324L15.6401 20.087H15.6401L15.4318 19.6324ZM15.9246 18.3068L15.4675 18.5096L15.47 18.515L15.9246 18.3068ZM13.5001 12.8427L13.0001 12.8427C13.0001 12.9125 13.0147 12.9816 13.043 13.0455L13.5001 12.8427ZM13.5001 10.1137L13.4018 9.62347C13.1682 9.6703 13.0001 9.87546 13.0001 10.1137L13.5001 10.1137ZM13.9992 10.0137L13.9308 9.51837C13.9208 9.51975 13.9109 9.52143 13.901 9.52341L13.9992 10.0137ZM17.2996 9.55734L17.3681 10.0526L17.3681 10.0526L17.2996 9.55734ZM18.1532 8.42977L18.6485 8.36127L18.1532 8.42977ZM17.0256 7.5762L16.9571 7.08092L17.0256 7.5762ZM13.8626 8.01366L13.8626 8.51366C13.8855 8.51366 13.9084 8.51209 13.9311 8.50895L13.8626 8.01366ZM10.1537 8.01367L10.0852 8.50896C10.1079 8.5121 10.1308 8.51367 10.1537 8.51367L10.1537 8.01367ZM10.5001 10.1027L11.0001 10.103C11.0002 9.86055 10.8264 9.65296 10.5877 9.61046L10.5001 10.1027ZM10.0001 10.0137L10.0877 9.52142C10.0815 9.5203 10.0752 9.51931 10.0689 9.51843L10.0001 10.0137ZM6.35835 8.49827C6.39618 8.22473 6.6486 8.03365 6.92214 8.07149L7.05914 7.08092C6.23852 6.96742 5.48128 7.54065 5.36778 8.36127L6.35835 8.49827ZM6.78514 9.06206C6.5116 9.02423 6.32052 8.77181 6.35835 8.49827L5.36778 8.36127C5.25429 9.18189 5.82752 9.93913 6.64814 10.0526L6.78514 9.06206ZM10.0416 12.6399L7.61713 18.104L8.53119 18.5096L10.9557 13.0455L10.0416 12.6399ZM7.61957 18.0986C7.27459 18.8517 7.60549 19.742 8.35867 20.087L8.7751 19.1778C8.52405 19.0628 8.41374 18.766 8.52874 18.515L7.61957 18.0986ZM8.35867 20.087C9.11185 20.4319 10.0021 20.101 10.3471 19.3479L9.43791 18.9314C9.32291 19.1825 9.02616 19.2928 8.7751 19.1778L8.35867 20.087ZM10.3514 19.3382L12.4583 14.469L11.5405 14.0718L9.4336 18.9411L10.3514 19.3382ZM11.5405 14.469L13.6474 19.3382L14.5651 18.9411L12.4583 14.0718L11.5405 14.469ZM13.6517 19.3479C13.9966 20.101 14.8869 20.4319 15.6401 20.087L15.2236 19.1778C14.9726 19.2928 14.6758 19.1825 14.5608 18.9314L13.6517 19.3479ZM15.6401 20.087C16.3932 19.742 16.7241 18.8517 16.3792 18.0985L15.47 18.515C15.585 18.766 15.4747 19.0628 15.2236 19.1778L15.6401 20.087ZM16.3816 18.104L13.9571 12.6399L13.043 13.0455L15.4675 18.5096L16.3816 18.104ZM13.0001 10.1137L13.0001 12.8427L14.0001 12.8427L14.0001 10.1137L13.0001 10.1137ZM13.901 9.52341L13.4018 9.62347L13.5983 10.604L14.0975 10.5039L13.901 9.52341ZM17.2311 9.06205L13.9308 9.51837L14.0677 10.509L17.3681 10.0526L17.2311 9.06205ZM17.6579 8.49827C17.6957 8.77181 17.5047 9.02423 17.2311 9.06206L17.3681 10.0526C18.1887 9.93913 18.762 9.18189 18.6485 8.36127L17.6579 8.49827ZM17.0941 8.07149C17.3676 8.03365 17.6201 8.22473 17.6579 8.49827L18.6485 8.36127C18.535 7.54065 17.7777 6.96742 16.9571 7.08092L17.0941 8.07149ZM13.9311 8.50895L17.0941 8.07149L16.9571 7.08092L13.7941 7.51838L13.9311 8.50895ZM6.92214 8.07149L10.0852 8.50896L10.2222 7.51839L7.05914 7.08092L6.92214 8.07149ZM10.5877 9.61046L10.0877 9.52142L9.91241 10.5059L10.4124 10.595L10.5877 9.61046ZM10.1537 8.51367L13.8626 8.51366L13.8626 7.51366L10.1537 7.51367L10.1537 8.51367ZM10.9987 12.8429L11.0001 10.103L10.0001 10.1025L9.99866 12.8424L10.9987 12.8429ZM6.64781 10.0526L9.93124 10.5089L10.0689 9.51843L6.78546 9.0621L6.64781 10.0526Z" fill="hsl(186,100%,33%)"/>
<path d="M12.0023 4.30249C12.6237 4.30249 13.1291 4.80788 13.1291 5.42928H14.1291C14.1291 4.2556 13.176 3.30249 12.0023 3.30249V4.30249ZM13.1291 5.42928C13.1291 6.05068 12.6237 6.55607 12.0023 6.55607V7.55607C13.176 7.55607 14.1291 6.60297 14.1291 5.42928H13.1291ZM12.0023 6.55607C11.3809 6.55607 10.8755 6.05068 10.8755 5.42928H9.87549C9.87549 6.60296 10.8286 7.55607 12.0023 7.55607V6.55607ZM10.8755 5.42928C10.8755 4.80788 11.3809 4.30249 12.0023 4.30249V3.30249C10.8286 3.30249 9.87549 4.2556 9.87549 5.42928H10.8755Z" fill="hsl(186,100%,33%)"/>
</svg>
