<svg width="24" height="24" viewBox="0 0 24 24" xmlns="http://www.w3.org/2000/svg">
<g stroke="hsl(186,100%,33%)" stroke-linecap="round" fill="none" stroke-linejoin="round">
<path d="M6 18L18 6"/>
<path d="M14.1211 9.87891C13.5782 9.33601 12.8284 9 12 9C10.3431 9 9 10.3431 9 12C9 12.8284 9.33601 13.5782 9.87891 14.1211M16.1797 7.82031C15.0237 7.05909 13.6227 6.5 12 6.5C6.90909 6.5 4 12 4 12C4 12 5.34896 14.5485 7.81641 16.1758M17.6289 8.97656C19.1727 10.4365 20 12 20 12C20 12 17.0909 17.5 12 17.5C11.1182 17.5 10.3017 17.3355 9.55469 17.0625"/>
</g>
</svg>
