<svg class="ds-icon" width="29" height="29" viewBox="0 0 29 29" fill="none" xmlns="http://www.w3.org/2000/svg">
  <path d="M27.3 7.3C27 6.11 26.09 5.16 24.93 4.83C22.85 4.25 14.49 4.25 14.49 4.25C14.49 4.25 6.13 4.25 4.04 4.83C2.88 5.15 1.98 6.09 1.66 7.3C1.12 9.47 1.12 14 1.12 14C1.12 14 1.12 18.53 1.68 20.7C1.98 21.89 2.9 22.84 4.05 23.17C6.13 23.75 14.49 23.75 14.49 23.75C14.49 23.75 22.85 23.75 24.95 23.17C26.1 22.85 27 21.91 27.32 20.7C27.87 18.53 27.87 14 27.87 14C27.87 14 27.87 9.47 27.3 7.3Z" fill="var(--ds-icon-color, #FF0000)"/>
  <path d="M10 19.5V9.5L20.75 14.5L10 19.5Z" fill="var(--background-color, white)"/>
</svg>