<svg width="24" height="24" viewBox="0 0 24 24" fill="none" xmlns="http://www.w3.org/2000/svg">
<path d="M9.02003 19C15.0617 19 18.3653 13.9974 18.3653 9.66181C18.3653 9.51887 18.3653 9.37594 18.3585 9.23982C18.9987 8.77699 19.5573 8.19846 20 7.53825C19.4142 7.79688 18.7808 7.97385 18.1133 8.05552C18.7944 7.64715 19.3121 7.00736 19.5573 6.23825C18.9238 6.61259 18.2222 6.88484 17.473 7.03458C16.8736 6.39479 16.0222 6.00003 15.0754 6.00003C13.2635 6.00003 11.7923 7.47018 11.7923 9.28065C11.7923 9.53929 11.8195 9.79113 11.8808 10.0293C9.14945 9.89322 6.7314 8.58641 5.11028 6.59898C4.83101 7.08222 4.66754 7.64715 4.66754 8.2461C4.66754 9.38275 5.24651 10.3901 6.13199 10.9754C5.59389 10.9618 5.08985 10.8121 4.6471 10.567C4.6471 10.5807 4.6471 10.5943 4.6471 10.6079C4.6471 12.2005 5.7778 13.521 7.28312 13.8273C7.01066 13.9021 6.71777 13.943 6.41807 13.943C6.20692 13.943 6.00257 13.9225 5.79823 13.8817C6.21373 15.1885 7.42616 16.1346 8.86337 16.1618C7.73948 17.0398 6.32271 17.5639 4.78333 17.5639C4.51769 17.5639 4.25885 17.5503 4.00002 17.5163C5.43723 18.4555 7.16733 19 9.02003 19Z" fill="#1DA1F2"/>
</svg>
