<svg class="ds-icon" width="29" height="29" viewBox="0 0 29 29" fill="none" xmlns="http://www.w3.org/2000/svg">
  <path fill-rule="evenodd" clip-rule="evenodd" d="M5 2C3.34 2 2 3.34 2 5V24C2 25.66 3.34 27 5 27H24C25.66 27 27 25.66 27 24V5C27 3.34 25.66 2 24 2H5ZM6.24 11.31V23.04H9.91V11.31H6.24ZM6 7.53C6 8.75 6.98 9.72 8.08 9.72C9.3 9.72 10.27 8.75 10.15 7.53C10.15 6.43 9.3 5.45 8.08 5.45C6.98 5.45 6 6.3 6 7.53ZM19.92 23.04H23.46V16.56C23.46 13.39 22.73 10.95 19.07 10.95C17.36 10.95 16.14 11.92 15.65 12.9V11.31H12.11V23.04H15.77V17.17C15.77 15.59 16.01 14.12 17.97 14.12C19.92 14.12 19.92 15.95 19.92 17.3V23.04Z" fill="var(--ds-icon-color, #0079B9)"/>
  <path fill-rule="evenodd" clip-rule="evenodd" d="M6.24 11.31V23.04H9.91V11.31H6.24ZM6 7.53C6 8.75 6.98 9.72 8.08 9.72C9.3 9.72 10.27 8.75 10.15 7.53C10.15 6.43 9.3 5.45 8.08 5.45C6.98 5.45 6 6.3 6 7.53ZM19.92 23.04H23.46V16.56C23.46 13.39 22.73 10.95 19.07 10.95C17.36 10.95 16.14 11.92 15.65 12.9V11.31H12.11V23.04H15.77V17.17C15.77 15.59 16.01 14.12 17.97 14.12C19.92 14.12 19.92 15.95 19.92 17.3V23.04Z" fill="var(--background-color, white)"/>
</svg>