<svg class="ds-icon" width="29" height="29" viewBox="0 0 29 29" fill="none" xmlns="http://www.w3.org/2000/svg">
  <path d="M27.3048 7.30081C27.0009 6.10565 26.0889 5.1621 24.9338 4.83185C22.8516 4.25 14.4922 4.25 14.4922 4.25C14.4922 4.25 6.13281 4.25 4.03537 4.83185C2.88026 5.14637 1.98352 6.08992 1.66435 7.30081C1.11719 9.47097 1.11719 14 1.11719 14C1.11719 14 1.11719 18.529 1.67955 20.6992C1.98352 21.8944 2.89545 22.8379 4.05057 23.1681C6.13281 23.75 14.4922 23.75 14.4922 23.75C14.4922 23.75 22.8516 23.75 24.949 23.1681C26.1041 22.8536 27.0009 21.9101 27.32 20.6992C27.8672 18.529 27.8672 14 27.8672 14C27.8672 14 27.8672 9.47097 27.3048 7.30081Z" fill="var(--ds-icon-color, #FF0000)"/>
  <path d="M10 19.5V9.5L20.75 14.5L10 19.5Z" fill="var(--background-color, white)"/>
</svg>