<svg width="24" height="24" viewBox="0 0 24 24" fill="none" xmlns="http://www.w3.org/2000/svg">
<path d="M16.9177 5H7.13619C5.95566 5 5 5.952 5 7.128V16.816C5 18.048 5.95566 19 7.13619 19H16.8615C18.042 19 18.9976 18.048 18.9976 16.872V7.128C19.0539 5.952 18.0982 5 16.9177 5Z" fill="#018FE3"/>
<path d="M16.5239 6.81982H13.5664C13.204 6.81982 12.9102 7.11364 12.9102 7.47607V12.2886C12.9102 12.651 13.204 12.9448 13.5664 12.9448H16.5239C16.8863 12.9448 17.1802 12.651 17.1802 12.2886V7.47607C17.1802 7.11364 16.8863 6.81982 16.5239 6.81982Z" fill="white"/>
<path d="M10.4331 6.82007H7.47559C7.11315 6.82007 6.81934 7.11388 6.81934 7.47632V15.7888C6.81934 16.1513 7.11315 16.4451 7.47559 16.4451H10.4331C10.7955 16.4451 11.0893 16.1513 11.0893 15.7888V7.47632C11.0893 7.11388 10.7955 6.82007 10.4331 6.82007Z" fill="white"/>
</svg>
