<svg class="ds-icon" width="29" height="29" viewBox="0 0 29 29" fill="none" xmlns="http://www.w3.org/2000/svg">
  <path d="M3 2.54V2.04H2.04L2.59 2.83L3 2.54ZM9.13 2.54L9.54 2.26L9.39 2.04H9.13V2.54ZM26 26.46V26.96H26.96L26.41 26.17L26 26.46ZM19.87 26.46L19.46 26.74L19.61 26.96H19.87V26.46ZM25.35 2.33C25.53 2.13 25.52 1.81 25.31 1.63C25.1 1.44 24.79 1.46 24.6 1.67L25.35 2.33ZM2.62 26.67C2.44 26.88 2.46 27.19 2.67 27.38C2.88 27.56 3.19 27.54 3.38 27.33L2.62 26.67ZM3 3.04H9.13V2.04H3V3.04ZM8.72 2.83L15.51 12.45L16.33 11.88L9.54 2.26L8.72 2.83ZM15.51 12.45L25.59 26.74L26.41 26.17L16.33 11.88L15.51 12.45ZM26 25.96H19.87V26.96H26V25.96ZM20.28 26.17L3.41 2.26L2.59 2.83L19.46 26.74L20.28 26.17ZM16.29 12.5L25.35 2.33L24.6 1.67L15.55 11.83L16.29 12.5ZM3.38 27.33L12.95 16.44L12.2 15.78L2.62 26.67L3.38 27.33Z" fill="var(--ds-icon-color, black)"/>
</svg>