<svg class="ds-icon" width="29" height="29" viewBox="0 0 29 29" fill="none" xmlns="http://www.w3.org/2000/svg">
  <path fill-rule="evenodd" clip-rule="evenodd" d="M23.28 2H5.81C3.71 2 2 3.7 2 5.8V23.1C2 25.3 3.71 27 5.81 27H23.18C25.29 27 27 25.3 27 23.2V5.8C27.1 3.7 25.39 2 23.28 2ZM22.77 6H17.23C16.55 6 16 6.53 16 7.18V14.82C16 15.47 16.55 16 17.23 16H22.77C23.45 16 24 15.47 24 14.82V7.18C24 6.53 23.45 6 22.77 6ZM6.23 6H11.77C12.45 6 13 6.55 13 7.23V21.77C13 22.45 12.45 23 11.77 23H6.23C5.55 23 5 22.45 5 21.77V7.23C5 6.55 5.55 6 6.23 6Z" fill="var(--ds-icon-color, #0092EA)"/>
  <path fill-rule="evenodd" clip-rule="evenodd" d="M22.77 6H17.23C16.55 6 16 6.53 16 7.18V14.82C16 15.47 16.55 16 17.23 16H22.77C23.45 16 24 15.47 24 14.82V7.18C24 6.53 23.45 6 22.77 6ZM6.23 6H11.77C12.45 6 13 6.55 13 7.23V21.77C13 22.45 12.45 23 11.77 23H6.23C5.55 23 5 22.45 5 21.77V7.23C5 6.55 5.55 6 6.23 6Z" fill="var(--background-color, white)"/>
</svg>