<svg width="24" height="24" viewBox="0 0 24 24" fill="none" xmlns="http://www.w3.org/2000/svg">
<rect x="7" y="7" width="10" height="10" fill="white"/>
<path d="M16.9177 5H7.13619C5.95566 5 5 5.952 5 7.128V16.816C5 18.048 5.95566 19 7.13619 19H16.8615C18.042 19 18.9976 18.048 18.9976 16.872V7.128C19.0539 5.952 18.0982 5 16.9177 5ZM9.94696 16.032H8.26049V10.656H9.94696V16.032ZM9.10373 9.928C8.59779 9.928 8.14806 9.48 8.14806 8.92C8.14806 8.36 8.59779 7.968 9.10373 7.968C9.66588 7.968 10.0594 8.416 10.0594 8.92C10.1156 9.48 9.66588 9.928 9.10373 9.928ZM16.2431 16.032H14.5566V13.4C14.5566 12.784 14.5566 11.944 13.6572 11.944C12.7577 11.944 12.6453 12.616 12.6453 13.344V16.032H10.9588V10.656H12.5891V11.384C12.8139 10.936 13.3761 10.488 14.1631 10.488C15.8496 10.488 16.1869 11.608 16.1869 13.064V16.032H16.2431Z" fill="#0977B4"/>
</svg>
