<svg class="ds-icon" width="29" height="29" viewBox="0 0 29 29" fill="none" xmlns="http://www.w3.org/2000/svg">
  <path d="M3 2.5439V2.0439H2.03545L2.59142 2.8321L3 2.5439ZM9.13333 2.5439L9.54192 2.2557L9.39252 2.0439H9.13333V2.5439ZM26 26.456V26.956H26.9646L26.4086 26.1678L26 26.456ZM19.8667 26.456L19.4581 26.7442L19.6075 26.956H19.8667V26.456ZM25.3511 2.33261C25.5348 2.12642 25.5166 1.81037 25.3104 1.62667C25.1042 1.44298 24.7881 1.46121 24.6045 1.66739L25.3511 2.33261ZM2.62448 26.6699C2.44216 26.8773 2.46248 27.1932 2.66987 27.3755C2.87726 27.5578 3.19319 27.5375 3.37552 27.3301L2.62448 26.6699ZM3 3.0439H9.13333V2.0439H3V3.0439ZM8.72475 2.8321L15.5119 12.4544L16.3291 11.878L9.54192 2.2557L8.72475 2.8321ZM15.5119 12.4544L25.5914 26.7442L26.4086 26.1678L16.3291 11.878L15.5119 12.4544ZM26 25.956H19.8667V26.956H26V25.956ZM20.2753 26.1678L3.40858 2.2557L2.59142 2.8321L19.4581 26.7442L20.2753 26.1678ZM16.2938 12.4988L25.3511 2.33261L24.6045 1.66739L15.5472 11.8336L16.2938 12.4988ZM3.37552 27.3301L12.9465 16.4435L12.1955 15.7832L2.62448 26.6699L3.37552 27.3301Z" fill="var(--ds-icon-color, black)"/>
</svg>