<svg width="24" height="24" viewBox="0 0 24 24" xmlns="http://www.w3.org/2000/svg">
<rect x="8" y="9" width="8" height="6" fill="white" stroke="none"/>
<path d="M18.7057 8.56452C18.5466 7.95161 18.0693 7.46774 17.4648 7.29839C16.375 7 12 7 12 7C12 7 7.625 7 6.52727 7.29839C5.92273 7.45968 5.45341 7.94355 5.28636 8.56452C5 9.67742 5 12 5 12C5 12 5 14.3226 5.29432 15.4355C5.45341 16.0484 5.93068 16.5323 6.53523 16.7016C7.625 17 12 17 12 17C12 17 16.375 17 17.4727 16.7016C18.0773 16.5403 18.5466 16.0565 18.7136 15.4355C19 14.3226 19 12 19 12C19 12 19 9.67742 18.7057 8.56452ZM10.4444 14.5V9.5L14.7222 12L10.4444 14.5Z" fill="#FF0000" stroke="none"/>
</svg>
