<svg width="29" height="29" viewBox="0 0 29 29" fill="none" xmlns="http://www.w3.org/2000/svg">
  <path fill-rule="evenodd" clip-rule="evenodd" d="M5 2C3.34315 2 2 3.34315 2 5V24C2 25.6569 3.34315 27 5 27H24C25.6569 27 27 25.6569 27 24V5C27 3.34315 25.6569 2 24 2H5ZM6.24426 11.3121V23.0364H9.90812V11.3121H6.24426ZM6 7.52606C6 8.74735 6.97703 9.72438 8.07619 9.72438C9.29748 9.72438 10.2745 8.74735 10.1524 7.52606C10.1524 6.4269 9.29748 5.44987 8.07619 5.44987C6.97703 5.44987 6 6.30477 6 7.52606ZM19.9227 23.0364H23.4644V16.5636C23.4644 13.3882 22.7316 10.9457 19.0678 10.9457C17.358 10.9457 16.1367 11.9227 15.6482 12.8997V11.3121H12.1064V23.0364H15.7703V17.1742C15.7703 15.5866 16.0146 14.121 17.9686 14.121C19.9227 14.121 19.9227 15.953 19.9227 17.2964V23.0364Z" fill="#0079B9"/>
  <path fill-rule="evenodd" clip-rule="evenodd" d="M6.24426 11.3114V23.0358H9.90812V11.3114H6.24426ZM6 7.52541C6 8.7467 6.97703 9.72373 8.07619 9.72373C9.29748 9.72373 10.2745 8.7467 10.1524 7.52541C10.1524 6.42625 9.29748 5.44922 8.07619 5.44922C6.97703 5.44922 6 6.30412 6 7.52541ZM19.9227 23.0358H23.4644V16.5629C23.4644 13.3876 22.7316 10.945 19.0678 10.945C17.358 10.945 16.1367 11.922 15.6482 12.8991V11.3114H12.1064V23.0358H15.7703V17.1736C15.7703 15.5859 16.0146 14.1204 17.9686 14.1204C19.9227 14.1204 19.9227 15.9523 19.9227 17.2957V23.0358Z" fill="white"/>
</svg>