<svg width="29" height="29" viewBox="0 0 29 29" fill="none" xmlns="http://www.w3.org/2000/svg">
  <path fill-rule="evenodd" clip-rule="evenodd" d="M23.2816 2H5.81462C3.70654 2 2 3.7 2 5.8V23.1C2 25.3 3.70654 27 5.81462 27H23.1812C25.2892 27 26.9958 25.3 26.9958 23.2V5.8C27.0962 3.7 25.3896 2 23.2816 2ZM22.7705 6H17.2295C16.5505 6 16 6.52766 16 7.17857V14.8214C16 15.4723 16.5505 16 17.2295 16H22.7705C23.4495 16 24 15.4723 24 14.8214V7.17857C24 6.52766 23.4495 6 22.7705 6ZM6.22951 6H11.7705C12.4495 6 13 6.54947 13 7.22727V21.7727C13 22.4505 12.4495 23 11.7705 23H6.22951C5.55047 23 5 22.4505 5 21.7727V7.22727C5 6.54947 5.55047 6 6.22951 6Z" fill="#0092EA"/>
  <path fill-rule="evenodd" clip-rule="evenodd" d="M22.7705 6H17.2295C16.5505 6 16 6.52766 16 7.17857V14.8214C16 15.4723 16.5505 16 17.2295 16H22.7705C23.4495 16 24 15.4723 24 14.8214V7.17857C24 6.52766 23.4495 6 22.7705 6ZM6.22951 6H11.7705C12.4495 6 13 6.54947 13 7.22727V21.7727C13 22.4505 12.4495 23 11.7705 23H6.22951C5.55047 23 5 22.4505 5 21.7727V7.22727C5 6.54947 5.55047 6 6.22951 6Z" fill="white"/>
</svg>