<svg class="ds-icon" width="25" height="25" viewBox="0 0 25 25" fill="none" xmlns="http://www.w3.org/2000/svg">
  <g fill="var(--ds-icon-color, black)">
    <path d="M20.31 0H4.69C2.1 0 0 2.1 0 4.69V20.31C0 22.9 2.1 25 4.69 25H20.31C22.9 25 25 22.9 25 20.31V4.69C25 2.1 22.9 0 20.31 0Z" />
  </g>
  <g fill="var(--background-color, white)">
    <path d="M6.25 21.88C7.98 21.88 9.38 20.48 9.38 18.75C9.38 17.02 7.98 15.63 6.25 15.63C4.52 15.63 3.13 17.02 3.13 18.75C3.13 20.48 4.52 21.88 6.25 21.88Z" />
    <path d="M3.13 12.5C5.61 12.5 8 13.49 9.75 15.25C11.51 17 12.5 19.39 12.5 21.88H15.63C15.63 18.56 14.31 15.38 11.96 13.04C9.62 10.69 6.44 9.38 3.13 9.38V12.5Z" />
    <path d="M3.13 6.25C5.18 6.25 7.21 6.65 9.1 7.44C11 8.22 12.72 9.38 14.17 10.83C15.62 12.28 16.78 14 17.56 15.9C18.35 17.79 18.75 19.82 18.75 21.88H21.88C21.88 16.9 19.9 12.13 16.38 8.62C12.87 5.1 8.1 3.13 3.13 3.13V6.25Z" />
  </g>
</svg>