<svg width="29" height="29" viewBox="0 0 29 29" fill="none" xmlns="http://www.w3.org/2000/svg">
  <path d="M0.5 13.9993C0.223858 13.9993 0 14.2232 0 14.4993C0 14.7755 0.223858 14.9993 0.5 14.9993V13.9993ZM7.48094 14.4993L7.9169 14.2545C7.82839 14.0969 7.6617 13.9993 7.48094 13.9993V14.4993ZM14.5 26.9981L14.064 27.243L14.6211 28.235L14.9752 27.1537L14.5 26.9981ZM20.5567 8.5V8C20.3405 8 20.1488 8.13895 20.0815 8.34442L20.5567 8.5ZM28.5 9C28.7761 9 29 8.77614 29 8.5C29 8.22386 28.7761 8 28.5 8V9ZM0.5 14.9993H7.48094V13.9993H0.5V14.9993ZM7.04498 14.7441L14.064 27.243L14.936 26.7533L7.9169 14.2545L7.04498 14.7441ZM14.9752 27.1537L21.0319 8.65558L20.0815 8.34442L14.0248 26.8425L14.9752 27.1537ZM20.5567 9H28.5V8H20.5567V9ZM4.5 8.5C4.5 9.05228 4.05228 9.5 3.5 9.5V10.5C4.60457 10.5 5.5 9.60457 5.5 8.5H4.5ZM3.5 9.5C2.94772 9.5 2.5 9.05228 2.5 8.5H1.5C1.5 9.60457 2.39543 10.5 3.5 10.5V9.5ZM2.5 8.5C2.5 7.94772 2.94772 7.5 3.5 7.5V6.5C2.39543 6.5 1.5 7.39543 1.5 8.5H2.5ZM3.5 7.5C4.05228 7.5 4.5 7.94772 4.5 8.5H5.5C5.5 7.39543 4.60457 6.5 3.5 6.5V7.5ZM23.5 3.5C23.5 4.05228 23.0523 4.5 22.5 4.5V5.5C23.6046 5.5 24.5 4.60457 24.5 3.5H23.5ZM22.5 4.5C21.9477 4.5 21.5 4.05228 21.5 3.5H20.5C20.5 4.60457 21.3954 5.5 22.5 5.5V4.5ZM21.5 3.5C21.5 2.94772 21.9477 2.5 22.5 2.5V1.5C21.3954 1.5 20.5 2.39543 20.5 3.5H21.5ZM22.5 2.5C23.0523 2.5 23.5 2.94772 23.5 3.5H24.5C24.5 2.39543 23.6046 1.5 22.5 1.5V2.5ZM23.5 22.5C23.5 23.0523 23.0523 23.5 22.5 23.5V24.5C23.6046 24.5 24.5 23.6046 24.5 22.5H23.5ZM22.5 23.5C21.9477 23.5 21.5 23.0523 21.5 22.5H20.5C20.5 23.6046 21.3954 24.5 22.5 24.5V23.5ZM21.5 22.5C21.5 21.9477 21.9477 21.5 22.5 21.5V20.5C21.3954 20.5 20.5 21.3954 20.5 22.5H21.5ZM22.5 21.5C23.0523 21.5 23.5 21.9477 23.5 22.5H24.5C24.5 21.3954 23.6046 20.5 22.5 20.5V21.5Z" fill="var(--ds-icon-color, black)"/>
</svg>