<svg class="ds-icon" width="29" height="29" viewBox="0 0 29 29" fill="none" xmlns="http://www.w3.org/2000/svg">
  <g stroke="var(--ds-icon-color, black)" stroke-linejoin="round" stroke-linecap="round" stroke-width="var(--ds-icon-stroke, 1)">
    <path d="M23.49 4.5L19.38 14.5M23.49 4.5L27.5 14.5M23.49 4.5L16.13 4.5M19.38 14.5L27.5 14.5M19.38 14.5C19.38 16.29 21.21 18.5 23 18.5L24 18.5C25.8 18.5 27.5 16.29 27.5 14.5M5.61 4.5L1.5 14.5M5.61 4.5L9.62 14.5M5.61 4.5L12.88 4.5M1.5 14.5L9.62 14.5M1.5 14.5C1.5 16.29 3.21 18.5 5 18.5H6C7.79 18.5 9.62 16.29 9.62 14.5M6.37 26.5H22.63M12.88 4.5C12.88 5.4 13.6 6.12 14.5 6.12M12.88 4.5C12.88 3.6 13.6 2.88 14.5 2.88C15.4 2.88 16.13 3.6 16.13 4.5M16.13 4.5C16.13 5.4 15.4 6.12 14.5 6.12M14.5 6.12L14.5 26.5"/>
  </g>
</svg>