<svg width="29" height="29" viewBox="0 0 29 29" fill="none" xmlns="http://www.w3.org/2000/svg">
  <path d="M23.4853 4.49999L19.375 14.5M23.4853 4.49999L27.4998 14.5M23.4853 4.49999L16.1251 4.5M19.375 14.5L27.4998 14.5M19.375 14.5C19.375 16.2949 21.2051 18.5 23.0001 18.5L24.0001 18.5C25.795 18.5 27.4998 16.2949 27.4998 14.5M5.61029 4.49999L1.5 14.5M5.61029 4.49999L9.62487 14.5M5.61029 4.49999L12.8751 4.5M1.5 14.5L9.62487 14.5M1.5 14.5C1.5 16.2949 3.20514 18.5 5.00006 18.5H6.00006C7.79499 18.5 9.62487 16.2949 9.62487 14.5M6.37499 26.5H22.625M12.8751 4.5C12.8751 5.39746 13.6026 6.12495 14.5 6.12495M12.8751 4.5C12.8751 3.60254 13.6026 2.875 14.5001 2.875C15.3975 2.875 16.1251 3.60254 16.1251 4.5M16.1251 4.5C16.1251 5.39746 15.3975 6.12495 14.5 6.12495M14.5 6.12495L14.5001 26.5" stroke="var(--ds-icon-color, black)" stroke-linecap="round" stroke-linejoin="round"/>
</svg>