<svg class="ds-icon" width="29" height="29" viewBox="0 0 29 29" fill="none" xmlns="http://www.w3.org/2000/svg">
  <g stroke="var(--ds-icon-color, black)" stroke-linejoin="round" stroke-linecap="round" stroke-width="var(--ds-icon-stroke, 1)">
    <path d="M9.5 4.5H4.17C3.25 4.5 2.5 5.25 2.5 6.17V7.23C2.5 7.81 2.82 8.33 3.33 8.58C3.84 8.84 4.5 9.24 4.5 9.81V24C4.5 25.38 5.62 26.5 7 26.5H22C23.38 26.5 24.5 25.38 24.5 24V9.81C24.5 9.24 25.16 8.84 25.67 8.58C26.18 8.33 26.5 7.81 26.5 7.24V6.17C26.5 5.25 25.75 4.5 24.83 4.5L19.5 4.5M9.5 4.5H19.5M9.5 4.5V3.17C9.5 2.25 10.25 1.5 11.17 1.5H17.83C18.75 1.5 19.5 2.25 19.5 3.17V4.5M10.5 13.5V21.5M18.5 13.5V21.5M5 8.5H24M14.5 13.5V21.5"/>
  </g>
</svg>