<svg width="29" height="29" viewBox="0 0 29 29" fill="none" xmlns="http://www.w3.org/2000/svg">
  <path d="M9.49998 4.5H4.16667C3.24619 4.5 2.5 5.24619 2.5 6.16667V7.23497C2.5 7.80598 2.82261 8.32797 3.33333 8.58333C3.84406 8.83869 4.49998 9.24002 4.49998 9.81103V24C4.49998 25.3807 5.61927 26.5 6.99998 26.5H22C23.3807 26.5 24.5 25.3808 24.5 24.0001V9.81108C24.5 9.24007 25.1559 8.83874 25.6667 8.58338C26.1774 8.32802 26.5 7.80602 26.5 7.23502V6.16671C26.5 5.24623 25.7538 4.50004 24.8333 4.50004L19.5 4.5M9.49998 4.5H19.5M9.49998 4.5V3.16667C9.49998 2.24619 10.2462 1.5 11.1666 1.5H17.8333C18.7538 1.5 19.5 2.24619 19.5 3.16667V4.5M10.5 13.5V21.5M18.5 13.5V21.5M5 8.5H24M14.5 13.5V21.5" stroke="var(--ds-icon-color, black)" stroke-linecap="round"/>
</svg>