<svg class="ds-icon" width="29" height="29" viewBox="0 0 29 29" fill="none" xmlns="http://www.w3.org/2000/svg">
  <path d="M22.2365 14.6527C24.1887 13.5291 25.5035 11.4227 25.5035 9.00858C25.5035 5.41399 22.5896 2.5 18.995 2.5C17.7201 2.5 16.5308 2.86655 15.5268 3.5M24.5035 27.3814V26.439C24.5035 25.3943 23.9035 24.3924 22.8355 23.6537C21.7675 22.915 20.3189 22.5 18.8085 22.5H7.17157C5.66116 22.5 4.21261 22.915 3.14459 23.6537C2.07657 24.3924 1.47656 25.3943 1.47656 26.439V27.3814M27.5109 23.39V22.4476C27.5109 21.4029 26.9109 20.401 25.8428 19.6623C24.7748 18.9235 23.3263 18.5085 21.8159 18.5085L21.0035 18.5M19.5207 13C19.5207 16.5946 16.6067 19.5085 13.0121 19.5085C9.41753 19.5085 6.50354 16.5946 6.50354 13C6.50354 9.40538 9.41753 6.49139 13.0121 6.49139C16.6067 6.49139 19.5207 9.40538 19.5207 13Z" stroke="var(--ds-icon-color, black)" stroke-linecap="round" stroke-linejoin="round"/>
</svg>