<svg class="ds-icon" width="29" height="29" viewBox="0 0 29 29" fill="none" xmlns="http://www.w3.org/2000/svg">
  <g stroke="var(--ds-icon-color, black)" stroke-linejoin="round" stroke-linecap="round" stroke-width="var(--ds-icon-stroke, 1)">
    <path d="M22.24 14.65C24.19 13.53 25.5 11.42 25.5 9.01C25.5 5.41 22.59 2.5 18.99 2.5C17.72 2.5 16.53 2.87 15.53 3.5M24.5 27.38V26.44C24.5 25.39 23.9 24.39 22.84 23.65C21.77 22.92 20.32 22.5 18.81 22.5H7.17C5.66 22.5 4.21 22.92 3.14 23.65C2.08 24.39 1.48 25.39 1.48 26.44V27.38M27.51 23.39V22.45C27.51 21.4 26.91 20.4 25.84 19.66C24.77 18.92 23.33 18.51 21.82 18.51L21 18.5M19.52 13C19.52 16.59 16.61 19.51 13.01 19.51C9.42 19.51 6.5 16.59 6.5 13C6.5 9.41 9.42 6.49 13.01 6.49C16.61 6.49 19.52 9.41 19.52 13Z"/>
  </g>
</svg>