<svg class="ds-icon" width="29" height="29" viewBox="0 0 29 29" fill="none" xmlns="http://www.w3.org/2000/svg">
  <g stroke="var(--ds-icon-color, black)" stroke-linejoin="round" stroke-linecap="round" stroke-width="var(--ds-icon-stroke, 1)">
    <path d="M3.62632 26.2744H25.3719C25.725 26.2744 26.0722 26.1827 26.3793 26.0083C26.6865 25.8339 26.9431 25.5829 27.1242 25.2797C27.3053 24.9764 27.4046 24.6314 27.4125 24.2783C27.4203 23.9252 27.3364 23.5761 27.169 23.2652L16.2969 3.07369C15.5256 1.6421 13.4726 1.6421 12.7013 3.07369L1.82918 23.2652C1.66175 23.5761 1.57786 23.9252 1.58571 24.2783C1.59356 24.6314 1.69288 24.9764 1.87397 25.2797C2.05506 25.5829 2.31171 25.8339 2.61886 26.0083C2.92601 26.1827 3.27313 26.2744 3.62632 26.2744Z"/>
    <path d="M14.1331 10.2627L14.4992 17.8906L14.8648 10.2658C14.8671 10.217 14.8591 10.1684 14.8416 10.1227C14.824 10.0771 14.7971 10.0354 14.7625 10.0003C14.7279 9.96519 14.6864 9.93735 14.6405 9.9185C14.5946 9.89965 14.5452 9.89017 14.4954 9.89064C14.4465 9.89111 14.3982 9.90118 14.3533 9.92025C14.3084 9.93933 14.2679 9.96702 14.2341 10.0017C14.2003 10.0364 14.174 10.0773 14.1566 10.1222C14.1393 10.167 14.1313 10.2148 14.1331 10.2627Z"/>
  </g>
  <path d="M14.4688 23.0977C14.2215 23.0977 13.9798 23.0243 13.7743 22.887C13.5687 22.7496 13.4085 22.5544 13.3139 22.326C13.2193 22.0976 13.1945 21.8463 13.2428 21.6038C13.291 21.3613 13.4101 21.1386 13.5849 20.9638C13.7597 20.789 13.9824 20.6699 14.2249 20.6217C14.4674 20.5734 14.7187 20.5982 14.9471 20.6928C15.1755 20.7874 15.3707 20.9476 15.5081 21.1532C15.6454 21.3588 15.7188 21.6004 15.7188 21.8477C15.7188 22.1792 15.5871 22.4971 15.3526 22.7315C15.1182 22.966 14.8003 23.0977 14.4688 23.0977Z" fill="var(--ds-icon-color, black)"/>
</svg>