<svg class="ds-icon" width="29" height="29" viewBox="0 0 29 29" fill="none" xmlns="http://www.w3.org/2000/svg">
  <g stroke="var(--ds-icon-color, black)" stroke-linejoin="round" stroke-linecap="round" stroke-width="var(--ds-icon-stroke, 1)">
    <path d="M3.63 26.27H25.37C25.73 26.27 26.07 26.18 26.38 26.01C26.69 25.83 26.94 25.58 27.12 25.28C27.31 24.98 27.4 24.63 27.41 24.28C27.42 23.93 27.34 23.58 27.17 23.27L16.3 3.07C15.53 1.64 13.47 1.64 12.7 3.07L1.83 23.27C1.66 23.58 1.58 23.93 1.59 24.28C1.59 24.63 1.69 24.98 1.87 25.28C2.06 25.58 2.31 25.83 2.62 26.01C2.93 26.18 3.27 26.27 3.63 26.27Z"/>
    <path d="M14.13 10.26L14.5 17.89L14.86 10.27C14.87 10.22 14.86 10.17 14.84 10.12C14.82 10.08 14.8 10.04 14.76 10C14.73 9.97 14.69 9.94 14.64 9.92C14.59 9.9 14.55 9.89 14.5 9.89C14.45 9.89 14.4 9.9 14.35 9.92C14.31 9.94 14.27 9.97 14.23 10C14.2 10.04 14.17 10.08 14.16 10.12C14.14 10.17 14.13 10.21 14.13 10.26Z"/>
  </g>
  <path d="M14.47 23.1C14.22 23.1 13.98 23.02 13.77 22.89C13.57 22.75 13.41 22.55 13.31 22.33C13.22 22.1 13.19 21.85 13.24 21.6C13.29 21.36 13.41 21.14 13.58 20.96C13.76 20.79 13.98 20.67 14.22 20.62C14.47 20.57 14.72 20.6 14.95 20.69C15.18 20.79 15.37 20.95 15.51 21.15C15.65 21.36 15.72 21.6 15.72 21.85C15.72 22.18 15.59 22.5 15.35 22.73C15.12 22.97 14.8 23.1 14.47 23.1Z" fill="var(--ds-icon-color, black)"/>
</svg>